{
.formatVersion = 3;
classes = (
{
code = "one two three B D F I J P S T V W X Y Igrave Iacute Icircumflex Idieresis Eth Yacute Thorn eth Dcaron dcaron Dcroat Itilde Imacron Ibreve Iogonek Idotaccent IJ Jcircumflex lcaron Sacute Scircumflex Scaron Tcaron Tbar Wcircumflex Ycircumflex Ydieresis uni0218 uni021A uni0402 uni0405 uni0406 uni0407 uni0408 uni0409 uni040A uni040E uni0411 uni0412 uni0414 uni0417 uni0420 uni0422 uni0423 uni0424 uni0425 uni042A uni042B uni042C uni042D uni042E Wgrave Wacute Wdieresis Ygrave G_r G_s f_f f_j g_j j_j l_l q_j r.alt r.fina r.init racute.alt racute.fina racute.init rcaron.alt rcaron.fina rcaron.init s.alt s.fina s.init s_s sacute.alt sacute.fina sacute.init scaron.alt scaron.fina scaron.init scedilla.alt scedilla.fina scedilla.init scircumflex.alt scircumflex.fina scircumflex.init t_h t_t uni0157.alt uni0157.fina uni0157.init uni0219.alt uni0219.fina uni0219.init uni0412044F uni0422044F uni0433.alt uni0433.fina uni0433.init uni0436.alt uni0436.fina uni0436.init uni0436.ss02.alt uni0436.ss02.fina uni0436.ss02.init uni0437.alt uni0437.fina uni0437.init uni043B.alt uni043B.init uni043C.alt uni043C.init uni0445.alt uni0445.fina uni0445.init uni0447.alt uni0447.fina uni0447.init uni044A.alt uni044A.fina uni044A.init uni044D.alt uni044D.fina uni044D.init uni044F.alt uni044F.init uni0453.alt uni0453.fina uni0453.init uni0455.alt uni0455.fina uni0455.init uni0459.alt uni0459.init uni0491.alt uni0491.fina uni0491.init x.alt x.fina x.init y_j z.alt z.fina z.init zacute.alt zacute.fina zacute.init zcaron.alt zcaron.fina zcaron.init zdotaccent.alt zdotaccent.fina zdotaccent.init";
name = aalt;
},
{

glyphs = (
{
glyphname = .notdef;
layers = (
{
hints = (
{
horizontal = 1;
place = (-18,65);
type = Stem;
},
{
horizontal = 1;
place = (641,67);
type = Stem;
},
{
place = (73,78);
type = Stem;
},
{
place = (455,66);
type = Stem;
}
);
layerId = "4835E1DE-F61A-4AD8-AAF5-C8058972FAF5";
shapes = (
{
closed = 1;
nodes = (
(519,677,o),
(503,708,o),
(471,708,c),
(142,709,l),
(109,709,o),
(93,678,o),
(93,647,cs),
(93,632,o),
(94,593,o),
(94,539,cs),
(94,464,o),
(92,358,o),
(84,247,cs),
(79,177,o),
(73,108,o),
(73,47,cs),
(73,4,o),
(106,-17,o),
(140,-17,c),
(435,-18,l),
(469,-18,o),
(503,4,o),
(503,48,cs),
(503,78,o),
(508,154,o),
(514,238,cs),
(520,318,o),
(521,401,o),
(521,471,cs),
(521,557,o),
(519,625,o),
(519,645,cs)
);
},
{
closed = 1;
nodes = (
(437,178,o),
(432,109,o),
(431,48,c),
(431,47,l),
(151,48,l),
(151,49,l),
(151,79,o),
(152,154,o),
(158,238,cs),
(165,333,o),
(170,440,o),
(170,530,cs),
(170,572,o),
(169,611,o),
(166,642,c),
(446,641,l),
(452,612,o),
(455,569,o),
(455,516,cs),
(455,439,o),
(449,342,o),
(442,247,cs)
);
},
{
closed = 1;
nodes = (
(362,467,o),
(356,464,o),
(349,460,cs),
(334,451,o),
(314,422,o),
(296,386,c),
(291,407,o),
(288,428,o),
(287,446,cs),
(286,460,o),
(278,468,o),
(268,468,c),
(267,468,o),
(267,468,o),
(266,468,c),
(251,467,o),
(243,460,o),
(243,448,cs),
(243,446,o),
(243,439,o),
(244,430,cs),
(247,401,o),
(256,365,o),
(271,329,c),
(247,276,o),
(240,270,o),
(236,270,cs),
(232,270,o),
(228,274,o),
(225,277,cs),
(220,282,o),
(216,282,o),
(210,282,cs),
(200,282,o),
(193,273,o),
(193,263,cs),
(193,256,o),
(196,249,o),
(202,243,cs),
(211,235,o),
(222,231,o),
(236,231,cs),
(262,231,o),
(280,252,o),
(296,282,c),
(307,264,o),
(320,247,o),
(336,231,cs),
(343,224,o),
(349,218,o),
(357,218,cs),
(372,218,o),
(379,230,o),
(379,240,cs),
(379,247,o),
(377,252,o),
(370,257,cs),
(347,273,o),
(329,298,o),
(316,327,c),
(336,375,o),
(357,411,o),
(379,430,cs),
(386,436,o),
(390,441,o),
(390,447,cs),
(390,460,o),
(380,467,o),
(369,467,cs)
);
}
);
width = 600;
}
);
},
{
glyphname = exclam;
layers = (
{
hints = (
{
horizontal = 1;
place = (-10,109);
type = Stem;
},
{
place = (90,109);
type = Stem;
},
{
place = (114,80);
type = Stem;
}
);
layerId = "4835E1DE-F61A-4AD8-AAF5-C8058972FAF5";
shapes = (
{
closed = 1;
nodes = (
(165,166,o),
(184,180,o),
(186,209,cs),
(192,297,o),
(194,388,o),
(194,470,cs),
(194,548,o),
(192,618,o),
(188,670,cs),
(186,701,o),
(166,717,o),
(146,717,cs),
(125,717,o),
(105,699,o),
(108,663,cs),
(112,613,o),
(114,548,o),
(114,477,cs),
(114,333,o),
(106,260,o),
(106,211,cs),
(106,182,o),
(126,166,o),
(146,166,cs)
);
},
{
closed = 1;
nodes = (
(175,-10,o),
(199,14,o),
(199,45,cs),
(199,75,o),
(175,99,o),
(145,99,cs),
(114,99,o),
(90,75,o),
(90,45,cs),
(90,14,o),
(114,-10,o),
(145,-10,cs)
);
}
);
width = 244;
}
);
unicode = 33;
},
{
glyphname = quotedbl;
layers = (
{
hints = (
{
horizontal = 1;
place = (750,-20);
target = down;
type = TopGhost;
},
{
place = (30,235);
type = Stem;
}
);
layerId = "4835E1DE-F61A-4AD8-AAF5-C8058972FAF5";
shapes = (
{
closed = 1;
nodes = (
(88,521,o),
(105,538,o),
(109,562,c),
(125,701,l),
(125,704,o),
(126,707,o),
(126,709,cs),
(126,732,o),
(111,750,o),
(89,750,cs),
(68,750,o),
(51,733,o),
(47,709,c),
(31,570,l),
(31,567,o),
(30,564,o),
(30,562,cs),
(30,539,o),
(46,521,o),
(67,521,cs)
);
},
{
closed = 1;
nodes = (
(228,521,o),
(246,538,o),
(249,562,cs),
(265,701,ls),
(268,728,o),
(253,750,o),
(229,750,cs),
(208,750,o),
(190,733,o),
(187,709,cs),
(171,570,ls),
(168,543,o),
(183,521,o),
(207,521,cs)
);
}
);
width = 299;
}
);
leftKerningGroup = quotedbl2;
rightKerningGroup = quotedbl;
unicode = 34;
},
{
glyphname = numbersign;
layers = (
{
hints = (
{
horizontal = 1;
place = (217,66);
type = Stem;
},
{
horizontal = 1;
place = (366,66);
type = Stem;
},
{
horizontal = 1;
place = (368,67);
type = Stem;
},
{
horizontal = 1;
place = (371,66);
type = Stem;
},
{
place = (40,439);
type = Stem;
}
);
layerId = "4835E1DE-F61A-4AD8-AAF5-C8058972FAF5";
shapes = (
{
closed = 1;
nodes = (
(467,366,o),
(479,383,o),
(479,399,cs),
(479,416,o),
(467,432,o),
(441,432,cs),
(429,432,o),
(416,433,o),
(401,433,c),
(413,470,o),
(424,504,o),
(434,529,cs),
(436,535,o),
(437,541,o),
(437,547,cs),
(437,569,o),
(419,583,o),
(400,583,cs),
(386,583,o),
(371,575,o),
(364,556,cs),
(353,527,o),
(339,483,o),
(324,434,c),
(301,435,o),
(277,435,o),
(254,435,c),
(265,471,o),
(276,503,o),
(285,529,cs),
(287,536,o),
(288,542,o),
(288,547,cs),
(288,571,o),
(271,585,o),
(252,585,cs),
(238,585,o),
(222,576,o),
(215,556,cs),
(205,527,o),
(191,485,o),
(176,437,c),
(110,437,ls),
(82,437,o),
(69,420,o),
(69,403,cs),
(69,387,o),
(81,371,o),
(106,371,cs),
(118,371,o),
(135,371,o),
(156,370,c),
(147,341,o),
(138,312,o),
(130,283,c),
(78,283,ls),
(54,283,o),
(40,266,o),
(40,249,cs),
(40,233,o),
(53,217,o),
(80,217,cs),
(111,217,l),
(96,168,o),
(85,126,o),
(78,103,cs),
(77,98,o),
(76,94,o),
(76,90,cs),
(76,67,o),
(96,53,o),
(115,53,cs),
(129,53,o),
(144,61,o),
(149,80,cs),
(160,117,o),
(174,165,o),
(189,217,c),
(258,217,l),
(243,167,o),
(231,126,o),
(225,103,cs),
(223,97,o),
(222,92,o),
(222,87,cs),
(222,63,o),
(240,48,o),
(258,48,cs),
(273,48,o),
(289,58,o),
(296,80,cs),
(305,107,o),
(320,158,o),
(337,217,c),
(409,217,ls),
(435,217,o),
(448,234,o),
(448,250,cs),
(448,267,o),
(435,283,o),
(409,283,cs),
(356,283,l),
(364,311,o),
(373,339,o),
(381,367,c),
(405,367,o),
(427,366,o),
(441,366,cs)
);
},
{
closed = 1;
nodes = (
(208,283,l),
(216,312,o),
(225,341,o),
(234,369,c),
(256,369,o),
(280,368,o),
(303,368,c),
(294,340,o),
(286,311,o),
(277,283,c)
);
}
);
width = 514;
}
);
unicode = 35;
},
{
glyphname = dollar;
layers = (
{
hints = (
{
horizontal = 1;
place = (-11,21);
target = up;
type = BottomGhost;
},
{
horizontal = 1;
place = (-10,21);
target = up;
type = BottomGhost;
},
{
horizontal = 1;
place = (712,-20);
target = down;
type = TopGhost;
},
{
place = (31,74);
type = Stem;
},
{
place = (74,77);
type = Stem;
},
{
place = (180,76);
type = Stem;
},
{
place = (192,69);
type = Stem;
},
{
place = (195,71);
type = Stem;
},
{
place = (330,78);
type = Stem;
}
);
layerId = "4835E1DE-F61A-4AD8-AAF5-C8058972FAF5";
shapes = (
{
closed = 1;
nodes = (
(408,281,o),
(334,342,o),
(266,391,c),
(266,452,o),
(264,514,o),
(263,575,c),
(281,567,o),
(297,554,o),
(311,536,cs),
(322,521,o),
(334,515,o),
(346,515,cs),
(363,515,o),
(377,530,o),
(377,550,cs),
(377,559,o),
(374,570,o),
(367,580,cs),
(340,619,o),
(301,642,o),
(262,652,c),
(261,658,o),
(261,663,o),
(261,669,c),
(260,698,o),
(243,712,o),
(226,712,cs),
(209,712,o),
(192,698,o),
(192,669,cs),
(192,655,l),
(128,644,o),
(74,595,o),
(74,515,cs),
(74,438,o),
(134,393,o),
(195,348,c),
(194,239,o),
(189,135,o),
(185,64,c),
(137,76,o),
(105,114,o),
(105,175,cs),
(105,191,o),
(108,199,o),
(108,212,cs),
(108,237,o),
(92,250,o),
(75,250,cs),
(58,250,o),
(39,236,o),
(34,210,cs),
(32,199,o),
(31,187,o),
(31,172,cs),
(31,79,o),
(89,6,o),
(181,-10,c),
(180,-19,o),
(180,-25,o),
(180,-26,c),
(180,-57,o),
(199,-74,o),
(218,-74,cs),
(236,-74,o),
(254,-59,o),
(256,-26,c),
(256,-21,o),
(257,-16,o),
(257,-11,c),
(342,6,o),
(408,82,o),
(408,173,cs)
);
},
{
closed = 1;
nodes = (
(151,551,o),
(169,572,o),
(194,580,c),
(195,535,o),
(196,482,o),
(196,442,c),
(169,464,o),
(151,487,o),
(151,515,cs)
);
},
{
closed = 1;
nodes = (
(263,137,o),
(265,215,o),
(266,294,c),
(303,262,o),
(330,225,o),
(330,173,cs),
(330,116,o),
(299,81,o),
(261,67,c)
);
}
);
width = 440;
}
);
unicode = 36;
},
{
glyphname = percent;
layers = (
{
hints = (
{
horizontal = 1;
place = (-2,67);
type = Stem;
},
{
horizontal = 1;
place = (138,67);
type = Stem;
},
{
horizontal = 1;
place = (440,67);
type = Stem;
},
{
horizontal = 1;
place = (580,67);
type = Stem;
},
{
place = (48,70);
type = Stem;
},
{
place = (192,68);
type = Stem;
},
{
place = (240,70);
type = Stem;
},
{
place = (384,68);
type = Stem;
}
);
layerId = "4835E1DE-F61A-4AD8-AAF5-C8058972FAF5";
shapes = (
{
closed = 1;
nodes = (
(83,-19,o),
(96,-13,o),
(107,1,cs),
(213,136,o),
(344,469,o),
(454,603,cs),
(463,614,o),
(467,625,o),
(467,635,cs),
(467,655,o),
(451,670,o),
(433,670,cs),
(422,670,o),
(410,665,o),
(400,652,cs),
(288,506,o),
(128,162,o),
(47,46,cs),
(40,36,o),
(37,26,o),
(37,17,cs),
(37,-3,o),
(53,-19,o),
(72,-19,cs)
);
},
{
closed = 1;
nodes = (
(209,440,o),
(260,491,o),
(260,555,cs),
(260,609,o),
(221,647,o),
(166,647,cs),
(100,647,o),
(48,597,o),
(48,533,cs),
(48,478,o),
(87,440,o),
(145,440,cs)
);
},
{
closed = 1;
nodes = (
(128,507,o),
(118,522,o),
(118,538,cs),
(118,558,o),
(133,580,o),
(160,580,cs),
(181,580,o),
(192,566,o),
(192,549,cs),
(192,529,o),
(177,507,o),
(151,507,cs)
);
},
{
closed = 1;
nodes = (
(401,-2,o),
(452,49,o),
(452,113,cs),
(452,167,o),
(413,205,o),
(358,205,cs),
(292,205,o),
(240,155,o),
(240,91,cs),
(240,36,o),
(279,-2,o),
(337,-2,cs)
);
},
{
closed = 1;
nodes = (
(320,65,o),
(310,80,o),
(310,96,cs),
(310,116,o),
(325,138,o),
(352,138,cs),
(373,138,o),
(384,124,o),
(384,107,cs),
(384,87,o),
(369,65,o),
(343,65,cs)
);
}
);
width = 511;
}
);
unicode = 37;
},
{
glyphname = ampersand;
layers = (
{
hints = (
{
horizontal = 1;
place = (-23,74);
type = Stem;
},
{
horizontal = 1;
place = (592,74);
type = Stem;
},
{
place = (25,83);
type = Stem;
},
{
place = (125,77);
type = Stem;
},
{
place = (264,74);
type = Stem;
},
{
place = (410,73);
type = Stem;
}
);
layerId = "4835E1DE-F61A-4AD8-AAF5-C8058972FAF5";
shapes = (
{
closed = 1;
nodes = (
(466,52,o),
(439,71,o),
(413,91,c),
(452,144,o),
(478,212,o),
(482,286,cs),
(483,297,o),
(483,307,o),
(483,318,cs),
(483,328,o),
(483,338,o),
(482,347,cs),
(481,373,o),
(465,385,o),
(448,385,cs),
(429,385,o),
(410,370,o),
(410,341,cs),
(410,324,o),
(410,303,o),
(409,281,cs),
(406,229,o),
(388,179,o),
(360,140,c),
(298,203,o),
(253,281,o),
(226,361,c),
(283,430,o),
(338,501,o),
(338,573,cs),
(338,629,o),
(311,666,o),
(251,666,cs),
(175,666,o),
(125,607,o),
(125,512,cs),
(125,464,o),
(131,418,o),
(141,373,c),
(83,303,o),
(25,227,o),
(25,150,cs),
(25,45,o),
(93,-23,o),
(203,-23,cs),
(259,-23,o),
(313,-2,o),
(358,33,c),
(385,11,o),
(414,-9,o),
(445,-27,c),
(467,-38,o),
(475,-39,o),
(482,-39,cs),
(506,-39,o),
(522,-19,o),
(522,0,cs),
(522,15,o),
(514,29,o),
(496,37,c)
);
},
{
closed = 1;
nodes = (
(202,572,o),
(224,592,o),
(243,592,cs),
(256,592,o),
(264,585,o),
(264,568,cs),
(264,533,o),
(239,494,o),
(206,451,c),
(203,471,o),
(202,491,o),
(202,511,cs)
);
},
{
closed = 1;
nodes = (
(108,198,o),
(134,243,o),
(168,288,c),
(199,211,o),
(246,142,o),
(304,83,c),
(275,63,o),
(243,51,o),
(210,51,cs),
(143,51,o),
(108,90,o),
(108,156,cs)
);
}
);
width = 531;
}
);
unicode = 38;
},
{
glyphname = quotesingle;
layers = (
{
hints = (
{
horizontal = 1;
place = (750,-20);
target = down;
type = TopGhost;
},
{
place = (30,96);
type = Stem;
}
);
layerId = "4835E1DE-F61A-4AD8-AAF5-C8058972FAF5";
shapes = (
{
closed = 1;
nodes = (
(125,701,l),
(125,704,o),
(126,707,o),
(126,709,cs),
(126,732,o),
(111,750,o),
(89,750,cs),
(68,750,o),
(51,733,o),
(47,709,c),
(31,570,l),
(31,567,o),
(30,564,o),
(30,562,cs),
(30,539,o),
(45,521,o),
(67,521,cs),
(88,521,o),
(105,538,o),
(109,562,c)
);
}
);
width = 158;
}
);
leftKerningGroup = quotedbl2;
rightKerningGroup = quotedbl;
unicode = 39;
},
{
glyphname = parenleft;
layers = (
{
hints = (
{
horizontal = 1;
place = (-18,699);
type = Stem;
},
{
place = (70,80);
type = Stem;
}
);
layerId = "4835E1DE-F61A-4AD8-AAF5-C8058972FAF5";
shapes = (
{
closed = 1;
nodes = (
(193,-12,o),
(207,-18,o),
(220,-18,cs),
(241,-18,o),
(256,-3,o),
(256,17,cs),
(256,30,o),
(249,45,o),
(234,59,cs),
(181,109,o),
(150,199,o),
(150,316,cs),
(150,427,o),
(179,532,o),
(226,607,cs),
(235,621,o),
(239,635,o),
(239,646,cs),
(239,667,o),
(225,681,o),
(207,681,cs),
(192,681,o),
(174,671,o),
(159,648,cs),
(102,560,o),
(70,437,o),
(70,311,cs),
(70,175,o),
(110,67,o),
(179,1,cs)
);
}
);
width = 306;
}
);
unicode = 40;
},
{
glyphname = parenright;
layers = (
{
hints = (
{
horizontal = 1;
place = (-18,699);
type = Stem;
},
{
place = (156,80);
type = Stem;
}
);
layerId = "4835E1DE-F61A-4AD8-AAF5-C8058972FAF5";
shapes = (
{
closed = 1;
nodes = (
(204,103,o),
(236,226,o),
(236,352,cs),
(236,488,o),
(196,596,o),
(127,662,cs),
(113,675,o),
(99,681,o),
(86,681,cs),
(65,681,o),
(50,666,o),
(50,646,cs),
(50,633,o),
(57,618,o),
(72,604,cs),
(125,554,o),
(156,464,o),
(156,347,cs),
(156,236,o),
(127,131,o),
(80,56,cs),
(71,42,o),
(67,28,o),
(67,17,cs),
(67,-4,o),
(81,-18,o),
(99,-18,cs),
(114,-18,o),
(132,-8,o),
(147,15,cs)
);
}
);
width = 306;
}
);
unicode = 41;
},
{
glyphname = asterisk;
layers = (
{
hints = (
{
horizontal = 1;
place = (712,-20);
target = down;
type = TopGhost;
},
{
horizontal = 1;
place = (756,-20);
target = down;
type = TopGhost;
},
{
place = (106,54);
type = Stem;
},
{
place = (114,54);
type = Stem;
}
);
layerId = "4835E1DE-F61A-4AD8-AAF5-C8058972FAF5";
shapes = (
{
closed = 1;
nodes = (
(182,640,l),
(196,652,o),
(209,663,o),
(223,674,cs),
(233,682,o),
(237,691,o),
(237,699,cs),
(237,713,o),
(226,725,o),
(212,725,cs),
(205,725,o),
(198,722,o),
(190,716,cs),
(160,691,l),
(160,703,o),
(159,714,o),
(158,726,cs),
(157,746,o),
(144,756,o),
(131,756,cs),
(117,756,o),
(103,745,o),
(104,722,cs),
(105,710,o),
(106,699,o),
(106,687,c),
(76,706,ls),
(69,710,o),
(62,712,o),
(57,712,cs),
(41,712,o),
(31,700,o),
(31,687,cs),
(31,677,o),
(36,667,o),
(48,660,cs),
(62,651,o),
(77,642,o),
(91,634,c),
(54,603,ls),
(44,595,o),
(40,585,o),
(40,576,cs),
(40,563,o),
(50,552,o),
(63,552,cs),
(70,552,o),
(78,555,o),
(87,562,cs),
(96,569,o),
(105,576,o),
(113,584,c),
(116,547,l),
(117,527,o),
(131,516,o),
(144,516,cs),
(157,516,o),
(169,526,o),
(169,547,cs),
(169,560,o),
(167,575,o),
(167,588,c),
(177,581,o),
(188,575,o),
(199,568,cs),
(207,563,o),
(214,561,o),
(220,561,cs),
(234,561,o),
(243,572,o),
(243,585,cs),
(243,595,o),
(238,605,o),
(226,613,cs)
);
}
);
width = 277;
}
);
unicode = 42;
},
{
glyphname = plus;
layers = (
{
hints = (
{
horizontal = 1;
place = (302,70);
type = Stem;
},
{
place = (190,72);
type = Stem;
}
);
layerId = "4835E1DE-F61A-4AD8-AAF5-C8058972FAF5";
shapes = (
{
closed = 1;
nodes = (
(262,372,l),
(262,457,ls),
(262,482,o),
(245,495,o),
(227,495,cs),
(209,495,o),
(190,482,o),
(190,457,c),
(189,373,l),
(111,373,ls),
(86,373,o),
(74,356,o),
(74,338,cs),
(74,321,o),
(86,303,o),
(111,303,cs),
(189,303,l),
(188,221,l),
(188,194,o),
(206,181,o),
(225,181,cs),
(243,181,o),
(261,194,o),
(261,221,cs),
(261,302,l),
(347,302,ls),
(374,302,o),
(388,320,o),
(388,337,cs),
(388,355,o),
(374,372,o),
(347,372,cs)
);
}
);
width = 424;
}
);
unicode = 43;
},
{
glyphname = comma;
layers = (
{
hints = (
{
horizontal = 1;
place = (-152,238);
type = Stem;
},
{
place = (60,83);
type = Stem;
}
);
layerId = "4835E1DE-F61A-4AD8-AAF5-C8058972FAF5";
shapes = (
{
closed = 1;
nodes = (
(43,-152,o),
(52,-150,o),
(60,-145,cs),
(105,-117,o),
(143,-60,o),
(143,12,cs),
(143,64,o),
(113,86,o),
(85,86,cs),
(59,86,o),
(34,66,o),
(34,33,cs),
(34,2,o),
(60,-3,o),
(60,-32,cs),
(60,-66,o),
(36,-86,o),
(18,-102,cs),
(9,-110,o),
(5,-118,o),
(5,-126,cs),
(5,-141,o),
(18,-152,o),
(36,-152,cs)
);
}
);
width = 173;
}
);
leftKerningGroup = comma;
unicode = 44;
},
{
glyphname = hyphen;
layers = (
{
hints = (
{
horizontal = 1;
place = (222,72);
type = Stem;
},
{
place = (100,247);
type = Stem;
}
);
layerId = "4835E1DE-F61A-4AD8-AAF5-C8058972FAF5";
shapes = (
{
closed = 1;
nodes = (
(331,222,o),
(347,237,o),
(347,257,cs),
(347,277,o),
(332,292,o),
(311,292,c),
(253,293,o),
(195,293,o),
(137,294,c),
(116,294,o),
(100,279,o),
(100,259,cs),
(100,239,o),
(115,224,o),
(136,224,c),
(194,223,o),
(252,223,o),
(310,222,c)
);
}
);
width = 417;
}
);
unicode = 45;
},
{
glyphname = period;
layers = (
{
hints = (
{
horizontal = 1;
place = (-12,109);
type = Stem;
},
{
place = (30,109);
type = Stem;
}
);
layerId = "4835E1DE-F61A-4AD8-AAF5-C8058972FAF5";
shapes = (
{
closed = 1;
nodes = (
(115,-12,o),
(139,12,o),
(139,43,cs),
(139,73,o),
(115,97,o),
(85,97,cs),
(54,97,o),
(30,73,o),
(30,43,cs),
(30,12,o),
(54,-12,o),
(85,-12,cs)
);
}
);
width = 169;
}
);
unicode = 46;
},
{
glyphname = slash;
layers = (
{
hints = (
{
horizontal = 1;
place = (-4,21);
target = up;
type = BottomGhost;
},
{
place = (50,331);
type = Stem;
}
);
layerId = "4835E1DE-F61A-4AD8-AAF5-C8058972FAF5";
shapes = (
{
closed = 1;
nodes = (
(97,-4,o),
(109,2,o),
(118,17,cs),
(195,145,o),
(287,479,o),
(371,606,cs),
(377,616,o),
(381,625,o),
(381,633,cs),
(381,635,o),
(380,637,o),
(380,639,c),
(376,657,o),
(364,670,o),
(347,670,cs),
(336,670,o),
(325,665,o),
(314,652,cs),
(223,544,o),
(130,173,o),
(59,61,cs),
(53,51,o),
(50,41,o),
(50,33,cs),
(50,31,o),
(50,30,o),
(50,29,c),
(52,10,o),
(69,-4,o),
(86,-4,cs)
);
}
);
width = 431;
}
);
unicode = 47;
},
{
glyphname = zero;
layers = (
{
hints = (
{
horizontal = 1;
place = (-1,74);
type = Stem;
},
{
horizontal = 1;
place = (600,74);
type = Stem;
},
{
place = (30,81);
type = Stem;
},
{
place = (347,81);
type = Stem;
}
);
layerId = "4835E1DE-F61A-4AD8-AAF5-C8058972FAF5";
shapes = (
{
closed = 1;
nodes = (
(358,-1,o),
(428,132,o),
(428,366,cs),
(428,560,o),
(360,674,o),
(239,674,cs),
(103,674,o),
(30,541,o),
(30,307,cs),
(30,102,o),
(92,-1,o),
(225,-1,cs)
);
},
{
closed = 1;
nodes = (
(146,73,o),
(111,138,o),
(111,307,cs),
(111,502,o),
(158,600,o),
(239,600,cs),
(307,600,o),
(347,520,o),
(347,366,cs),
(347,174,o),
(303,73,o),
(225,73,cs)
);
}
);
width = 458;
}
);
unicode = 48;
},
{
glyphname = one;
layers = (
{
hints = (
{
horizontal = 1;
place = (0,21);
target = up;
type = BottomGhost;
},
{
place = (160,80);
type = Stem;
}
);
layerId = "4835E1DE-F61A-4AD8-AAF5-C8058972FAF5";
shapes = (
{
closed = 1;
nodes = (
(234,662,o),
(216,676,o),
(197,676,cs),
(180,676,o),
(164,665,o),
(157,643,cs),
(135,569,o),
(96,520,o),
(42,481,cs),
(27,470,o),
(20,456,o),
(20,444,cs),
(20,424,o),
(36,408,o),
(57,408,cs),
(66,408,o),
(76,411,o),
(86,418,cs),
(115,438,o),
(139,463,o),
(160,490,c),
(160,348,o),
(155,173,o),
(140,51,cs),
(136,18,o),
(158,0,o),
(180,0,cs),
(198,0,o),
(216,12,o),
(219,39,cs),
(232,160,o),
(240,334,o),
(240,478,cs),
(240,537,o),
(239,592,o),
(236,635,cs)
);
}
);
width = 310;
}
);
unicode = 49;
},
{
glyphname = two;
layers = (
{
hints = (
{
horizontal = 1;
place = (-2,74);
type = Stem;
},
{
horizontal = 1;
place = (599,74);
type = Stem;
},
{
place = (50,78);
type = Stem;
},
{
place = (286,81);
type = Stem;
}
);
layerId = "4835E1DE-F61A-4AD8-AAF5-C8058972FAF5";
shapes = (
{
closed = 1;
nodes = (
(64,97,o),
(30,87,o),
(30,50,cs),
(30,26,o),
(48,5,o),
(73,5,cs),
(103,5,o),
(121,34,o),
(151,34,cs),
(175,34,o),
(237,-2,o),
(314,-2,cs),
(401,-2,o),
(457,83,o),
(457,153,cs),
(457,177,o),
(440,191,o),
(421,191,cs),
(405,191,o),
(389,181,o),
(383,156,cs),
(369,97,o),
(340,72,o),
(295,72,cs),
(267,72,o),
(233,82,o),
(197,100,c),
(296,213,o),
(367,372,o),
(367,495,cs),
(367,617,o),
(303,673,o),
(209,673,cs),
(118,673,o),
(50,607,o),
(50,483,cs),
(50,452,o),
(70,436,o),
(90,436,cs),
(103,436,o),
(113,443,o),
(120,453,cs),
(126,462,o),
(128,472,o),
(128,483,cs),
(128,563,o),
(164,599,o),
(209,599,cs),
(253,599,o),
(286,566,o),
(286,494,cs),
(286,363,o),
(184,175,o),
(119,133,cs)
);
}
);
width = 488;
}
);
unicode = 50;
},
{
glyphname = three;
layers = (
{
hints = (
{
horizontal = 1;
place = (0,75);
type = Stem;
},
{
horizontal = 1;
place = (603,74);
type = Stem;
},
{
place = (49,76);
type = Stem;
},
{
place = (279,80);
type = Stem;
},
{
place = (326,80);
type = Stem;
}
);
layerId = "4835E1DE-F61A-4AD8-AAF5-C8058972FAF5";
shapes = (
{
closed = 1;
nodes = (
(327,418,o),
(359,471,o),
(359,532,cs),
(359,623,o),
(287,677,o),
(211,677,cs),
(133,677,o),
(49,621,o),
(49,516,cs),
(49,481,o),
(57,437,o),
(94,437,cs),
(112,437,o),
(129,450,o),
(129,473,cs),
(129,480,o),
(125,499,o),
(125,513,cs),
(125,572,o),
(166,603,o),
(209,603,cs),
(251,603,o),
(279,575,o),
(279,527,cs),
(279,474,o),
(248,424,o),
(184,401,cs),
(164,394,o),
(155,378,o),
(155,363,cs),
(155,344,o),
(169,326,o),
(194,326,cs),
(279,326,o),
(326,283,o),
(326,207,cs),
(326,127,o),
(273,75,o),
(202,75,cs),
(156,75,o),
(115,96,o),
(94,148,cs),
(85,169,o),
(70,179,o),
(55,179,cs),
(37,179,o),
(20,164,o),
(20,139,cs),
(20,107,o),
(46,66,o),
(77,40,cs),
(109,14,o),
(154,0,o),
(202,0,cs),
(319,0,o),
(406,83,o),
(406,203,cs),
(406,290,o),
(362,352,o),
(285,381,c)
);
}
);
width = 456;
}
);
unicode = 51;
},
{
glyphname = four;
layers = (
{
hints = (
{
horizontal = 1;
place = (-3,21);
target = up;
type = BottomGhost;
},
{
horizontal = 1;
place = (247,73);
type = Stem;
},
{
place = (110,80);
type = Stem;
},
{
place = (266,80);
type = Stem;
}
);
layerId = "4835E1DE-F61A-4AD8-AAF5-C8058972FAF5";
shapes = (
{
closed = 1;
nodes = (
(407,260,o),
(384,272,o),
(360,282,c),
(364,325,o),
(369,366,o),
(373,403,cs),
(379,455,o),
(390,504,o),
(390,524,cs),
(390,554,o),
(371,569,o),
(351,569,cs),
(333,569,o),
(315,556,o),
(310,527,cs),
(299,462,o),
(289,385,o),
(281,308,c),
(248,316,o),
(216,320,o),
(189,320,cs),
(168,320,o),
(154,319,o),
(141,316,c),
(173,382,o),
(190,470,o),
(190,570,cs),
(190,589,o),
(189,609,o),
(188,629,cs),
(186,659,o),
(167,674,o),
(148,674,cs),
(127,674,o),
(108,658,o),
(108,628,cs),
(108,606,o),
(110,581,o),
(110,551,cs),
(110,477,o),
(96,381,o),
(70,341,cs),
(49,308,o),
(20,290,o),
(20,263,cs),
(20,240,o),
(38,221,o),
(63,221,cs),
(89,221,o),
(104,247,o),
(180,247,cs),
(212,247,o),
(244,242,o),
(274,234,c),
(269,166,o),
(266,100,o),
(266,45,cs),
(266,13,o),
(286,-3,o),
(306,-3,cs),
(326,-3,o),
(346,13,o),
(346,45,cs),
(346,101,o),
(349,154,o),
(352,204,c),
(364,198,o),
(376,191,o),
(387,184,cs),
(395,179,o),
(403,177,o),
(410,177,cs),
(431,177,o),
(446,195,o),
(446,214,cs),
(446,225,o),
(440,237,o),
(427,246,cs)
);
}
);
width = 486;
}
);
unicode = 52;
},
{
glyphname = five;
layers = (
{
hints = (
{
horizontal = 1;
place = (0,74);
type = Stem;
},
{
horizontal = 1;
place = (407,72);
type = Stem;
},
{
horizontal = 1;
place = (583,76);
type = Stem;
},
{
place = (351,80);
type = Stem;
}
);
layerId = "4835E1DE-F61A-4AD8-AAF5-C8058972FAF5";
shapes = (
{
closed = 1;
nodes = (
(341,0,o),
(431,106,o),
(431,262,cs),
(431,398,o),
(352,479,o),
(244,479,cs),
(224,479,o),
(198,476,o),
(172,468,c),
(184,517,o),
(185,553,o),
(188,573,cs),
(189,580,o),
(192,583,o),
(199,583,cs),
(252,583,o),
(332,586,o),
(387,624,cs),
(403,635,o),
(409,649,o),
(409,662,cs),
(409,681,o),
(395,698,o),
(374,698,cs),
(366,698,o),
(357,696,o),
(348,690,cs),
(298,659,o),
(251,659,o),
(165,659,cs),
(132,659,o),
(113,643,o),
(111,610,cs),
(109,576,o),
(104,494,o),
(81,424,cs),
(79,417,o),
(77,410,o),
(77,405,cs),
(77,387,o),
(90,378,o),
(108,378,cs),
(134,378,o),
(171,407,o),
(231,407,cs),
(304,407,o),
(351,359,o),
(351,259,cs),
(351,148,o),
(296,74,o),
(214,74,cs),
(159,74,o),
(128,108,o),
(118,174,cs),
(114,201,o),
(97,213,o),
(79,213,cs),
(60,213,o),
(41,197,o),
(41,169,cs),
(41,88,o),
(103,0,o),
(211,0,cs)
);
}
);
width = 481;
}
);
unicode = 53;
},
{
glyphname = six;
layers = (
{
hints = (
{
horizontal = 1;
place = (1,74);
type = Stem;
},
{
horizontal = 1;
place = (352,74);
type = Stem;
},
{
horizontal = 1;
place = (601,74);
type = Stem;
},
{
place = (20,141);
type = Stem;
},
{
place = (393,80);
type = Stem;
}
);
layerId = "4835E1DE-F61A-4AD8-AAF5-C8058972FAF5";
shapes = (
{
closed = 1;
nodes = (
(255,426,o),
(211,412,o),
(169,386,c),
(190,520,o),
(250,601,o),
(322,601,cs),
(357,601,o),
(380,582,o),
(401,548,cs),
(412,530,o),
(427,522,o),
(440,522,cs),
(458,522,o),
(474,536,o),
(474,559,cs),
(474,567,o),
(472,576,o),
(467,586,cs),
(438,644,o),
(385,675,o),
(322,675,cs),
(186,675,o),
(92,541,o),
(83,314,c),
(66,296,o),
(49,275,o),
(32,253,cs),
(23,241,o),
(20,229,o),
(20,218,cs),
(20,197,o),
(36,181,o),
(54,181,cs),
(65,181,o),
(77,186,o),
(87,199,c),
(104,69,o),
(167,1,o),
(269,1,cs),
(382,1,o),
(473,105,o),
(473,235,cs),
(473,351,o),
(406,426,o),
(301,426,cs)
);
},
{
closed = 1;
nodes = (
(198,75,o),
(161,142,o),
(161,277,cs),
(161,293,l),
(204,333,o),
(250,352,o),
(300,352,cs),
(359,352,o),
(393,310,o),
(393,240,cs),
(393,145,o),
(340,75,o),
(270,75,cs)
);
}
);
width = 534;
}
);
unicode = 54;
},
{
glyphname = seven;
layers = (
{
hints = (
{
horizontal = 1;
place = (-2,21);
target = up;
type = BottomGhost;
},
{
horizontal = 1;
place = (232,71);
type = Stem;
},
{
horizontal = 1;
place = (245,71);
type = Stem;
},
{
horizontal = 1;
place = (596,76);
type = Stem;
},
{
place = (30,402);
type = Stem;
}
);
layerId = "4835E1DE-F61A-4AD8-AAF5-C8058972FAF5";
shapes = (
{
closed = 1;
nodes = (
(361,654,o),
(354,637,o),
(317,637,cs),
(252,637,o),
(191,672,o),
(131,672,cs),
(71,672,o),
(30,610,o),
(30,577,cs),
(30,554,o),
(48,538,o),
(67,538,cs),
(80,538,o),
(94,545,o),
(102,562,cs),
(115,589,o),
(122,596,o),
(141,596,cs),
(170,596,o),
(233,570,o),
(284,565,c),
(243,487,o),
(213,397,o),
(192,313,c),
(172,315,o),
(150,316,o),
(126,316,cs),
(96,316,o),
(81,298,o),
(81,281,cs),
(81,263,o),
(96,245,o),
(126,245,cs),
(144,245,o),
(160,244,o),
(176,243,c),
(159,157,o),
(151,83,o),
(151,42,cs),
(151,14,o),
(170,-2,o),
(191,-2,cs),
(210,-2,o),
(229,13,o),
(231,43,cs),
(235,109,o),
(244,174,o),
(257,236,c),
(281,234,o),
(305,232,o),
(333,232,cs),
(361,232,o),
(375,250,o),
(375,268,cs),
(375,285,o),
(361,303,o),
(333,303,cs),
(312,303,o),
(292,304,o),
(273,306,c),
(297,403,o),
(330,488,o),
(364,546,cs),
(371,558,o),
(376,561,o),
(393,566,cs),
(420,573,o),
(432,592,o),
(432,611,cs),
(432,633,o),
(416,654,o),
(390,654,cs)
);
}
);
width = 452;
}
);
unicode = 55;
},
{
glyphname = eight;
layers = (
{
hints = (
{
horizontal = 1;
place = (-1,74);
type = Stem;
},
{
horizontal = 1;
place = (604,75);
type = Stem;
},
{
place = (30,80);
type = Stem;
},
{
place = (68,80);
type = Stem;
},
{
place = (285,80);
type = Stem;
},
{
place = (318,80);
type = Stem;
}
);
layerId = "4835E1DE-F61A-4AD8-AAF5-C8058972FAF5";
shapes = (
{
closed = 1;
nodes = (
(322,419,o),
(365,466,o),
(365,537,cs),
(365,631,o),
(291,679,o),
(217,679,cs),
(143,679,o),
(68,631,o),
(68,536,cs),
(68,470,o),
(107,422,o),
(154,379,c),
(92,329,o),
(30,271,o),
(30,180,cs),
(30,76,o),
(108,-1,o),
(217,-1,cs),
(323,-1,o),
(398,75,o),
(398,179,cs),
(398,268,o),
(334,326,o),
(271,377,c)
);
},
{
closed = 1;
nodes = (
(148,581,o),
(182,604,o),
(216,604,cs),
(250,604,o),
(285,581,o),
(285,534,cs),
(285,492,o),
(254,459,o),
(213,426,c),
(176,459,o),
(148,493,o),
(148,534,cs)
);
},
{
closed = 1;
nodes = (
(154,73,o),
(110,118,o),
(110,181,cs),
(110,247,o),
(157,290,o),
(211,331,c),
(267,286,o),
(318,242,o),
(318,180,cs),
(318,116,o),
(278,73,o),
(217,73,cs)
);
}
);
width = 438;
}
);
unicode = 56;
},
{
glyphname = nine;
layers = (
{
hints = (
{
horizontal = 1;
place = (-4,21);
target = up;
type = BottomGhost;
},
{
horizontal = 1;
place = (254,74);
type = Stem;
},
{
horizontal = 1;
place = (600,74);
type = Stem;
},
{
place = (38,80);
type = Stem;
},
{
place = (341,79);
type = Stem;
}
);
layerId = "4835E1DE-F61A-4AD8-AAF5-C8058972FAF5";
shapes = (
{
closed = 1;
nodes = (
(117,674,o),
(38,582,o),
(38,454,cs),
(38,334,o),
(108,254,o),
(211,254,cs),
(255,254,o),
(297,274,o),
(330,307,c),
(306,172,o),
(241,99,o),
(138,73,cs),
(112,66,o),
(100,48,o),
(100,31,cs),
(100,13,o),
(114,-4,o),
(138,-4,cs),
(157,-4,o),
(197,10,o),
(219,20,cs),
(349,79,o),
(420,223,o),
(420,432,cs),
(420,585,o),
(349,674,o),
(231,674,cs)
);
},
{
closed = 1;
nodes = (
(167,328,o),
(118,368,o),
(118,454,cs),
(118,543,o),
(162,600,o),
(229,600,cs),
(297,600,o),
(340,543,o),
(341,445,c),
(331,371,o),
(273,328,o),
(219,328,cs)
);
}
);
width = 462;
}
);
unicode = 57;
},
{
glyphname = colon;
layers = (
{
hints = (
{
horizontal = 1;
place = (-19,109);
type = Stem;
},
{
horizontal = 1;
place = (251,109);
type = Stem;
},
{
place = (30,109);
type = Stem;
}
);
layerId = "4835E1DE-F61A-4AD8-AAF5-C8058972FAF5";
shapes = (
{
closed = 1;
nodes = (
(115,251,o),
(139,275,o),
(139,306,cs),
(139,336,o),
(115,360,o),
(85,360,cs),
(54,360,o),
(30,336,o),
(30,306,cs),
(30,275,o),
(54,251,o),
(85,251,cs)
);
},
{
closed = 1;
nodes = (
(115,-19,o),
(139,5,o),
(139,36,cs),
(139,66,o),
(115,90,o),
(85,90,cs),
(54,90,o),
(30,66,o),
(30,36,cs),
(30,5,o),
(54,-19,o),
(85,-19,cs)
);
}
);
width = 169;
}
);
leftKerningGroup = colon;
unicode = 58;
},
{
glyphname = semicolon;
layers = (
{
hints = (
{
horizontal = 1;
place = (251,109);
type = Stem;
},
{
place = (33,109);
type = Stem;
},
{
place = (60,83);
type = Stem;
}
);
layerId = "4835E1DE-F61A-4AD8-AAF5-C8058972FAF5";
shapes = (
{
closed = 1;
nodes = (
(118,251,o),
(142,275,o),
(142,306,cs),
(142,336,o),
(118,360,o),
(88,360,cs),
(57,360,o),
(33,336,o),
(33,306,cs),
(33,275,o),
(57,251,o),
(88,251,cs)
);
},
{
closed = 1;
nodes = (
(43,-152,o),
(52,-150,o),
(60,-145,cs),
(105,-117,o),
(143,-60,o),
(143,12,cs),
(143,64,o),
(113,86,o),
(85,86,cs),
(59,86,o),
(34,66,o),
(34,33,cs),
(34,2,o),
(60,-3,o),
(60,-32,cs),
(60,-66,o),
(36,-86,o),
(18,-102,cs),
(9,-110,o),
(5,-118,o),
(5,-126,cs),
(5,-141,o),
(18,-152,o),
(36,-152,cs)
);
}
);
width = 173;
}
);
leftKerningGroup = colon;
unicode = 59;
},
{
glyphname = less;
layers = (
{
hints = (
{
horizontal = 1;
place = (176,323);
type = Stem;
},
{
place = (95,216);
type = Stem;
}
);
layerId = "4835E1DE-F61A-4AD8-AAF5-C8058972FAF5";
shapes = (
{
closed = 1;
nodes = (
(246,187,ls),
(255,179,o),
(265,176,o),
(274,176,cs),
(294,176,o),
(311,193,o),
(311,213,cs),
(311,222,o),
(307,233,o),
(297,242,cs),
(205,325,ls),
(200,330,o),
(197,333,o),
(197,337,cs),
(197,341,o),
(200,345,o),
(206,350,cs),
(297,432,ls),
(307,441,o),
(311,452,o),
(311,462,cs),
(311,482,o),
(294,499,o),
(274,499,cs),
(265,499,o),
(255,495,o),
(246,487,cs),
(114,368,ls),
(101,357,o),
(95,347,o),
(95,337,cs),
(95,327,o),
(101,317,o),
(112,307,cs)
);
}
);
width = 364;
}
);
unicode = 60;
},
{
glyphname = equal;
layers = (
{
hints = (
{
horizontal = 1;
place = (236,70);
type = Stem;
},
{
horizontal = 1;
place = (356,70);
type = Stem;
},
{
place = (125,318);
type = Stem;
}
);
layerId = "4835E1DE-F61A-4AD8-AAF5-C8058972FAF5";
shapes = (
{
closed = 1;
nodes = (
(402,356,l),
(429,356,o),
(443,374,o),
(443,391,cs),
(443,409,o),
(429,426,o),
(402,426,c),
(162,427,l),
(137,427,o),
(125,410,o),
(125,392,cs),
(125,375,o),
(137,357,o),
(162,357,c)
);
},
{
closed = 1;
nodes = (
(402,236,l),
(429,236,o),
(443,254,o),
(443,271,cs),
(443,289,o),
(429,306,o),
(402,306,c),
(162,307,l),
(137,307,o),
(125,290,o),
(125,272,cs),
(125,255,o),
(137,237,o),
(162,237,c)
);
}
);
width = 520;
}
);
unicode = 61;
},
{
glyphname = greater;
layers = (
{
hints = (
{
horizontal = 1;
place = (176,323);
type = Stem;
},
{
place = (95,216);
type = Stem;
}
);
layerId = "4835E1DE-F61A-4AD8-AAF5-C8058972FAF5";
shapes = (
{
closed = 1;
nodes = (
(294,307,ls),
(305,317,o),
(311,327,o),
(311,337,cs),
(311,347,o),
(305,357,o),
(292,368,cs),
(160,487,ls),
(151,495,o),
(141,499,o),
(132,499,cs),
(112,499,o),
(95,482,o),
(95,462,cs),
(95,452,o),
(99,441,o),
(109,432,cs),
(200,350,ls),
(206,345,o),
(209,341,o),
(209,337,cs),
(209,333,o),
(206,330,o),
(201,325,cs),
(109,242,ls),
(99,233,o),
(95,223,o),
(95,213,cs),
(95,193,o),
(112,176,o),
(132,176,cs),
(141,176,o),
(151,179,o),
(160,187,cs)
);
}
);
width = 331;
}
);
unicode = 62;
},
{
glyphname = question;
layers = (
{
hints = (
{
horizontal = 1;
place = (-10,109);
type = Stem;
},
{
horizontal = 1;
place = (635,75);
type = Stem;
},
{
place = (28,80);
type = Stem;
},
{
place = (110,109);
type = Stem;
},
{
place = (126,78);
type = Stem;
},
{
place = (281,81);
type = Stem;
}
);
layerId = "4835E1DE-F61A-4AD8-AAF5-C8058972FAF5";
shapes = (
{
closed = 1;
nodes = (
(185,176,o),
(204,191,o),
(204,222,cs),
(204,306,o),
(239,336,o),
(274,373,cs),
(324,425,o),
(362,467,o),
(362,553,cs),
(362,656,o),
(277,710,o),
(193,710,cs),
(110,710,o),
(28,660,o),
(28,555,cs),
(28,517,o),
(39,480,o),
(75,480,cs),
(94,480,o),
(112,493,o),
(112,518,cs),
(112,522,o),
(108,544,o),
(108,555,cs),
(108,608,o),
(150,635,o),
(193,635,cs),
(237,635,o),
(281,606,o),
(281,547,cs),
(281,499,o),
(256,460,o),
(219,425,cs),
(182,389,o),
(126,343,o),
(126,222,cs),
(126,191,o),
(146,176,o),
(165,176,cs)
);
},
{
closed = 1;
nodes = (
(195,-10,o),
(219,14,o),
(219,45,cs),
(219,75,o),
(195,99,o),
(165,99,cs),
(134,99,o),
(110,75,o),
(110,45,cs),
(110,14,o),
(134,-10,o),
(165,-10,cs)
);
}
);
width = 400;
}
);
unicode = 63;
},
{
glyphname = at;
layers = (
{
hints = (
{
horizontal = 1;
place = (-158,74);
type = Stem;
},
{
horizontal = 1;
place = (7,74);
type = Stem;
},
{
horizontal = 1;
place = (11,73);
type = Stem;
},
{
horizontal = 1;
place = (307,70);
type = Stem;
},
{
horizontal = 1;
place = (471,74);
type = Stem;
},
{
place = (30,80);
type = Stem;
},
{
place = (217,80);
type = Stem;
},
{
place = (452,73);
type = Stem;
},
{
place = (634,79);
type = Stem;
}
);
layerId = "4835E1DE-F61A-4AD8-AAF5-C8058972FAF5";
shapes = (
{
closed = 1;
nodes = (
(193,545,o),
(30,384,o),
(30,148,cs),
(30,-38,o),
(150,-158,o),
(333,-158,cs),
(392,-158,o),
(450,-148,o),
(498,-130,c),
(517,-122,o),
(525,-108,o),
(525,-94,cs),
(525,-75,o),
(511,-58,o),
(489,-58,cs),
(464,-58,o),
(424,-84,o),
(333,-84,cs),
(191,-84,o),
(110,5,o),
(110,162,cs),
(110,343,o),
(242,471,o),
(429,471,cs),
(556,471,o),
(634,397,o),
(634,279,cs),
(634,165,o),
(600,84,o),
(554,84,cs),
(537,84,o),
(526,96,o),
(526,141,cs),
(526,210,o),
(536,327,o),
(536,339,cs),
(536,365,o),
(516,379,o),
(496,379,cs),
(483,379,o),
(469,373,o),
(462,360,c),
(442,371,o),
(419,377,o),
(396,377,cs),
(282,377,o),
(217,259,o),
(217,156,cs),
(217,77,o),
(256,7,o),
(342,7,cs),
(384,7,o),
(428,29,o),
(462,72,c),
(478,33,o),
(507,11,o),
(549,11,cs),
(624,11,o),
(713,99,o),
(713,279,cs),
(713,439,o),
(597,545,o),
(429,545,cs)
);
},
{
closed = 1;
nodes = (
(313,81,o),
(297,115,o),
(297,157,cs),
(297,223,o),
(336,307,o),
(400,307,cs),
(423,307,o),
(443,299,o),
(454,286,c),
(451,219,l),
(441,134,o),
(390,81,o),
(348,81,cs)
);
}
);
width = 743;
}
);
unicode = 64;
},
{
glyphname = A;
layers = (
{
anchors = (
{
name = t.uni0302_2;
position = "{639, 700}";
}
);
hints = (
{
horizontal = 1;
place = (-8,77);
type = Stem;
},
{
horizontal = 1;
place = (-7,75);
type = Stem;
},
{
horizontal = 1;
place = (252,76);
type = Stem;
},
{
horizontal = 1;
place = (256,77);
type = Stem;
},
{
horizontal = 1;
place = (596,114);
type = Stem;
},
{
horizontal = 1;
place = (710,-20);
target = down;
type = TopGhost;
},
{
place = (561,84);
type = Stem;
}
);
layerId = "4835E1DE-F61A-4AD8-AAF5-C8058972FAF5";
shapes = (
{
closed = 1;
nodes = (
(794,188,o),
(732,68,o),
(690,68,cs),
(666,68,o),
(645,89,o),
(645,193,cs),
(645,401,o),
(692,597,o),
(692,656,cs),
(692,691,o),
(673,710,o),
(643,710,cs),
(559,710,o),
(511,603,o),
(405,366,cs),
(399,353,o),
(394,341,o),
(388,329,c),
(354,328,o),
(320,328,o),
(286,328,cs),
(255,328,o),
(239,309,o),
(239,291,cs),
(239,271,o),
(256,252,o),
(289,252,cs),
(306,252,o),
(327,252,o),
(349,253,c),
(281,128,o),
(221,69,o),
(174,69,cs),
(134,69,o),
(116,111,o),
(85,111,cs),
(67,111,o),
(51,95,o),
(51,74,cs),
(51,35,o),
(100,-8,o),
(174,-8,cs),
(289,-8,o),
(379,127,o),
(443,256,c),
(484,259,o),
(525,262,o),
(563,267,c),
(562,239,o),
(561,210,o),
(561,179,cs),
(561,55,o),
(613,-7,o),
(682,-7,cs),
(761,-7,o),
(824,74,o),
(882,233,cs),
(884,239,o),
(885,245,o),
(885,250,cs),
(885,269,o),
(871,280,o),
(855,280,cs),
(842,280,o),
(827,272,o),
(820,254,cs)
);
},
{
closed = 1;
nodes = (
(484,343,o),
(489,354,o),
(493,364,cs),
(567,534,o),
(594,596,o),
(604,596,cs),
(615,596,o),
(583,507,o),
(568,342,c),
(539,338,o),
(510,335,o),
(479,333,c)
);
}
);
width = 798;
}
);
leftKerningGroup = A2;
rightKerningGroup = A;
unicode = 65;
},
{
glyphname = B;
layers = (
{
hints = (
{
horizontal = 1;
place = (-10,75);
type = Stem;
},
{
horizontal = 1;
place = (-9,72);
type = Stem;
},
{
horizontal = 1;
place = (100,72);
type = Stem;
},
{
horizontal = 1;
place = (638,75);
type = Stem;
},
{
place = (71,78);
type = Stem;
},
{
place = (111,84);
type = Stem;
},
{
place = (299,84);
type = Stem;
},
{
place = (535,84);
type = Stem;
},
{
place = (584,84);
type = Stem;
}
);
layerId = "4835E1DE-F61A-4AD8-AAF5-C8058972FAF5";
shapes = (
{
closed = 1;
nodes = (
(583,400,o),
(619,449,o),
(619,517,cs),
(619,625,o),
(526,713,o),
(391,713,cs),
(212,713,o),
(111,602,o),
(111,477,cs),
(111,427,o),
(143,341,o),
(191,341,cs),
(213,341,o),
(230,357,o),
(230,379,cs),
(230,401,o),
(195,436,o),
(195,477,cs),
(195,561,o),
(257,638,o),
(391,638,cs),
(475,638,o),
(535,583,o),
(535,515,cs),
(535,453,o),
(499,415,o),
(435,403,cs),
(414,399,o),
(401,385,o),
(401,366,cs),
(401,347,o),
(415,334,o),
(440,330,cs),
(538,314,o),
(584,273,o),
(584,196,cs),
(584,119,o),
(536,65,o),
(473,65,cs),
(432,65,o),
(388,85,o),
(344,108,c),
(370,172,o),
(383,262,o),
(383,380,cs),
(383,435,o),
(380,489,o),
(371,534,cs),
(366,559,o),
(350,574,o),
(331,574,cs),
(308,574,o),
(290,555,o),
(290,530,cs),
(290,505,o),
(299,439,o),
(299,382,cs),
(299,281,o),
(288,201,o),
(269,147,c),
(237,161,o),
(207,172,o),
(179,172,cs),
(114,172,o),
(71,130,o),
(71,84,cs),
(71,34,o),
(112,-9,o),
(184,-9,cs),
(234,-9,o),
(275,9,o),
(306,45,c),
(355,17,o),
(409,-10,o),
(461,-10,cs),
(578,-10,o),
(668,80,o),
(668,195,cs),
(668,284,o),
(617,350,o),
(535,375,c)
);
},
{
closed = 1;
nodes = (
(160,63,o),
(149,69,o),
(149,82,cs),
(149,93,o),
(160,100,o),
(179,100,cs),
(194,100,o),
(212,94,o),
(232,85,c),
(217,70,o),
(199,63,o),
(179,63,cs)
);
}
);
width = 641;
}
);
unicode = 66;
},
{
glyphname = C;
layers = (
{
anchors = (
{
name = t.uni0302_2;
position = "{432, 700}";
},
{
name = b.uni0326_1_2;
position = "{356, 0}";
}
);
hints = (
{
horizontal = 1;
place = (-11,76);
type = Stem;
},
{
horizontal = 1;
place = (632,75);
type = Stem;
},
{
place = (93,84);
type = Stem;
},
{
place = (472,84);
type = Stem;
}
);
layerId = "4835E1DE-F61A-4AD8-AAF5-C8058972FAF5";
shapes = (
{
closed = 1;
nodes = (
(467,-11,o),
(572,56,o),
(637,233,cs),
(639,238,o),
(640,243,o),
(640,248,cs),
(640,268,o),
(624,282,o),
(608,282,cs),
(595,282,o),
(583,274,o),
(575,254,cs),
(523,121,o),
(442,65,o),
(359,65,cs),
(255,65,o),
(177,147,o),
(177,269,cs),
(177,488,o),
(318,632,o),
(420,632,cs),
(454,632,o),
(472,614,o),
(472,581,cs),
(472,528,o),
(452,511,o),
(452,484,cs),
(452,464,o),
(469,448,o),
(489,448,cs),
(504,448,o),
(522,458,o),
(533,480,cs),
(548,511,o),
(556,548,o),
(556,581,cs),
(556,655,o),
(500,707,o),
(420,707,cs),
(270,707,o),
(93,534,o),
(93,269,cs),
(93,99,o),
(208,-11,o),
(349,-11,cs)
);
}
);
width = 553;
}
);
leftKerningGroup = C;
unicode = 67;
},
{
glyphname = D;
layers = (
{
anchors = (
{
name = t.uni0302_2;
position = "{443, 700}";
}
);
hints = (
{
horizontal = 1;
place = (-5,72);
type = Stem;
},
{
horizontal = 1;
place = (-5,75);
type = Stem;
},
{
horizontal = 1;
place = (114,69);
type = Stem;
},
{
horizontal = 1;
place = (375,75);
type = Stem;
},
{
horizontal = 1;
place = (636,75);
type = Stem;
},
{
place = (82,78);
type = Stem;
},
{
place = (145,84);
type = Stem;
},
{
place = (331,85);
type = Stem;
},
{
place = (694,84);
type = Stem;
}
);
layerId = "4835E1DE-F61A-4AD8-AAF5-C8058972FAF5";
shapes = (
{
closed = 1;
nodes = (
(262,711,o),
(145,630,o),
(145,516,cs),
(145,430,o),
(209,375,o),
(310,375,cs),
(317,375,o),
(325,375,o),
(332,376,c),
(330,303,o),
(320,217,o),
(293,154,c),
(260,170,o),
(226,183,o),
(190,183,cs),
(119,183,o),
(82,135,o),
(82,87,cs),
(82,41,o),
(117,-5,o),
(191,-5,cs),
(247,-5,o),
(290,18,o),
(323,55,c),
(376,25,o),
(437,-5,o),
(500,-5,cs),
(649,-5,o),
(778,124,o),
(778,362,cs),
(778,579,o),
(648,711,o),
(431,711,cs)
);
},
{
closed = 1;
nodes = (
(449,70,o),
(406,91,o),
(363,115,c),
(400,192,o),
(414,295,o),
(417,391,c),
(437,397,o),
(457,404,o),
(475,414,cs),
(494,424,o),
(502,439,o),
(502,453,cs),
(502,472,o),
(487,487,o),
(465,487,cs),
(453,487,o),
(437,480,o),
(416,473,c),
(415,491,o),
(414,508,o),
(412,522,cs),
(409,545,o),
(391,561,o),
(369,561,cs),
(346,561,o),
(331,542,o),
(331,515,cs),
(331,496,o),
(333,473,o),
(333,451,c),
(325,450,o),
(318,450,o),
(310,450,cs),
(259,450,o),
(229,473,o),
(229,517,cs),
(229,592,o),
(306,636,o),
(431,636,cs),
(603,636,o),
(694,541,o),
(694,362,cs),
(694,168,o),
(601,70,o),
(495,70,cs)
);
},
{
closed = 1;
nodes = (
(170,67,o),
(160,79,o),
(160,91,cs),
(160,102,o),
(170,114,o),
(190,114,cs),
(208,114,o),
(230,106,o),
(254,94,c),
(237,77,o),
(216,67,o),
(190,67,cs)
);
}
);
width = 776;
}
);
leftKerningGroup = D2;
rightKerningGroup = D;
unicode = 68;
},
{
glyphname = E;
layers = (
{
anchors = (
{
name = t.uni0302_2;
position = "{353, 700}";
}
);
hints = (
{
horizontal = 1;
place = (-11,76);
type = Stem;
},
{
horizontal = 1;
place = (347,78);
type = Stem;
},
{
horizontal = 1;
place = (637,75);
type = Stem;
},
{
place = (121,84);
type = Stem;
},
{
place = (173,84);
type = Stem;
},
{
place = (433,79);
type = Stem;
}
);
layerId = "4835E1DE-F61A-4AD8-AAF5-C8058972FAF5";
shapes = (
{
closed = 1;
nodes = (
(510,155,o),
(456,65,o),
(345,65,cs),
(263,65,o),
(205,114,o),
(205,196,cs),
(205,287,o),
(274,347,o),
(378,347,cs),
(406,347,o),
(425,363,o),
(425,385,cs),
(425,408,o),
(406,425,o),
(378,425,cs),
(300,425,o),
(257,466,o),
(257,541,cs),
(257,600,o),
(294,637,o),
(350,637,cs),
(397,637,o),
(433,606,o),
(433,561,cs),
(433,552,o),
(431,541,o),
(431,526,cs),
(431,508,o),
(448,494,o),
(466,494,cs),
(488,494,o),
(512,514,o),
(512,570,cs),
(512,655,o),
(437,712,o),
(351,712,cs),
(248,712,o),
(173,638,o),
(173,543,cs),
(173,469,o),
(212,423,o),
(251,393,c),
(169,356,o),
(121,283,o),
(121,194,cs),
(121,75,o),
(211,-11,o),
(340,-11,cs),
(466,-11,o),
(546,64,o),
(611,233,cs),
(613,238,o),
(614,244,o),
(614,249,cs),
(614,268,o),
(599,281,o),
(583,281,cs),
(570,281,o),
(557,273,o),
(549,254,cs)
);
}
);
width = 527;
}
);
leftKerningGroup = E;
rightKerningGroup = A;
unicode = 69;
},
{
glyphname = F;
layers = (
{
hints = (
{
horizontal = 1;
place = (-1,75);
type = Stem;
},
{
horizontal = 1;
place = (323,74);
type = Stem;
},
{
horizontal = 1;
place = (616,75);
type = Stem;
},
{
horizontal = 1;
place = (636,75);
type = Stem;
},
{
horizontal = 1;
place = (707,-20);
target = down;
type = TopGhost;
},
{
place = (92,84);
type = Stem;
},
{
place = (329,86);
type = Stem;
},
{
place = (335,93);
type = Stem;
}
);
layerId = "4835E1DE-F61A-4AD8-AAF5-C8058972FAF5";
shapes = (
{
closed = 1;
nodes = (
(609,616,o),
(673,638,o),
(673,675,cs),
(673,693,o),
(659,707,o),
(637,707,cs),
(613,707,o),
(590,691,o),
(539,691,cs),
(456,691,o),
(361,711,o),
(273,711,cs),
(156,711,o),
(92,651,o),
(92,563,cs),
(92,485,o),
(153,425,o),
(208,425,cs),
(237,425,o),
(250,438,o),
(250,456,cs),
(250,471,o),
(242,480,o),
(231,488,cs),
(209,504,o),
(176,516,o),
(176,564,cs),
(176,610,o),
(212,636,o),
(275,636,cs),
(298,636,o),
(324,634,o),
(352,631,c),
(350,590,o),
(341,470,o),
(335,385,c),
(305,379,o),
(276,370,o),
(256,358,cs),
(239,348,o),
(229,335,o),
(229,321,cs),
(229,303,o),
(240,292,o),
(264,292,cs),
(281,292,o),
(302,300,o),
(330,307,c),
(329,304,o),
(329,302,o),
(329,300,c),
(316,142,o),
(289,74,o),
(228,74,cs),
(200,74,o),
(176,90,o),
(167,123,cs),
(160,148,o),
(151,159,o),
(130,159,cs),
(111,159,o),
(92,142,o),
(92,112,cs),
(92,52,o),
(155,-1,o),
(228,-1,cs),
(342,-1,o),
(398,87,o),
(413,294,cs),
(414,303,o),
(414,312,o),
(415,322,c),
(422,323,o),
(430,323,o),
(438,323,cs),
(467,323,o),
(506,316,o),
(523,316,cs),
(551,316,o),
(565,332,o),
(565,351,cs),
(565,366,o),
(553,381,o),
(529,386,cs),
(498,392,o),
(466,397,o),
(436,397,cs),
(431,397,o),
(426,397,o),
(420,397,c),
(436,623,l),
(473,619,o),
(513,616,o),
(552,616,cs)
);
}
);
width = 572;
}
);
unicode = 70;
},
{
glyphname = G;
layers = (
{
anchors = (
{
name = t.uni0302_2;
position = "{447, 700}";
},
{
name = b.uni0326_1_2;
position = "{391, 0}";
}
);
hints = (
{
horizontal = 1;
place = (-12,75);
type = Stem;
},
{
horizontal = 1;
place = (248,73);
type = Stem;
},
{
horizontal = 1;
place = (399,-20);
target = down;
type = TopGhost;
},
{
horizontal = 1;
place = (632,75);
type = Stem;
},
{
place = (118,84);
type = Stem;
},
{
place = (497,84);
type = Stem;
},
{
place = (503,83);
type = Stem;
}
);
layerId = "4835E1DE-F61A-4AD8-AAF5-C8058972FAF5";
shapes = (
{
closed = 1;
nodes = (
(611,399,o),
(602,394,o),
(594,386,cs),
(540,332,o),
(511,321,o),
(440,321,cs),
(411,321,o),
(397,309,o),
(397,287,cs),
(397,258,o),
(426,248,o),
(460,248,cs),
(473,248,o),
(486,250,o),
(500,252,c),
(502,242,o),
(503,231,o),
(503,220,cs),
(503,119,o),
(455,63,o),
(369,63,cs),
(270,63,o),
(202,140,o),
(202,259,cs),
(202,493,o),
(341,632,o),
(445,632,cs),
(479,632,o),
(497,616,o),
(497,581,cs),
(497,557,o),
(491,538,o),
(485,521,cs),
(481,509,o),
(477,497,o),
(477,487,cs),
(477,464,o),
(494,448,o),
(515,448,cs),
(534,448,o),
(550,465,o),
(561,489,cs),
(574,517,o),
(581,553,o),
(581,581,cs),
(581,654,o),
(526,707,o),
(445,707,cs),
(292,707,o),
(118,537,o),
(118,259,cs),
(118,101,o),
(221,-12,o),
(367,-12,cs),
(497,-12,o),
(586,79,o),
(586,209,cs),
(586,234,o),
(584,258,o),
(578,281,c),
(604,295,o),
(626,313,o),
(639,331,cs),
(647,342,o),
(652,354,o),
(652,366,cs),
(652,384,o),
(638,399,o),
(620,399,cs)
);
}
);
width = 637;
}
);
leftKerningGroup = C;
rightKerningGroup = G;
unicode = 71;
},
{
glyphname = H;
layers = (
{
anchors = (
{
name = t.uni0302_2;
position = "{485, 700}";
},
{
name = b.uni0326_1_2;
position = "{385, 0}";
}
);
hints = (
{
horizontal = 1;
place = (-6,75);
type = Stem;
},
{
horizontal = 1;
place = (1,75);
type = Stem;
},
{
horizontal = 1;
place = (353,72);
type = Stem;
},
{
horizontal = 1;
place = (360,74);
type = Stem;
},
{
horizontal = 1;
place = (395,-20);
target = down;
type = TopGhost;
},
{
horizontal = 1;
place = (631,75);
type = Stem;
},
{
horizontal = 1;
place = (714,-20);
target = down;
type = TopGhost;
},
{
place = (108,78);
type = Stem;
},
{
place = (338,84);
type = Stem;
},
{
place = (561,84);
type = Stem;
}
);
layerId = "4835E1DE-F61A-4AD8-AAF5-C8058972FAF5";
shapes = (
{
closed = 1;
nodes = (
(766,186,o),
(717,76,o),
(678,76,cs),
(658,76,o),
(645,92,o),
(645,173,cs),
(645,212,o),
(650,281,o),
(656,356,c),
(675,354,o),
(689,353,o),
(697,353,cs),
(724,353,o),
(740,371,o),
(740,389,cs),
(740,405,o),
(728,421,o),
(701,425,cs),
(688,427,o),
(675,428,o),
(663,430,c),
(673,547,o),
(685,658,o),
(685,673,cs),
(685,700,o),
(664,714,o),
(643,714,cs),
(623,714,o),
(603,701,o),
(601,675,cs),
(596,608,o),
(587,520,o),
(579,434,c),
(568,434,ls),
(513,434,o),
(463,429,o),
(418,420,c),
(421,459,o),
(422,497,o),
(422,532,cs),
(422,650,o),
(385,706,o),
(308,706,cs),
(234,706,o),
(163,637,o),
(163,587,cs),
(163,570,o),
(176,557,o),
(193,557,cs),
(228,557,o),
(246,631,o),
(294,631,cs),
(321,631,o),
(338,615,o),
(338,534,cs),
(338,489,o),
(335,442,o),
(332,395,c),
(180,338,o),
(108,226,o),
(108,119,cs),
(108,44,o),
(154,-6,o),
(222,-6,cs),
(336,-6,o),
(390,165,o),
(411,341,c),
(457,353,o),
(511,360,o),
(573,360,c),
(566,282,o),
(561,212,o),
(561,170,cs),
(561,52,o),
(607,1,o),
(672,1,cs),
(756,1,o),
(796,87,o),
(854,233,cs),
(856,238,o),
(857,244,o),
(857,249,cs),
(857,268,o),
(842,281,o),
(825,281,cs),
(813,281,o),
(800,273,o),
(792,254,cs)
);
},
{
closed = 1;
nodes = (
(201,69,o),
(186,89,o),
(186,124,cs),
(186,190,o),
(229,262,o),
(322,309,c),
(303,175,o),
(269,69,o),
(226,69,cs)
);
}
);
width = 770;
}
);
leftKerningGroup = H;
rightKerningGroup = A;
unicode = 72;
},
{
glyphname = I;
layers = (
{
anchors = (
{
name = t.uni0302_2;
position = "{306, 700}";
},
{
name = b.uni0326_1_2;
position = "{230, 0}";
}
);
hints = (
{
horizontal = 1;
place = (0,75);
type = Stem;
},
{
horizontal = 1;
place = (636,75);
type = Stem;
},
{
place = (105,84);
type = Stem;
},
{
place = (360,84);
type = Stem;
}
);
layerId = "4835E1DE-F61A-4AD8-AAF5-C8058972FAF5";
shapes = (
{
closed = 1;
nodes = (
(359,609,o),
(360,586,o),
(360,564,cs),
(360,226,o),
(316,75,o),
(246,75,cs),
(210,75,o),
(197,105,o),
(170,105,cs),
(153,105,o),
(138,90,o),
(138,68,cs),
(138,31,o),
(194,0,o),
(244,0,cs),
(382,0,o),
(444,155,o),
(444,558,cs),
(444,593,o),
(444,628,o),
(442,668,cs),
(441,690,o),
(428,700,o),
(407,703,cs),
(372,708,o),
(330,711,o),
(286,711,cs),
(176,711,o),
(105,651,o),
(105,568,cs),
(105,501,o),
(162,427,o),
(221,427,cs),
(244,427,o),
(260,443,o),
(260,466,cs),
(260,479,o),
(250,490,o),
(234,502,cs),
(207,521,o),
(189,544,o),
(189,569,cs),
(189,612,o),
(225,636,o),
(288,636,cs),
(310,636,o),
(335,635,o),
(359,632,c)
);
}
);
width = 459;
}
);
leftKerningGroup = I2;
rightKerningGroup = I;
unicode = 73;
},
{
glyphname = J;
layers = (
{
anchors = (
{
name = t.uni0302_2;
position = "{374, 700}";
},
{
name = b.uni0326_1_2;
position = "{264, 0}";
}
);
hints = (
{
horizontal = 1;
place = (-9,74);
type = Stem;
},
{
horizontal = 1;
place = (600,75);
type = Stem;
},
{
horizontal = 1;
place = (642,75);
type = Stem;
},
{
place = (110,82);
type = Stem;
},
{
place = (159,79);
type = Stem;
},
{
place = (411,84);
type = Stem;
}
);
layerId = "4835E1DE-F61A-4AD8-AAF5-C8058972FAF5";
shapes = (
{
closed = 1;
nodes = (
(536,679,o),
(532,675,o),
(511,675,cs),
(479,675,o),
(388,717,o),
(325,717,cs),
(226,717,o),
(159,654,o),
(159,580,cs),
(159,541,o),
(179,521,o),
(204,521,cs),
(224,521,o),
(238,535,o),
(238,568,cs),
(238,613,o),
(267,642,o),
(329,642,cs),
(359,642,o),
(383,635,o),
(406,627,c),
(409,595,o),
(411,550,o),
(411,497,cs),
(411,131,o),
(345,65,o),
(283,65,cs),
(233,65,o),
(192,106,o),
(192,189,cs),
(192,239,o),
(199,281,o),
(199,292,cs),
(199,321,o),
(180,336,o),
(160,336,cs),
(141,336,o),
(121,322,o),
(117,294,cs),
(111,250,o),
(110,215,o),
(110,189,cs),
(110,64,o),
(183,-9,o),
(280,-9,cs),
(400,-9,o),
(495,82,o),
(495,497,cs),
(495,523,o),
(495,563,o),
(492,601,c),
(498,600,o),
(503,600,o),
(509,600,cs),
(562,600,o),
(583,625,o),
(583,647,cs),
(583,664,o),
(571,679,o),
(552,679,cs)
);
}
);
width = 527;
}
);
leftKerningGroup = J2;
rightKerningGroup = J;
unicode = 74;
},
{
glyphname = K;
layers = (
{
anchors = (
{
name = t.uni0302_2;
position = "{450, 700}";
},
{
name = b.uni0326_1_2;
position = "{421, 0}";
}
);
hints = (
{
horizontal = 1;
place = (-1,75);
type = Stem;
},
{
horizontal = 1;
place = (-12,21);
target = up;
type = BottomGhost;
},
{
horizontal = 1;
place = (395,-20);
target = down;
type = TopGhost;
},
{
horizontal = 1;
place = (632,75);
type = Stem;
},
{
horizontal = 1;
place = (712,-20);
target = down;
type = TopGhost;
},
{
place = (290,84);
type = Stem;
}
);
layerId = "4835E1DE-F61A-4AD8-AAF5-C8058972FAF5";
shapes = (
{
closed = 1;
nodes = (
(719,188,o),
(664,74,o),
(623,74,cs),
(586,74,o),
(570,129,o),
(553,204,cs),
(540,262,o),
(521,325,o),
(483,362,c),
(593,425,o),
(652,543,o),
(668,630,cs),
(670,641,o),
(671,651,o),
(672,660,cs),
(676,694,o),
(657,712,o),
(636,712,cs),
(617,712,o),
(595,697,o),
(589,665,cs),
(561,518,o),
(466,410,o),
(362,393,c),
(370,455,o),
(374,516,o),
(374,572,cs),
(374,655,o),
(321,707,o),
(243,707,cs),
(176,707,o),
(94,641,o),
(94,596,cs),
(94,577,o),
(107,564,o),
(124,564,cs),
(161,564,o),
(188,632,o),
(242,632,cs),
(269,632,o),
(290,613,o),
(290,580,cs),
(290,518,o),
(285,455,o),
(278,395,c),
(275,395,ls),
(245,395,o),
(229,379,o),
(229,362,cs),
(229,346,o),
(241,330,o),
(267,322,c),
(243,170,o),
(208,51,o),
(208,31,cs),
(208,5,o),
(225,-12,o),
(252,-12,cs),
(270,-12,o),
(283,-2,o),
(288,17,cs),
(313,112,o),
(336,216,o),
(352,318,c),
(368,320,o),
(383,323,o),
(398,327,c),
(438,314,o),
(453,255,o),
(470,190,cs),
(493,100,o),
(519,-1,o),
(620,-1,cs),
(696,-1,o),
(755,77,o),
(806,233,cs),
(808,239,o),
(809,244,o),
(809,249,cs),
(809,268,o),
(794,280,o),
(778,280,cs),
(765,280,o),
(751,272,o),
(744,254,cs)
);
}
);
width = 722;
}
);
leftKerningGroup = K;
rightKerningGroup = A;
unicode = 75;
},
{
glyphname = L;
layers = (
{
anchors = (
{
name = t.uni0302_2;
position = "{403, 700}";
},
{
name = b.uni0326_1_2;
position = "{330, 0}";
}
);
hints = (
{
horizontal = 1;
place = (1,75);
type = Stem;
},
{
horizontal = 1;
place = (-3,21);
target = up;
type = BottomGhost;
},
{
horizontal = 1;
place = (33,75);
type = Stem;
},
{
horizontal = 1;
place = (459,72);
type = Stem;
},
{
horizontal = 1;
place = (634,75);
type = Stem;
},
{
place = (415,81);
type = Stem;
}
);
layerId = "4835E1DE-F61A-4AD8-AAF5-C8058972FAF5";
shapes = (
{
closed = 1;
nodes = (
(508,143,o),
(475,76,o),
(427,76,cs),
(369,76,o),
(331,108,o),
(258,108,cs),
(245,108,o),
(227,106,o),
(210,103,c),
(265,178,o),
(283,270,o),
(303,454,c),
(303,456,o),
(303,457,o),
(304,459,c),
(309,459,ls),
(422,459,o),
(496,529,o),
(496,613,cs),
(496,667,o),
(454,709,o),
(395,709,cs),
(316,709,o),
(261,654,o),
(234,548,c),
(199,567,o),
(175,600,o),
(163,643,cs),
(157,664,o),
(144,677,o),
(126,677,cs),
(104,677,o),
(90,660,o),
(90,637,cs),
(90,570,o),
(142,504,o),
(220,475,c),
(220,471,o),
(219,466,o),
(219,462,c),
(196,237,o),
(173,156,o),
(77,76,cs),
(65,66,o),
(59,52,o),
(59,38,cs),
(59,16,o),
(78,-3,o),
(102,-3,cs),
(110,-3,o),
(119,0,o),
(128,4,cs),
(179,27,o),
(210,33,o),
(248,33,cs),
(300,33,o),
(374,1,o),
(436,1,cs),
(514,1,o),
(558,76,o),
(616,233,cs),
(618,239,o),
(619,245,o),
(619,250,cs),
(619,269,o),
(605,281,o),
(589,281,cs),
(576,281,o),
(562,272,o),
(554,254,cs)
);
},
{
closed = 1;
nodes = (
(404,634,o),
(415,624,o),
(415,606,cs),
(415,572,o),
(380,534,o),
(315,531,c),
(330,600,o),
(354,634,o),
(387,634,cs)
);
}
);
width = 532;
}
);
leftKerningGroup = L;
rightKerningGroup = A;
unicode = 76;
},
{
glyphname = M;
layers = (
{
hints = (
{
horizontal = 1;
place = (-6,75);
type = Stem;
},
{
horizontal = 1;
place = (-10,21);
target = up;
type = BottomGhost;
},
{
horizontal = 1;
place = (522,75);
type = Stem;
},
{
horizontal = 1;
place = (633,75);
type = Stem;
},
{
horizontal = 1;
place = (642,75);
type = Stem;
},
{
place = (245,69);
type = Stem;
},
{
place = (632,83);
type = Stem;
},
{
place = (953,84);
type = Stem;
},
{
place = (968,85);
type = Stem;
}
);
layerId = "4835E1DE-F61A-4AD8-AAF5-C8058972FAF5";
shapes = (
{
closed = 1;
nodes = (
(1157,186,o),
(1108,69,o),
(1067,69,cs),
(1049,69,o),
(1037,82,o),
(1037,126,cs),
(1037,178,o),
(1053,353,o),
(1053,407,cs),
(1053,545,o),
(1002,597,o),
(912,597,cs),
(832,597,o),
(767,542,o),
(715,452,c),
(715,464,ls),
(715,651,o),
(658,708,o),
(558,708,cs),
(446,708,o),
(367,599,o),
(314,441,c),
(303,665,o),
(240,717,o),
(154,717,cs),
(102,717,o),
(63,693,o),
(35,650,cs),
(25,635,o),
(21,621,o),
(21,609,cs),
(21,587,o),
(36,572,o),
(53,572,cs),
(65,572,o),
(79,579,o),
(89,596,cs),
(110,632,o),
(128,642,o),
(149,642,cs),
(197,642,o),
(245,592,o),
(245,299,cs),
(245,191,o),
(223,89,o),
(223,36,cs),
(223,5,o),
(242,-10,o),
(263,-10,cs),
(282,-10,o),
(302,2,o),
(306,33,cs),
(321,169,ls),
(353,446,o),
(454,633,o),
(558,633,cs),
(603,633,o),
(632,604,o),
(632,472,cs),
(632,367,o),
(608,211,o),
(593,117,cs),
(590,98,o),
(588,87,o),
(588,82,cs),
(588,55,o),
(605,39,o),
(628,39,cs),
(647,39,o),
(666,52,o),
(671,78,cs),
(678,115,o),
(685,154,o),
(691,195,c),
(740,443,o),
(836,522,o),
(906,522,cs),
(949,522,o),
(968,493,o),
(968,419,cs),
(968,348,o),
(953,193,o),
(953,133,cs),
(953,38,o),
(995,-6,o),
(1061,-6,cs),
(1138,-6,o),
(1188,82,o),
(1244,233,cs),
(1246,239,o),
(1247,244,o),
(1247,249,cs),
(1247,269,o),
(1232,281,o),
(1216,281,cs),
(1203,281,o),
(1189,273,o),
(1182,254,cs)
);
}
);
width = 1160;
}
);
leftKerningGroup = M;
rightKerningGroup = A;
unicode = 77;
},
{
glyphname = N;
layers = (
{
anchors = (
{
name = t.uni0302_2;
position = "{548, 700}";
},
{
name = b.uni0326_1_2;
position = "{491, 0}";
}
);
hints = (
{
horizontal = 1;
place = (-1,75);
type = Stem;
},
{
horizontal = 1;
place = (-8,21);
target = up;
type = BottomGhost;
},
{
horizontal = 1;
place = (634,75);
type = Stem;
},
{
horizontal = 1;
place = (646,75);
type = Stem;
},
{
place = (248,78);
type = Stem;
},
{
place = (619,84);
type = Stem;
},
{
place = (635,84);
type = Stem;
}
);
layerId = "4835E1DE-F61A-4AD8-AAF5-C8058972FAF5";
shapes = (
{
closed = 1;
nodes = (
(818,188,o),
(766,74,o),
(732,74,cs),
(713,74,o),
(703,94,o),
(703,145,cs),
(703,193,o),
(719,409,o),
(719,471,cs),
(719,637,o),
(668,709,o),
(557,709,cs),
(456,709,o),
(379,619,o),
(326,470,c),
(311,639,o),
(260,721,o),
(159,721,cs),
(109,721,o),
(66,696,o),
(34,650,cs),
(25,637,o),
(21,625,o),
(21,614,cs),
(21,594,o),
(34,580,o),
(50,580,cs),
(67,580,o),
(78,588,o),
(91,606,cs),
(112,635,o),
(129,646,o),
(151,646,cs),
(201,646,o),
(248,597,o),
(248,314,cs),
(248,229,o),
(233,97,o),
(224,46,cs),
(223,42,o),
(223,38,o),
(223,35,cs),
(223,8,o),
(243,-8,o),
(263,-8,cs),
(284,-8,o),
(305,6,o),
(309,39,cs),
(314,77,o),
(320,132,o),
(326,193,cs),
(351,451,o),
(465,634,o),
(556,634,cs),
(608,634,o),
(635,605,o),
(635,460,cs),
(635,398,o),
(619,205,o),
(619,150,cs),
(619,45,o),
(664,-1,o),
(727,-1,cs),
(798,-1,o),
(848,83,o),
(906,233,cs),
(908,238,o),
(909,243,o),
(909,247,cs),
(909,267,o),
(893,281,o),
(876,281,cs),
(864,281,o),
(851,273,o),
(844,254,cs)
);
}
);
width = 822;
}
);
leftKerningGroup = M;
rightKerningGroup = A;
unicode = 78;
},
{
glyphname = O;
layers = (
{
anchors = (
{
name = t.uni0302_2;
position = "{463, 700}";
}
);
hints = (
{
horizontal = 1;
place = (-10,75);
type = Stem;
},
{
horizontal = 1;
place = (75,70);
type = Stem;
},
{
horizontal = 1;
place = (635,75);
type = Stem;
},
{
place = (108,84);
type = Stem;
},
{
place = (263,77);
type = Stem;
},
{
place = (585,84);
type = Stem;
}
);
layerId = "4835E1DE-F61A-4AD8-AAF5-C8058972FAF5";
shapes = (
{
closed = 1;
nodes = (
(717,184,o),
(665,150,o),
(607,145,c),
(645,214,o),
(669,306,o),
(669,420,cs),
(669,615,o),
(574,710,o),
(460,710,cs),
(426,710,o),
(390,697,o),
(360,673,c),
(354,682,o),
(343,688,o),
(327,688,cs),
(317,688,o),
(306,686,o),
(293,681,cs),
(191,642,o),
(108,478,o),
(108,312,cs),
(108,104,o),
(225,-10,o),
(376,-10,cs),
(441,-10,o),
(506,19,o),
(559,77,c),
(569,76,o),
(578,75,o),
(588,75,cs),
(682,75,o),
(765,120,o),
(807,233,cs),
(809,239,o),
(810,245,o),
(810,250,cs),
(810,269,o),
(796,281,o),
(780,281,cs),
(767,281,o),
(753,273,o),
(745,254,cs)
);
},
{
closed = 1;
nodes = (
(523,635,o),
(585,574,o),
(585,423,cs),
(585,303,o),
(559,215,o),
(521,156,c),
(426,189,o),
(340,289,o),
(340,429,cs),
(340,571,o),
(404,635,o),
(464,635,cs)
);
},
{
closed = 1;
nodes = (
(273,65,o),
(192,146,o),
(192,310,cs),
(192,420,o),
(233,526,o),
(292,581,c),
(274,539,o),
(263,487,o),
(263,426,cs),
(263,264,o),
(358,148,o),
(471,100,c),
(441,76,o),
(408,65,o),
(377,65,cs)
);
}
);
width = 723;
}
);
leftKerningGroup = O;
rightKerningGroup = A;
unicode = 79;
},
{
glyphname = P;
layers = (
{
hints = (
{
horizontal = 1;
place = (-10,21);
target = up;
type = BottomGhost;
},
{
horizontal = 1;
place = (193,73);
type = Stem;
},
{
horizontal = 1;
place = (634,75);
type = Stem;
},
{
place = (78,81);
type = Stem;
},
{
place = (204,84);
type = Stem;
},
{
place = (248,84);
type = Stem;
},
{
place = (571,84);
type = Stem;
}
);
layerId = "4835E1DE-F61A-4AD8-AAF5-C8058972FAF5";
shapes = (
{
closed = 1;
nodes = (
(190,709,o),
(78,597,o),
(78,455,cs),
(78,419,o),
(98,400,o),
(118,400,cs),
(139,400,o),
(159,418,o),
(159,455,cs),
(159,559,o),
(233,634,o),
(381,634,cs),
(498,634,o),
(571,561,o),
(571,451,cs),
(571,343,o),
(501,266,o),
(398,266,cs),
(370,266,o),
(344,271,o),
(321,278,c),
(328,323,o),
(332,372,o),
(332,424,cs),
(332,486,o),
(324,562,o),
(273,562,cs),
(252,562,o),
(234,546,o),
(234,521,cs),
(234,509,o),
(248,453,o),
(248,424,cs),
(248,266,o),
(204,132,o),
(204,33,cs),
(204,4,o),
(224,-10,o),
(245,-10,cs),
(267,-10,o),
(288,5,o),
(288,34,cs),
(288,81,o),
(299,138,o),
(310,205,c),
(338,197,o),
(369,193,o),
(402,193,cs),
(550,193,o),
(655,298,o),
(655,451,cs),
(655,604,o),
(546,709,o),
(381,709,cs)
);
}
);
width = 639;
}
);
leftKerningGroup = P;
unicode = 80;
},
{
glyphname = Q;
layers = (
{
hints = (
{
horizontal = 1;
place = (-11,75);
type = Stem;
},
{
horizontal = 1;
place = (-10,75);
type = Stem;
},
{
horizontal = 1;
place = (135,73);
type = Stem;
},
{
horizontal = 1;
place = (637,75);
type = Stem;
},
{
place = (132,84);
type = Stem;
},
{
place = (188,79);
type = Stem;
},
{
place = (571,84);
type = Stem;
}
);
layerId = "4835E1DE-F61A-4AD8-AAF5-C8058972FAF5";
shapes = (
{
closed = 1;
nodes = (
(697,189,o),
(637,64,o),
(594,64,cs),
(577,64,o),
(555,77,o),
(530,96,c),
(603,174,o),
(655,290,o),
(655,426,cs),
(655,610,o),
(551,712,o),
(412,712,cs),
(233,712,o),
(132,545,o),
(132,384,cs),
(132,339,o),
(138,294,o),
(152,253,cs),
(159,233,o),
(175,223,o),
(190,223,cs),
(211,223,o),
(231,238,o),
(231,266,cs),
(231,278,o),
(216,331,o),
(216,375,cs),
(216,500,o),
(284,637,o),
(409,637,cs),
(508,637,o),
(571,562,o),
(571,431,cs),
(571,308,o),
(525,209,o),
(465,144,c),
(419,177,o),
(366,208,o),
(311,208,cs),
(230,208,o),
(188,155,o),
(188,101,cs),
(188,46,o),
(231,-10,o),
(321,-10,cs),
(371,-10,o),
(425,10,o),
(474,46,c),
(513,15,o),
(552,-11,o),
(592,-11,cs),
(687,-11,o),
(761,171,o),
(784,233,cs),
(786,239,o),
(787,245,o),
(787,251,cs),
(787,271,o),
(773,284,o),
(757,284,cs),
(744,284,o),
(730,276,o),
(722,254,cs)
);
},
{
closed = 1;
nodes = (
(267,119,o),
(282,135,o),
(314,135,cs),
(346,135,o),
(378,118,o),
(410,95,c),
(379,75,o),
(349,65,o),
(321,65,cs),
(285,65,o),
(267,84,o),
(267,102,cs)
);
}
);
width = 700;
}
);
leftKerningGroup = Q;
rightKerningGroup = A;
unicode = 81;
},
{
glyphname = R;
layers = (
{
anchors = (
{
name = t.uni0302_2;
position = "{360, 700}";
},
{
name = b.uni0326_1_2;
position = "{363, 0}";
}
);
hints = (
{
horizontal = 1;
place = (-4,75);
type = Stem;
},
{
horizontal = 1;
place = (292,73);
type = Stem;
},
{
horizontal = 1;
place = (634,75);
type = Stem;
},
{
place = (50,84);
type = Stem;
},
{
place = (168,83);
type = Stem;
},
{
place = (205,81);
type = Stem;
},
{
place = (213,82);
type = Stem;
},
{
place = (509,84);
type = Stem;
}
);
layerId = "4835E1DE-F61A-4AD8-AAF5-C8058972FAF5";
shapes = (
{
closed = 1;
nodes = (
(629,171,o),
(588,71,o),
(562,71,cs),
(538,71,o),
(509,133,o),
(481,191,cs),
(461,232,o),
(441,274,o),
(421,300,c),
(526,326,o),
(593,409,o),
(593,501,cs),
(593,627,o),
(499,709,o),
(349,709,cs),
(168,709,o),
(50,591,o),
(50,465,cs),
(50,426,o),
(71,407,o),
(92,407,cs),
(113,407,o),
(134,427,o),
(134,465,cs),
(134,559,o),
(226,634,o),
(349,634,cs),
(452,634,o),
(509,584,o),
(509,498,cs),
(509,425,o),
(449,365,o),
(347,365,cs),
(332,365,o),
(313,365,o),
(293,366,c),
(294,384,o),
(295,404,o),
(295,424,cs),
(295,485,o),
(290,567,o),
(237,567,cs),
(217,567,o),
(198,550,o),
(198,523,cs),
(198,510,o),
(213,460,o),
(213,424,cs),
(213,405,o),
(212,387,o),
(211,370,c),
(190,367,o),
(179,351,o),
(179,335,cs),
(179,320,o),
(187,306,o),
(205,300,c),
(199,252,o),
(191,209,o),
(183,170,cs),
(174,124,o),
(165,69,o),
(168,30,cs),
(170,6,o),
(187,-6,o),
(212,-6,cs),
(236,-6,o),
(251,9,o),
(251,37,cs),
(251,83,o),
(259,131,o),
(268,184,cs),
(274,218,o),
(281,253,o),
(286,292,c),
(323,292,l),
(352,282,o),
(373,226,o),
(400,166,cs),
(435,87,o),
(484,-4,o),
(560,-4,cs),
(627,-4,o),
(665,75,o),
(723,233,cs),
(725,239,o),
(726,245,o),
(726,250,cs),
(726,269,o),
(712,281,o),
(696,281,cs),
(682,281,o),
(668,272,o),
(661,254,cs)
);
}
);
width = 639;
}
);
leftKerningGroup = R;
rightKerningGroup = A;
unicode = 82;
},
{
glyphname = S;
layers = (
{
anchors = (
{
name = t.uni0302_2;
position = "{263, 700}";
},
{
name = b.uni0326_1_2;
position = "{245, 0}";
}
);
hints = (
{
horizontal = 1;
place = (-11,75);
type = Stem;
},
{
horizontal = 1;
place = (635,75);
type = Stem;
},
{
place = (21,84);
type = Stem;
},
{
place = (96,84);
type = Stem;
},
{
place = (343,79);
type = Stem;
},
{
place = (376,84);
type = Stem;
}
);
layerId = "4835E1DE-F61A-4AD8-AAF5-C8058972FAF5";
shapes = (
{
closed = 1;
nodes = (
(365,-11,o),
(460,79,o),
(460,194,cs),
(460,302,o),
(378,355,o),
(303,410,cs),
(239,456,o),
(180,498,o),
(180,564,cs),
(180,604,o),
(214,635,o),
(260,635,cs),
(307,635,o),
(343,604,o),
(343,568,cs),
(343,557,o),
(341,547,o),
(341,538,cs),
(341,518,o),
(360,503,o),
(379,503,cs),
(412,503,o),
(422,539,o),
(422,572,cs),
(422,660,o),
(346,710,o),
(261,710,cs),
(164,710,o),
(96,642,o),
(96,563,cs),
(96,457,o),
(177,397,o),
(252,343,cs),
(316,296,o),
(376,260,o),
(376,188,cs),
(376,119,o),
(320,64,o),
(238,64,cs),
(159,64,o),
(105,114,o),
(105,182,cs),
(105,222,o),
(123,244,o),
(123,275,cs),
(123,300,o),
(105,314,o),
(85,314,cs),
(68,314,o),
(49,303,o),
(40,278,cs),
(28,244,o),
(21,211,o),
(21,180,cs),
(21,69,o),
(109,-11,o),
(235,-11,cs)
);
}
);
width = 431;
}
);
leftKerningGroup = S2;
rightKerningGroup = S;
unicode = 83;
},
{
glyphname = T;
layers = (
{
anchors = (
{
name = t.uni0302_2;
position = "{428, 696}";
},
{
name = b.uni0326_1_2;
position = "{274, 0}";
}
);
hints = (
{
horizontal = 1;
place = (0,75);
type = Stem;
},
{
horizontal = 1;
place = (594,75);
type = Stem;
},
{
horizontal = 1;
place = (636,75);
type = Stem;
},
{
place = (90,84);
type = Stem;
},
{
place = (363,83);
type = Stem;
}
);
layerId = "4835E1DE-F61A-4AD8-AAF5-C8058972FAF5";
shapes = (
{
closed = 1;
nodes = (
(618,742,o),
(642,669,o),
(542,669,cs),
(454,669,o),
(357,711,o),
(258,711,cs),
(156,711,o),
(90,655,o),
(90,571,cs),
(90,516,o),
(121,466,o),
(173,438,cs),
(184,432,o),
(194,430,o),
(204,430,cs),
(229,430,o),
(246,447,o),
(246,466,cs),
(246,480,o),
(238,494,o),
(219,505,cs),
(187,523,o),
(174,544,o),
(174,572,cs),
(174,608,o),
(206,636,o),
(258,636,cs),
(286,636,o),
(322,630,o),
(363,622,c),
(356,536,o),
(344,368,o),
(340,300,cs),
(331,146,o),
(299,75,o),
(242,75,cs),
(208,75,o),
(192,99,o),
(175,127,cs),
(163,147,o),
(148,155,o),
(134,155,cs),
(115,155,o),
(99,140,o),
(99,115,cs),
(99,105,o),
(101,94,o),
(107,82,cs),
(131,35,o),
(176,0,o),
(243,0,cs),
(351,0,o),
(409,90,o),
(424,294,cs),
(429,360,o),
(437,486,o),
(446,606,c),
(486,599,o),
(526,594,o),
(563,594,cs),
(635,594,o),
(700,647,o),
(700,710,cs),
(700,729,o),
(684,742,o),
(666,742,cs)
);
}
);
width = 568;
}
);
leftKerningGroup = T2;
rightKerningGroup = T;
unicode = 84;
},
{
glyphname = U;
layers = (
{
anchors = (
{
name = t.uni0302_2;
position = "{436, 700}";
}
);
hints = (
{
horizontal = 1;
place = (-9,76);
type = Stem;
},
{
horizontal = 1;
place = (-7,75);
type = Stem;
},
{
horizontal = 1;
place = (636,74);
type = Stem;
},
{
place = (175,84);
type = Stem;
},
{
place = (239,84);
type = Stem;
},
{
place = (549,80);
type = Stem;
},
{
place = (569,84);
type = Stem;
}
);
layerId = "4835E1DE-F61A-4AD8-AAF5-C8058972FAF5";
shapes = (
{
closed = 1;
nodes = (
(765,165,o),
(730,68,o),
(687,68,cs),
(657,68,o),
(629,99,o),
(629,240,cs),
(629,301,o),
(634,422,o),
(653,571,cs),
(654,579,o),
(654,582,o),
(654,586,cs),
(654,615,o),
(635,631,o),
(614,631,cs),
(594,631,o),
(574,616,o),
(570,585,c),
(570,582,o),
(569,579,o),
(569,576,c),
(525,306,o),
(417,67,o),
(317,67,cs),
(281,67,o),
(259,89,o),
(259,138,cs),
(259,239,o),
(323,520,o),
(323,592,cs),
(323,668,o),
(271,710,o),
(213,710,cs),
(165,710,o),
(112,682,o),
(81,620,cs),
(77,612,o),
(75,604,o),
(75,597,cs),
(75,577,o),
(91,564,o),
(111,564,cs),
(123,564,o),
(136,571,o),
(144,585,cs),
(165,622,o),
(181,636,o),
(202,636,cs),
(225,636,o),
(239,622,o),
(239,591,cs),
(239,529,o),
(175,242,o),
(175,140,cs),
(175,42,o),
(232,-9,o),
(309,-9,cs),
(414,-9,o),
(493,94,o),
(549,237,c),
(549,214,ls),
(549,51,o),
(610,-7,o),
(678,-7,cs),
(751,-7,o),
(801,65,o),
(863,233,cs),
(865,239,o),
(866,245,o),
(866,250,cs),
(866,269,o),
(852,281,o),
(836,281,cs),
(823,281,o),
(809,273,o),
(801,254,cs)
);
}
);
width = 779;
}
);
leftKerningGroup = U;
rightKerningGroup = A;
unicode = 85;
},
{
glyphname = V;
layers = (
{
hints = (
{
horizontal = 1;
place = (-2,21);
target = up;
type = BottomGhost;
},
{
horizontal = 1;
place = (639,75);
type = Stem;
},
{
place = (34,676);
type = Stem;
}
);
layerId = "4835E1DE-F61A-4AD8-AAF5-C8058972FAF5";
shapes = (
{
closed = 1;
nodes = (
(659,712,o),
(646,708,o),
(633,696,cs),
(504,577,o),
(426,402,o),
(356,163,c),
(346,244,o),
(337,368,o),
(319,552,cs),
(309,656,o),
(259,714,o),
(176,714,cs),
(118,714,o),
(66,681,o),
(45,642,cs),
(38,629,o),
(34,616,o),
(34,603,cs),
(34,583,o),
(47,570,o),
(64,570,cs),
(76,570,o),
(89,576,o),
(100,591,cs),
(120,619,o),
(145,639,o),
(173,639,cs),
(209,639,o),
(229,608,o),
(235,544,cs),
(256,318,o),
(268,172,o),
(303,36,cs),
(309,13,o),
(329,-2,o),
(354,-2,cs),
(373,-2,o),
(390,11,o),
(396,32,cs),
(463,265,o),
(544,500,o),
(689,634,cs),
(703,647,o),
(710,661,o),
(710,673,cs),
(710,695,o),
(693,712,o),
(670,712,cs)
);
}
);
width = 617;
}
);
unicode = 86;
},
{
glyphname = W;
layers = (
{
anchors = (
{
name = t.uni0302_2;
position = "{616, 700}";
}
);
hints = (
{
horizontal = 1;
place = (-2,75);
type = Stem;
},
{
horizontal = 1;
place = (633,75);
type = Stem;
},
{
horizontal = 1;
place = (713,-20);
target = down;
type = TopGhost;
},
{
place = (195,84);
type = Stem;
},
{
place = (242,84);
type = Stem;
},
{
place = (890,84);
type = Stem;
}
);
layerId = "4835E1DE-F61A-4AD8-AAF5-C8058972FAF5";
shapes = (
{
closed = 1;
nodes = (
(915,704,o),
(900,713,o),
(886,713,cs),
(865,713,o),
(845,698,o),
(845,673,cs),
(845,664,o),
(848,653,o),
(854,642,cs),
(875,603,o),
(890,532,o),
(890,457,cs),
(890,181,o),
(793,73,o),
(728,73,cs),
(661,73,o),
(627,165,o),
(627,318,cs),
(627,400,o),
(640,477,o),
(644,504,cs),
(646,516,o),
(648,526,o),
(648,533,c),
(649,558,o),
(628,575,o),
(607,575,cs),
(588,575,o),
(568,560,o),
(564,531,c),
(518,260,o),
(436,73,o),
(345,73,cs),
(304,73,o),
(279,99,o),
(279,167,cs),
(279,278,o),
(326,521,o),
(326,587,cs),
(326,661,o),
(281,708,o),
(215,708,cs),
(160,708,o),
(118,679,o),
(96,647,cs),
(86,632,o),
(81,616,o),
(81,603,cs),
(81,584,o),
(95,570,o),
(112,570,cs),
(123,570,o),
(135,576,o),
(145,591,cs),
(165,622,o),
(182,633,o),
(203,633,cs),
(227,633,o),
(242,617,o),
(242,585,cs),
(242,535,o),
(195,281,o),
(195,177,cs),
(195,55,o),
(252,-2,o),
(344,-2,cs),
(441,-2,o),
(507,84,o),
(554,209,c),
(572,51,o),
(636,-2,o),
(723,-2,cs),
(838,-2,o),
(974,130,o),
(974,445,cs),
(974,540,o),
(954,626,o),
(925,684,cs)
);
}
);
width = 986;
}
);
leftKerningGroup = W2;
rightKerningGroup = W;
unicode = 87;
},
{
glyphname = X;
layers = (
{
hints = (
{
horizontal = 1;
place = (-1,76);
type = Stem;
},
{
horizontal = 1;
place = (400,-20);
target = down;
type = TopGhost;
},
{
horizontal = 1;
place = (706,-20);
target = down;
type = TopGhost;
},
{
horizontal = 1;
place = (713,-20);
target = down;
type = TopGhost;
},
{
place = (56,578);
type = Stem;
}
);
layerId = "4835E1DE-F61A-4AD8-AAF5-C8058972FAF5";
shapes = (
{
closed = 1;
nodes = (
(587,706,o),
(578,703,o),
(568,698,cs),
(504,666,o),
(417,520,o),
(362,400,c),
(330,494,o),
(311,590,o),
(307,675,cs),
(306,697,o),
(289,713,o),
(264,713,cs),
(241,713,o),
(223,695,o),
(223,671,cs),
(223,665,o),
(223,657,o),
(224,645,cs),
(233,535,o),
(262,412,o),
(315,292,c),
(251,145,o),
(212,75,o),
(173,75,cs),
(152,75,o),
(140,85,o),
(128,96,cs),
(116,107,o),
(105,116,o),
(89,116,cs),
(70,116,o),
(56,99,o),
(56,78,cs),
(56,64,o),
(62,49,o),
(77,35,cs),
(99,14,o),
(132,-1,o),
(169,-1,cs),
(261,-1,o),
(308,76,o),
(362,196,c),
(406,116,o),
(462,39,o),
(530,-29,cs),
(539,-38,o),
(550,-45,o),
(562,-45,cs),
(580,-45,o),
(604,-29,o),
(604,-4,cs),
(604,9,o),
(599,20,o),
(590,28,cs),
(514,96,o),
(451,190,o),
(404,294,c),
(490,495,o),
(562,587,o),
(618,637,cs),
(627,645,o),
(634,658,o),
(634,670,cs),
(634,689,o),
(617,706,o),
(595,706,cs)
);
}
);
width = 588;
}
);
unicode = 88;
},
{
glyphname = Y;
layers = (
{
anchors = (
{
name = t.uni0302_2;
position = "{389, 700}";
}
);
hints = (
{
horizontal = 1;
place = (-12,75);
type = Stem;
},
{
horizontal = 1;
place = (234,75);
type = Stem;
},
{
horizontal = 1;
place = (630,75);
type = Stem;
},
{
place = (198,84);
type = Stem;
},
{
place = (212,84);
type = Stem;
},
{
place = (530,84);
type = Stem;
}
);
layerId = "4835E1DE-F61A-4AD8-AAF5-C8058972FAF5";
shapes = (
{
closed = 1;
nodes = (
(608,692,o),
(590,705,o),
(571,705,cs),
(549,705,o),
(525,686,o),
(527,654,cs),
(529,625,o),
(530,593,o),
(530,560,cs),
(530,551,l),
(520,410,o),
(438,309,o),
(354,309,cs),
(310,309,o),
(282,337,o),
(282,401,cs),
(282,448,o),
(296,558,o),
(296,594,cs),
(296,664,o),
(245,705,o),
(186,705,cs),
(141,705,o),
(91,682,o),
(55,632,cs),
(46,620,o),
(42,607,o),
(42,597,cs),
(42,575,o),
(57,563,o),
(74,563,cs),
(84,563,o),
(95,568,o),
(104,577,cs),
(139,612,o),
(161,630,o),
(182,630,cs),
(200,630,o),
(212,615,o),
(212,583,cs),
(212,549,o),
(198,454,o),
(198,395,cs),
(198,291,o),
(255,234,o),
(341,234,cs),
(413,234,o),
(468,273,o),
(509,331,c),
(480,184,o),
(421,63,o),
(329,63,cs),
(297,63,o),
(272,77,o),
(244,110,cs),
(234,122,o),
(223,128,o),
(212,128,cs),
(194,128,o),
(177,114,o),
(177,92,cs),
(177,82,o),
(180,70,o),
(188,58,cs),
(215,17,o),
(267,-12,o),
(329,-12,cs),
(522,-12,o),
(605,261,o),
(614,557,cs),
(615,590,o),
(613,631,o),
(610,665,cs)
);
}
);
width = 614;
}
);
leftKerningGroup = Y2;
rightKerningGroup = Y;
unicode = 89;
},
{
glyphname = Z;
layers = (
{
anchors = (
{
name = t.uni0302_2;
position = "{411, 700}";
}
);
hints = (
{
horizontal = 1;
place = (-9,75);
type = Stem;
},
{
horizontal = 1;
place = (-7,72);
type = Stem;
},
{
horizontal = 1;
place = (103,69);
type = Stem;
},
{
horizontal = 1;
place = (600,75);
type = Stem;
},
{
horizontal = 1;
place = (632,75);
type = Stem;
},
{
horizontal = 1;
place = (704,-20);
target = down;
type = TopGhost;
},
{
place = (75,79);
type = Stem;
},
{
place = (139,77);
type = Stem;
}
);
layerId = "4835E1DE-F61A-4AD8-AAF5-C8058972FAF5";
shapes = (
{
closed = 1;
nodes = (
(569,130,o),
(524,66,o),
(471,66,cs),
(437,66,o),
(400,83,o),
(362,104,c),
(371,116,o),
(379,130,o),
(388,145,cs),
(490,323,o),
(609,605,o),
(609,664,cs),
(609,690,o),
(590,704,o),
(569,704,cs),
(533,704,o),
(514,675,o),
(469,675,cs),
(392,675,o),
(323,707,o),
(256,707,cs),
(188,707,o),
(139,658,o),
(139,586,cs),
(139,546,o),
(154,490,o),
(195,490,cs),
(215,490,o),
(231,506,o),
(231,526,cs),
(231,537,o),
(216,565,o),
(216,586,cs),
(216,616,o),
(230,632,o),
(256,632,cs),
(322,632,o),
(386,600,o),
(463,600,cs),
(477,600,o),
(492,601,o),
(508,604,c),
(459,475,o),
(349,232,o),
(287,144,c),
(254,160,o),
(221,172,o),
(188,172,cs),
(114,172,o),
(75,129,o),
(75,85,cs),
(75,40,o),
(113,-7,o),
(192,-7,cs),
(235,-7,o),
(276,11,o),
(313,46,c),
(364,19,o),
(421,-9,o),
(470,-9,cs),
(562,-9,o),
(621,81,o),
(681,233,cs),
(683,239,o),
(684,244,o),
(684,249,cs),
(684,268,o),
(670,280,o),
(653,280,cs),
(640,280,o),
(626,272,o),
(619,254,cs)
);
},
{
closed = 1;
nodes = (
(165,65,o),
(154,74,o),
(154,84,cs),
(154,93,o),
(164,103,o),
(185,103,cs),
(199,103,o),
(217,97,o),
(237,86,c),
(219,72,o),
(202,65,o),
(185,65,cs)
);
}
);
width = 597;
}
);
leftKerningGroup = Z;
rightKerningGroup = A;
unicode = 90;
},
{
glyphname = bracketleft;
layers = (
{
hints = (
{
horizontal = 1;
place = (-24,69);
type = Stem;
},
{
horizontal = 1;
place = (606,68);
type = Stem;
},
{
place = (80,78);
type = Stem;
}
);
layerId = "4835E1DE-F61A-4AD8-AAF5-C8058972FAF5";
shapes = (
{
closed = 1;
nodes = (
(268,-20,o),
(283,-2,o),
(283,14,cs),
(283,30,o),
(270,45,o),
(244,45,cs),
(214,45,o),
(183,43,o),
(172,56,cs),
(159,71,o),
(158,229,o),
(158,325,cs),
(158,421,o),
(161,577,o),
(175,594,cs),
(180,600,o),
(212,605,o),
(243,606,cs),
(269,607,o),
(284,624,o),
(284,641,cs),
(284,658,o),
(270,674,o),
(240,674,cs),
(195,674,o),
(131,672,o),
(109,652,cs),
(91,636,o),
(80,445,o),
(80,326,cs),
(80,206,o),
(86,12,o),
(107,-7,cs),
(121,-20,o),
(162,-24,o),
(201,-24,cs),
(213,-24,o),
(226,-24,o),
(237,-23,cs)
);
}
);
width = 314;
}
);
unicode = 91;
},
{
glyphname = backslash;
layers = (
{
hints = (
{
horizontal = 1;
place = (-4,21);
target = up;
type = BottomGhost;
},
{
place = (45,331);
type = Stem;
}
);
layerId = "4835E1DE-F61A-4AD8-AAF5-C8058972FAF5";
shapes = (
{
closed = 1;
nodes = (
(358,-4,o),
(376,12,o),
(376,33,cs),
(376,41,o),
(373,51,o),
(367,61,cs),
(296,173,o),
(203,544,o),
(112,652,cs),
(101,665,o),
(90,670,o),
(79,670,cs),
(62,670,o),
(50,657,o),
(46,639,cs),
(44,629,o),
(47,618,o),
(55,606,cs),
(139,479,o),
(231,145,o),
(308,17,cs),
(317,2,o),
(329,-4,o),
(340,-4,cs)
);
}
);
width = 409;
}
);
unicode = 92;
},
{
glyphname = bracketright;
layers = (
{
hints = (
{
horizontal = 1;
place = (-25,70);
type = Stem;
},
{
horizontal = 1;
place = (606,68);
type = Stem;
},
{
place = (156,78);
type = Stem;
}
);
layerId = "4835E1DE-F61A-4AD8-AAF5-C8058972FAF5";
shapes = (
{
closed = 1;
nodes = (
(89,-24,o),
(102,-25,o),
(115,-25,cs),
(154,-25,o),
(193,-20,o),
(207,-7,cs),
(228,12,o),
(234,206,o),
(234,326,cs),
(234,445,o),
(223,636,o),
(205,652,cs),
(183,672,o),
(119,674,o),
(74,674,cs),
(44,674,o),
(30,658,o),
(30,641,cs),
(30,624,o),
(45,607,o),
(71,606,cs),
(102,605,o),
(134,600,o),
(139,594,cs),
(153,577,o),
(156,421,o),
(156,325,cs),
(156,229,o),
(155,71,o),
(142,56,cs),
(131,44,o),
(100,45,o),
(71,45,cs),
(45,45,o),
(31,30,o),
(31,14,cs),
(31,-3,o),
(46,-20,o),
(77,-23,cs)
);
}
);
width = 314;
}
);
unicode = 93;
},
{
glyphname = asciicircum;
layers = (
{
hints = (
{
horizontal = 1;
place = (373,309);
type = Stem;
},
{
place = (30,299);
type = Stem;
}
);
layerId = "4835E1DE-F61A-4AD8-AAF5-C8058972FAF5";
shapes = (
{
closed = 1;
nodes = (
(76,373,o),
(90,381,o),
(98,398,cs),
(172,552,ls),
(174,556,o),
(176,558,o),
(179,558,cs),
(182,558,o),
(184,556,o),
(186,552,cs),
(260,398,ls),
(268,381,o),
(281,374,o),
(295,374,cs),
(312,374,o),
(329,387,o),
(329,407,cs),
(329,414,o),
(327,421,o),
(323,429,cs),
(216,657,ls),
(208,674,o),
(194,682,o),
(179,682,cs),
(164,682,o),
(150,674,o),
(142,657,cs),
(35,429,ls),
(31,421,o),
(30,414,o),
(30,407,cs),
(30,386,o),
(46,373,o),
(63,373,cs)
);
}
);
width = 359;
}
);
unicode = 94;
},
{
glyphname = underscore;
layers = (
{
hints = (
{
horizontal = 1;
place = (-24,70);
type = Stem;
},
{
place = (72,313);
type = Stem;
}
);
layerId = "4835E1DE-F61A-4AD8-AAF5-C8058972FAF5";
shapes = (
{
closed = 1;
nodes = (
(369,-26,o),
(385,-11,o),
(385,9,cs),
(385,29,o),
(370,44,o),
(349,44,cs),
(267,44,o),
(193,46,o),
(109,46,cs),
(88,46,o),
(72,31,o),
(72,11,cs),
(72,-9,o),
(87,-24,o),
(108,-24,cs),
(192,-24,o),
(266,-26,o),
(348,-26,cs)
);
}
);
width = 405;
}
);
unicode = 95;
},
{
glyphname = grave;
layers = (
{
hints = (
{
horizontal = 1;
place = (761,147);
type = Stem;
},
{
place = (33,143);
type = Stem;
}
);
layerId = "4835E1DE-F61A-4AD8-AAF5-C8058972FAF5";
shapes = (
{
closed = 1;
nodes = (
(100,891,ls),
(89,903,o),
(76,908,o),
(66,908,cs),
(47,908,o),
(33,894,o),
(33,876,cs),
(33,865,o),
(38,853,o),
(49,842,cs),
(111,777,ls),
(122,766,o),
(133,761,o),
(144,761,cs),
(162,761,o),
(176,776,o),
(176,794,cs),
(176,804,o),
(172,816,o),
(161,827,cs)
);
}
);
width = 212;
}
);
unicode = 96;
},
{
glyphname = a;
layers = (
{
anchors = (
{
name = t.uni0302_2;
position = "{223, 400}";
}
);
hints = (
{
horizontal = 1;
place = (-4,74);
type = Stem;
},
{
horizontal = 1;
place = (335,73);
type = Stem;
},
{
place = (5,80);
type = Stem;
},
{
place = (279,68);
type = Stem;
}
);
layerId = "4835E1DE-F61A-4AD8-AAF5-C8058972FAF5";
shapes = (
{
closed = 1;
nodes = (
(451,165,o),
(406,69,o),
(374,69,cs),
(354,69,o),
(347,89,o),
(347,174,cs),
(347,231,o),
(363,350,o),
(363,374,cs),
(363,403,o),
(346,417,o),
(327,417,cs),
(307,417,o),
(294,406,o),
(287,386,c),
(261,401,o),
(235,408,o),
(208,408,cs),
(106,408,o),
(5,302,o),
(5,158,cs),
(5,51,o),
(62,-4,o),
(141,-4,cs),
(199,-4,o),
(243,27,o),
(282,84,c),
(297,25,o),
(331,-4,o),
(372,-4,cs),
(444,-4,o),
(491,82,o),
(548,233,cs),
(550,238,o),
(551,243,o),
(551,247,cs),
(551,267,o),
(535,281,o),
(519,281,cs),
(506,281,o),
(493,273,o),
(486,254,cs)
);
},
{
closed = 1;
nodes = (
(113,70,o),
(85,98,o),
(85,161,cs),
(85,260,o),
(151,335,o),
(218,335,cs),
(248,335,o),
(271,321,o),
(279,298,c),
(276,199,o),
(242,70,o),
(152,70,cs)
);
}
);
width = 464;
}
);
leftKerningGroup = a;
rightKerningGroup = A;
unicode = 97;
},
{
glyphname = b;
layers = (
{
hints = (
{
horizontal = 1;
place = (-6,73);
type = Stem;
},
{
horizontal = 1;
place = (331,72);
type = Stem;
},
{
horizontal = 1;
place = (440,66);
type = Stem;
},
{
horizontal = 1;
place = (641,73);
type = Stem;
},
{
place = (23,80);
type = Stem;
},
{
place = (120,70);
type = Stem;
},
{
place = (302,75);
type = Stem;
},
{
place = (304,80);
type = Stem;
}
);
layerId = "4835E1DE-F61A-4AD8-AAF5-C8058972FAF5";
shapes = (
{
closed = 1;
nodes = (
(421,219,o),
(402,194,o),
(378,179,c),
(382,199,o),
(384,219,o),
(384,239,cs),
(384,326,o),
(343,403,o),
(251,403,cs),
(175,403,o),
(120,336,o),
(120,254,cs),
(120,168,o),
(180,113,o),
(255,98,c),
(238,79,o),
(217,67,o),
(194,67,cs),
(146,67,o),
(103,120,o),
(103,279,cs),
(103,339,o),
(108,393,o),
(118,440,c),
(138,440,ls),
(306,440,o),
(377,519,o),
(377,602,cs),
(377,665,o),
(334,714,o),
(260,714,cs),
(169,714,o),
(97,640,o),
(57,515,c),
(48,517,o),
(42,519,o),
(35,519,cs),
(14,519,o),
(1,503,o),
(1,487,cs),
(1,472,o),
(11,456,o),
(33,450,cs),
(35,449,o),
(37,449,o),
(40,448,c),
(29,395,o),
(23,335,o),
(23,270,cs),
(23,66,o),
(93,-6,o),
(194,-6,cs),
(263,-6,o),
(317,39,o),
(349,99,c),
(414,113,o),
(468,156,o),
(497,233,cs),
(499,238,o),
(500,243,o),
(500,247,cs),
(500,267,o),
(484,279,o),
(468,279,cs),
(455,279,o),
(442,271,o),
(435,254,cs)
);
},
{
closed = 1;
nodes = (
(286,641,o),
(302,625,o),
(302,601,cs),
(302,557,o),
(251,506,o),
(150,506,cs),
(135,506,l),
(164,592,o),
(210,641,o),
(261,641,cs)
);
},
{
closed = 1;
nodes = (
(190,299,o),
(218,331,o),
(251,331,cs),
(287,331,o),
(304,292,o),
(304,245,cs),
(304,218,o),
(299,188,o),
(289,160,c),
(236,164,o),
(190,197,o),
(190,253,cs)
);
}
);
width = 413;
}
);
leftKerningGroup = b;
rightKerningGroup = A;
unicode = 98;
},
{
glyphname = c;
layers = (
{
anchors = (
{
name = t.uni0302_2;
position = "{199, 400}";
},
{
name = b.uni0326_1_2;
position = "{187, 0}";
}
);
hints = (
{
horizontal = 1;
place = (-8,73);
type = Stem;
},
{
horizontal = 1;
place = (337,73);
type = Stem;
},
{
place = (14,80);
type = Stem;
},
{
place = (243,77);
type = Stem;
}
);
layerId = "4835E1DE-F61A-4AD8-AAF5-C8058972FAF5";
shapes = (
{
closed = 1;
nodes = (
(294,-8,o),
(395,59,o),
(460,233,cs),
(462,238,o),
(463,243,o),
(463,248,cs),
(463,267,o),
(447,280,o),
(431,280,cs),
(418,280,o),
(405,273,o),
(398,254,cs),
(359,155,o),
(288,65,o),
(200,65,cs),
(136,65,o),
(94,107,o),
(94,186,cs),
(94,284,o),
(147,337,o),
(199,337,cs),
(226,337,o),
(243,320,o),
(243,293,cs),
(243,265,o),
(256,252,o),
(281,252,cs),
(304,252,o),
(320,268,o),
(320,308,cs),
(320,363,o),
(273,410,o),
(199,410,cs),
(102,410,o),
(14,322,o),
(14,185,cs),
(14,66,o),
(88,-8,o),
(199,-8,cs)
);
}
);
width = 376;
}
);
leftKerningGroup = c;
rightKerningGroup = A;
unicode = 99;
},
{
glyphname = d;
layers = (
{
hints = (
{
horizontal = 1;
place = (-1,73);
type = Stem;
},
{
horizontal = 1;
place = (3,73);
type = Stem;
},
{
horizontal = 1;
place = (345,73);
type = Stem;
},
{
horizontal = 1;
place = (409,-20);
target = down;
type = TopGhost;
},
{
horizontal = 1;
place = (637,72);
type = Stem;
},
{
place = (5,80);
type = Stem;
},
{
place = (256,76);
type = Stem;
},
{
place = (268,69);
type = Stem;
},
{
place = (411,76);
type = Stem;
}
);
layerId = "4835E1DE-F61A-4AD8-AAF5-C8058972FAF5";
shapes = (
{
closed = 1;
nodes = (
(470,189,o),
(422,76,o),
(386,76,cs),
(368,76,o),
(346,94,o),
(337,204,c),
(388,288,o),
(487,466,o),
(487,595,cs),
(487,670,o),
(448,709,o),
(396,709,cs),
(320,709,o),
(256,645,o),
(256,409,c),
(242,415,o),
(227,418,o),
(210,418,cs),
(105,418,o),
(5,318,o),
(5,176,cs),
(5,57,o),
(63,-1,o),
(137,-1,cs),
(186,-1,o),
(244,36,o),
(282,93,c),
(302,33,o),
(333,3,o),
(383,3,cs),
(456,3,o),
(500,81,o),
(558,233,cs),
(560,238,o),
(561,243,o),
(561,247,cs),
(561,266,o),
(545,280,o),
(529,280,cs),
(516,280,o),
(504,273,o),
(496,254,cs)
);
},
{
closed = 1;
nodes = (
(401,637,o),
(411,627,o),
(411,596,cs),
(411,547,o),
(379,432,o),
(332,335,c),
(332,346,ls),
(332,607,o),
(362,637,o),
(387,637,cs)
);
},
{
closed = 1;
nodes = (
(113,72,o),
(85,100,o),
(85,175,cs),
(85,276,o),
(154,345,o),
(211,345,cs),
(247,345,o),
(268,324,o),
(268,264,cs),
(268,148,o),
(192,72,o),
(143,72,cs)
);
}
);
width = 474;
}
);
leftKerningGroup = a;
rightKerningGroup = A;
unicode = 100;
},
{
glyphname = e;
layers = (
{
anchors = (
{
name = t.uni0302_2;
position = "{202, 400}";
}
);
hints = (
{
horizontal = 1;
place = (-6,73);
type = Stem;
},
{
horizontal = 1;
place = (159,67);
type = Stem;
},
{
horizontal = 1;
place = (339,73);
type = Stem;
},
{
place = (16,80);
type = Stem;
},
{
place = (252,78);
type = Stem;
}
);
layerId = "4835E1DE-F61A-4AD8-AAF5-C8058972FAF5";
shapes = (
{
closed = 1;
nodes = (
(364,188,o),
(304,67,o),
(208,67,cs),
(142,67,o),
(101,104,o),
(96,177,c),
(124,165,o),
(152,159,o),
(183,159,cs),
(268,159,o),
(330,221,o),
(330,292,cs),
(330,361,o),
(279,412,o),
(202,412,cs),
(101,412,o),
(16,327,o),
(16,192,cs),
(16,69,o),
(91,-6,o),
(200,-6,cs),
(309,-6,o),
(388,66,o),
(453,233,cs),
(455,238,o),
(456,243,o),
(456,247,cs),
(456,266,o),
(440,280,o),
(424,280,cs),
(411,280,o),
(399,273,o),
(391,254,cs)
);
},
{
closed = 1;
nodes = (
(233,339,o),
(252,320,o),
(252,289,cs),
(252,254,o),
(224,226,o),
(181,226,cs),
(156,226,o),
(126,231,o),
(102,242,c),
(117,304,o),
(159,339,o),
(204,339,cs)
);
}
);
width = 369;
}
);
leftKerningGroup = c;
rightKerningGroup = A;
unicode = 101;
},
{
glyphname = f;
layers = (
{
hints = (
{
horizontal = 1;
place = (-248,73);
type = Stem;
},
{
horizontal = 1;
place = (636,73);
type = Stem;
},
{
place = (24,80);
type = Stem;
},
{
place = (225,80);
type = Stem;
},
{
place = (241,80);
type = Stem;
}
);
layerId = "4835E1DE-F61A-4AD8-AAF5-C8058972FAF5";
shapes = (
{
closed = 1;
nodes = (
(319,182,o),
(284,158,o),
(248,158,cs),
(243,158,l),
(221,195,o),
(194,219,o),
(165,219,cs),
(135,219,o),
(118,198,o),
(118,173,cs),
(118,147,o),
(138,116,o),
(183,102,c),
(207,58,o),
(225,-8,o),
(225,-63,cs),
(225,-150,o),
(200,-175,o),
(178,-175,cs),
(142,-175,o),
(104,-137,o),
(104,201,cs),
(104,244,l),
(270,388,o),
(321,536,o),
(321,604,cs),
(321,672,o),
(284,709,o),
(227,709,cs),
(60,709,o),
(24,437,o),
(24,183,cs),
(24,-185,o),
(87,-248,o),
(176,-248,cs),
(245,-248,o),
(305,-188,o),
(305,-67,cs),
(305,-19,o),
(293,43,o),
(272,97,c),
(330,107,o),
(377,149,o),
(409,233,cs),
(411,238,o),
(412,243,o),
(412,248,cs),
(412,268,o),
(396,282,o),
(380,282,cs),
(367,282,o),
(355,274,o),
(347,254,cs)
);
},
{
closed = 1;
nodes = (
(233,636,o),
(241,628,o),
(241,607,cs),
(241,555,o),
(202,445,o),
(110,342,c),
(126,529,o),
(173,636,o),
(219,636,cs)
);
}
);
width = 325;
}
);
leftKerningGroup = f;
rightKerningGroup = A;
unicode = 102;
},
{
glyphname = g;
layers = (
{
anchors = (
{
name = t.uni0302_2;
position = "{214, 400}";
}
);
hints = (
{
horizontal = 1;
place = (-254,73);
type = Stem;
},
{
horizontal = 1;
place = (10,73);
type = Stem;
},
{
horizontal = 1;
place = (335,74);
type = Stem;
},
{
place = (5,80);
type = Stem;
},
{
place = (93,75);
type = Stem;
},
{
place = (279,81);
type = Stem;
}
);
layerId = "4835E1DE-F61A-4AD8-AAF5-C8058972FAF5";
shapes = (
{
closed = 1;
nodes = (
(423,200,o),
(388,110,o),
(347,60,c),
(353,161,o),
(360,279,o),
(360,300,cs),
(360,370,o),
(282,409,o),
(209,409,cs),
(101,409,o),
(5,313,o),
(5,167,cs),
(5,72,o),
(67,10,o),
(143,10,cs),
(182,10,o),
(224,28,o),
(264,73,c),
(263,49,o),
(261,24,o),
(259,0,c),
(178,-51,o),
(93,-83,o),
(93,-167,cs),
(93,-214,o),
(127,-254,o),
(185,-254,cs),
(267,-254,o),
(322,-184,o),
(340,-36,c),
(425,26,o),
(461,116,o),
(506,233,cs),
(508,238,o),
(509,242,o),
(509,247,cs),
(509,266,o),
(492,279,o),
(476,279,cs),
(464,279,o),
(451,272,o),
(444,254,cs)
);
},
{
closed = 1;
nodes = (
(113,83,o),
(85,111,o),
(85,171,cs),
(85,270,o),
(150,335,o),
(206,335,cs),
(246,335,o),
(268,318,o),
(279,292,c),
(274,173,o),
(247,83,o),
(155,83,cs)
);
},
{
closed = 1;
nodes = (
(178,-181,o),
(168,-173,o),
(168,-160,cs),
(168,-130,o),
(208,-104,o),
(252,-78,c),
(238,-168,o),
(215,-181,o),
(193,-181,cs)
);
}
);
width = 422;
}
);
leftKerningGroup = a;
rightKerningGroup = A;
unicode = 103;
},
{
glyphname = h;
layers = (
{
anchors = (
{
name = t.uni0302_2;
position = "{229, 700}";
}
);
hints = (
{
horizontal = 1;
place = (-4,73);
type = Stem;
},
{
horizontal = 1;
place = (349,73);
type = Stem;
},
{
horizontal = 1;
place = (440,66);
type = Stem;
},
{
horizontal = 1;
place = (640,73);
type = Stem;
},
{
place = (22,81);
type = Stem;
},
{
place = (240,78);
type = Stem;
},
{
place = (275,77);
type = Stem;
},
{
place = (287,78);
type = Stem;
}
);
layerId = "4835E1DE-F61A-4AD8-AAF5-C8058972FAF5";
shapes = (
{
closed = 1;
nodes = (
(438,187,o),
(387,69,o),
(345,69,cs),
(329,69,o),
(318,80,o),
(318,96,cs),
(318,141,o),
(365,245,o),
(365,321,cs),
(365,383,o),
(326,422,o),
(269,422,cs),
(205,422,o),
(144,381,o),
(102,307,c),
(104,359,o),
(108,403,o),
(113,440,c),
(117,440,ls),
(273,440,o),
(352,517,o),
(352,601,cs),
(352,664,o),
(307,713,o),
(232,713,cs),
(158,713,o),
(84,664,o),
(47,516,c),
(38,518,o),
(32,519,o),
(27,519,cs),
(6,519,o),
(-7,503,o),
(-7,487,cs),
(-7,472,o),
(3,456,o),
(25,450,cs),
(28,449,o),
(31,449,o),
(34,448,c),
(26,397,o),
(22,337,o),
(22,267,cs),
(22,194,o),
(23,119,o),
(27,46,cs),
(29,14,o),
(42,-4,o),
(67,-4,cs),
(94,-4,o),
(109,15,o),
(107,50,cs),
(105,75,o),
(104,99,o),
(103,123,c),
(108,268,o),
(205,349,o),
(253,349,cs),
(274,349,o),
(287,336,o),
(287,310,cs),
(287,261,o),
(240,159,o),
(240,94,cs),
(240,37,o),
(281,-4,o),
(334,-4,cs),
(417,-4,o),
(469,87,o),
(526,233,cs),
(528,238,o),
(529,243,o),
(529,247,cs),
(529,267,o),
(513,281,o),
(496,281,cs),
(484,281,o),
(471,273,o),
(464,254,cs)
);
},
{
closed = 1;
nodes = (
(259,640,o),
(275,622,o),
(275,598,cs),
(275,540,o),
(204,506,o),
(127,506,cs),
(125,506,l),
(151,612,o),
(192,640,o),
(232,640,cs)
);
}
);
width = 442;
}
);
leftKerningGroup = h;
rightKerningGroup = A;
unicode = 104;
},
{
glyphname = i;
layers = (
{
hints = (
{
horizontal = 1;
place = (-4,73);
type = Stem;
},
{
horizontal = 1;
place = (407,-20);
target = down;
type = TopGhost;
},
{
horizontal = 1;
place = (461,95);
type = Stem;
},
{
place = (17,80);
type = Stem;
},
{
place = (41,95);
type = Stem;
}
);
layerId = "4835E1DE-F61A-4AD8-AAF5-C8058972FAF5";
shapes = (
{
closed = 1;
nodes = (
(115,461,o),
(136,482,o),
(136,509,cs),
(136,535,o),
(115,556,o),
(89,556,cs),
(62,556,o),
(41,535,o),
(41,509,cs),
(41,482,o),
(62,461,o),
(89,461,cs)
);
},
{
closed = 1;
nodes = (
(204,-4,o),
(250,85,o),
(305,233,cs),
(307,238,o),
(308,243,o),
(308,248,cs),
(308,267,o),
(292,280,o),
(276,280,cs),
(263,280,o),
(250,272,o),
(243,254,cs),
(210,169,o),
(167,69,o),
(132,69,cs),
(115,69,o),
(97,87,o),
(97,157,cs),
(97,215,o),
(110,292,o),
(117,354,cs),
(121,390,o),
(102,407,o),
(81,407,cs),
(62,407,o),
(43,392,o),
(38,363,cs),
(28,307,o),
(17,215,o),
(17,163,cs),
(17,45,o),
(66,-4,o),
(126,-4,cs)
);
}
);
width = 221;
}
);
leftKerningGroup = i;
rightKerningGroup = A;
unicode = 105;
},
{
glyphname = j;
layers = (
{
hints = (
{
horizontal = 1;
place = (-251,73);
type = Stem;
},
{
horizontal = 1;
place = (410,-20);
target = down;
type = TopGhost;
},
{
horizontal = 1;
place = (452,95);
type = Stem;
},
{
place = (-167,77);
type = Stem;
},
{
place = (-4,84);
type = Stem;
},
{
place = (36,95);
type = Stem;
}
);
layerId = "4835E1DE-F61A-4AD8-AAF5-C8058972FAF5";
shapes = (
{
closed = 1;
nodes = (
(110,452,o),
(131,473,o),
(131,500,cs),
(131,526,o),
(110,547,o),
(84,547,cs),
(57,547,o),
(36,526,o),
(36,500,cs),
(36,473,o),
(57,452,o),
(84,452,cs)
);
},
{
closed = 1;
nodes = (
(173,194,o),
(133,91,o),
(86,45,c),
(87,53,o),
(87,61,o),
(88,69,cs),
(95,157,o),
(102,275,o),
(111,366,cs),
(114,395,o),
(92,410,o),
(71,410,cs),
(52,410,o),
(33,397,o),
(31,373,cs),
(21,255,o),
(9,94,o),
(2,-4,c),
(-102,-59,o),
(-167,-105,o),
(-167,-168,cs),
(-167,-213,o),
(-129,-251,o),
(-69,-251,cs),
(46,-251,o),
(74,-115,o),
(79,-56,c),
(79,-53,o),
(80,-49,o),
(80,-43,c),
(166,15,o),
(201,85,o),
(257,233,cs),
(259,238,o),
(260,243,o),
(260,247,cs),
(260,267,o),
(244,281,o),
(227,281,cs),
(215,281,o),
(202,273,o),
(195,254,cs)
);
},
{
closed = 1;
nodes = (
(-81,-178,o),
(-90,-169,o),
(-90,-158,cs),
(-90,-135,o),
(-58,-110,o),
(-4,-79,c),
(-13,-150,o),
(-33,-178,o),
(-64,-178,cs)
);
}
);
width = 173;
}
);
leftKerningGroup = j;
rightKerningGroup = A;
unicode = 106;
},
{
glyphname = k;
layers = (
{
anchors = (
{
name = b.uni0326_1_2;
position = "{178, 0}";
}
);
hints = (
{
horizontal = 1;
place = (-7,73);
type = Stem;
},
{
horizontal = 1;
place = (-4,21);
target = up;
type = BottomGhost;
},
{
horizontal = 1;
place = (329,73);
type = Stem;
},
{
horizontal = 1;
place = (440,66);
type = Stem;
},
{
horizontal = 1;
place = (640,73);
type = Stem;
},
{
place = (25,81);
type = Stem;
},
{
place = (156,84);
type = Stem;
},
{
place = (278,77);
type = Stem;
},
{
place = (283,80);
type = Stem;
}
);
layerId = "4835E1DE-F61A-4AD8-AAF5-C8058972FAF5";
shapes = (
{
closed = 1;
nodes = (
(409,188,o),
(357,66,o),
(304,66,cs),
(274,66,o),
(240,100,o),
(240,141,cs),
(240,151,o),
(255,159,o),
(275,170,cs),
(312,190,o),
(363,223,o),
(363,296,cs),
(363,357,o),
(318,402,o),
(258,402,cs),
(204,402,o),
(146,372,o),
(106,314,c),
(108,363,o),
(111,404,o),
(116,440,c),
(120,440,ls),
(276,440,o),
(355,519,o),
(355,598,cs),
(355,666,o),
(308,713,o),
(238,713,cs),
(160,713,o),
(87,664,o),
(50,516,c),
(42,518,o),
(36,519,o),
(30,519,cs),
(9,519,o),
(-4,503,o),
(-4,486,cs),
(-4,472,o),
(6,456,o),
(28,450,cs),
(31,449,o),
(34,449,o),
(37,448,c),
(29,397,o),
(25,337,o),
(25,267,cs),
(25,194,o),
(26,119,o),
(30,46,cs),
(32,14,o),
(45,-4,o),
(70,-4,cs),
(97,-4,o),
(112,15,o),
(110,50,cs),
(108,78,o),
(107,105,o),
(106,132,c),
(111,270,o),
(182,329,o),
(237,329,cs),
(268,329,o),
(283,314,o),
(283,289,cs),
(283,257,o),
(245,235,o),
(210,218,cs),
(173,200,o),
(156,188,o),
(156,158,cs),
(156,66,o),
(229,-7,o),
(299,-7,cs),
(389,-7,o),
(443,89,o),
(497,233,cs),
(499,238,o),
(500,243,o),
(500,248,cs),
(500,267,o),
(484,281,o),
(468,281,cs),
(456,281,o),
(443,273,o),
(435,254,cs)
);
},
{
closed = 1;
nodes = (
(261,640,o),
(278,623,o),
(278,596,cs),
(278,555,o),
(229,506,o),
(130,506,cs),
(128,506,l),
(154,612,o),
(195,640,o),
(235,640,cs)
);
}
);
width = 413;
}
);
leftKerningGroup = k;
rightKerningGroup = A;
unicode = 107;
},
{
glyphname = l;
layers = (
{
anchors = (
{
name = t.uni0302_2;
position = "{202, 688}";
},
{
name = b.uni0326_1_2;
position = "{176, 0}";
}
);
hints = (
{
horizontal = 1;
place = (-3,73);
type = Stem;
},
{
horizontal = 1;
place = (635,73);
type = Stem;
},
{
place = (24,80);
type = Stem;
},
{
place = (213,79);
type = Stem;
}
);
layerId = "4835E1DE-F61A-4AD8-AAF5-C8058972FAF5";
shapes = (
{
closed = 1;
nodes = (
(271,169,o),
(231,70,o),
(177,70,cs),
(141,70,o),
(110,99,o),
(104,208,c),
(214,338,o),
(292,480,o),
(292,607,cs),
(292,670,o),
(254,708,o),
(201,708,cs),
(111,708,o),
(24,619,o),
(24,259,cs),
(24,58,o),
(88,-3,o),
(174,-3,cs),
(267,-3,o),
(314,96,o),
(366,233,cs),
(368,238,o),
(369,244,o),
(369,249,cs),
(369,268,o),
(354,282,o),
(337,282,cs),
(325,282,o),
(312,274,o),
(304,254,cs)
);
},
{
closed = 1;
nodes = (
(205,635,o),
(213,627,o),
(213,593,cs),
(213,516,o),
(179,421,o),
(104,319,c),
(113,550,o),
(163,635,o),
(192,635,cs)
);
}
);
width = 282;
}
);
leftKerningGroup = l;
rightKerningGroup = A;
unicode = 108;
},
{
glyphname = m;
layers = (
{
hints = (
{
horizontal = 1;
place = (-1,74);
type = Stem;
},
{
horizontal = 1;
place = (-9,21);
target = up;
type = BottomGhost;
},
{
horizontal = 1;
place = (-4,21);
target = up;
type = BottomGhost;
},
{
horizontal = 1;
place = (306,73);
type = Stem;
},
{
horizontal = 1;
place = (331,73);
type = Stem;
},
{
horizontal = 1;
place = (409,-20);
target = down;
type = TopGhost;
},
{
place = (19,80);
type = Stem;
},
{
place = (239,84);
type = Stem;
},
{
place = (266,53);
type = Stem;
},
{
place = (460,80);
type = Stem;
},
{
place = (475,81);
type = Stem;
}
);
layerId = "4835E1DE-F61A-4AD8-AAF5-C8058972FAF5";
shapes = (
{
closed = 1;
nodes = (
(642,193,o),
(596,73,o),
(561,73,cs),
(550,73,o),
(540,83,o),
(540,104,cs),
(540,185,o),
(556,255,o),
(556,305,cs),
(556,364,o),
(516,404,o),
(457,404,cs),
(410,404,o),
(366,380,o),
(331,334,c),
(315,361,o),
(286,379,o),
(254,379,cs),
(196,379,o),
(145,347,o),
(107,287,c),
(110,335,o),
(114,357,o),
(114,366,cs),
(114,393,o),
(103,409,o),
(77,409,cs),
(52,409,o),
(38,391,o),
(35,369,cs),
(24,287,o),
(19,169,o),
(19,36,cs),
(19,8,o),
(32,-9,o),
(60,-9,cs),
(84,-9,o),
(99,8,o),
(99,36,cs),
(99,104,l),
(111,230,o),
(188,306,o),
(236,306,cs),
(257,306,o),
(266,297,o),
(266,277,cs),
(266,243,o),
(239,181,o),
(239,99,cs),
(239,15,o),
(254,-4,o),
(289,-4,cs),
(311,-4,o),
(323,12,o),
(323,33,cs),
(323,39,o),
(319,80,o),
(319,103,c),
(319,104,l),
(320,284,o),
(392,331,o),
(438,331,cs),
(463,331,o),
(475,319,o),
(475,288,cs),
(475,245,o),
(460,188,o),
(460,116,cs),
(460,38,o),
(499,-1,o),
(552,-1,cs),
(628,-1,o),
(670,83,o),
(728,233,cs),
(730,239,o),
(731,245,o),
(731,250,cs),
(731,269,o),
(717,280,o),
(701,280,cs),
(687,280,o),
(673,272,o),
(666,254,cs)
);
}
);
width = 644;
}
);
leftKerningGroup = m;
rightKerningGroup = A;
unicode = 109;
},
{
glyphname = n;
layers = (
{
anchors = (
{
name = t.uni0302_2;
position = "{227, 400}";
},
{
name = b.uni0326_1_2;
position = "{195, 0}";
}
);
hints = (
{
horizontal = 1;
place = (-1,73);
type = Stem;
},
{
horizontal = 1;
place = (-6,21);
target = up;
type = BottomGhost;
},
{
horizontal = 1;
place = (331,73);
type = Stem;
},
{
horizontal = 1;
place = (409,-20);
target = down;
type = TopGhost;
},
{
place = (19,80);
type = Stem;
},
{
place = (249,80);
type = Stem;
},
{
place = (265,80);
type = Stem;
}
);
layerId = "4835E1DE-F61A-4AD8-AAF5-C8058972FAF5";
shapes = (
{
closed = 1;
nodes = (
(426,179,o),
(382,72,o),
(352,72,cs),
(340,72,o),
(329,83,o),
(329,122,cs),
(329,183,o),
(345,251,o),
(345,310,cs),
(345,364,o),
(305,404,o),
(242,404,cs),
(192,404,o),
(145,375,o),
(108,319,c),
(114,363,l),
(114,366,o),
(115,369,o),
(115,372,cs),
(115,394,o),
(102,409,o),
(77,409,cs),
(51,409,o),
(37,396,o),
(34,374,cs),
(23,292,o),
(19,169,o),
(19,36,cs),
(19,8,o),
(33,-6,o),
(61,-6,cs),
(85,-6,o),
(99,8,o),
(99,36,cs),
(99,110,l),
(102,264,o),
(182,331,o),
(227,331,cs),
(254,331,o),
(265,320,o),
(265,289,cs),
(265,248,o),
(249,188,o),
(249,116,cs),
(249,38,o),
(288,-1,o),
(344,-1,cs),
(417,-1,o),
(461,87,o),
(517,233,cs),
(519,238,o),
(520,244,o),
(520,249,cs),
(520,268,o),
(505,281,o),
(488,281,cs),
(476,281,o),
(463,273,o),
(455,254,cs)
);
}
);
width = 433;
}
);
leftKerningGroup = m;
rightKerningGroup = A;
unicode = 110;
},
{
glyphname = o;
layers = (
{
anchors = (
{
name = t.uni0302_2;
position = "{213, 400}";
},
{
name = b.uni0326_1_2;
position = "{154, 0}";
}
);
hints = (
{
horizontal = 1;
place = (-8,73);
type = Stem;
},
{
horizontal = 1;
place = (340,81);
type = Stem;
},
{
place = (7,79);
type = Stem;
},
{
place = (140,65);
type = Stem;
},
{
place = (287,79);
type = Stem;
}
);
layerId = "4835E1DE-F61A-4AD8-AAF5-C8058972FAF5";
shapes = (
{
closed = 1;
nodes = (
(410,219,o),
(389,186,o),
(359,168,c),
(364,190,o),
(366,213,o),
(366,235,cs),
(366,315,o),
(329,388,o),
(272,408,c),
(253,416,o),
(231,421,o),
(205,421,cs),
(81,421,o),
(7,291,o),
(7,174,cs),
(7,79,o),
(56,-8,o),
(166,-8,cs),
(243,-8,o),
(297,33,o),
(329,90,c),
(400,97,o),
(452,143,o),
(487,233,cs),
(489,238,o),
(490,243,o),
(490,248,cs),
(490,267,o),
(475,280,o),
(459,280,cs),
(446,280,o),
(433,272,o),
(425,254,cs)
);
},
{
closed = 1;
nodes = (
(270,340,o),
(287,294,o),
(287,238,cs),
(287,209,o),
(283,183,o),
(276,161,c),
(237,174,o),
(205,211,o),
(205,267,cs),
(205,319,o),
(221,340,o),
(240,340,cs)
);
},
{
closed = 1;
nodes = (
(121,65,o),
(86,100,o),
(86,174,cs),
(86,232,o),
(109,297,o),
(150,330,c),
(144,309,o),
(140,285,o),
(140,258,cs),
(140,181,o),
(185,126,o),
(244,102,c),
(222,78,o),
(195,65,o),
(167,65,cs)
);
}
);
width = 403;
}
);
leftKerningGroup = c;
rightKerningGroup = A;
unicode = 111;
},
{
glyphname = p;
layers = (
{
hints = (
{
horizontal = 1;
place = (-254,21);
target = up;
type = BottomGhost;
},
{
horizontal = 1;
place = (-12,95);
type = Stem;
},
{
horizontal = 1;
place = (335,74);
type = Stem;
},
{
place = (29,80);
type = Stem;
},
{
place = (304,80);
type = Stem;
}
);
layerId = "4835E1DE-F61A-4AD8-AAF5-C8058972FAF5";
shapes = (
{
closed = 1;
nodes = (
(432,209,o),
(405,156,o),
(348,121,c),
(370,166,o),
(384,216,o),
(384,261,cs),
(384,355,o),
(330,409,o),
(255,409,cs),
(201,409,o),
(145,372,o),
(103,321,c),
(101,344,o),
(97,366,o),
(92,386,cs),
(87,404,o),
(71,413,o),
(55,413,cs),
(35,413,o),
(15,400,o),
(15,374,cs),
(15,359,o),
(29,282,o),
(29,189,cs),
(29,-2,o),
(-7,-195,o),
(-7,-215,cs),
(-7,-240,o),
(13,-254,o),
(33,-254,cs),
(51,-254,o),
(70,-242,o),
(73,-218,cs),
(92,-78,o),
(109,64,o),
(109,190,c),
(126,263,o),
(189,335,o),
(248,335,cs),
(285,335,o),
(304,304,o),
(304,263,cs),
(304,204,o),
(273,125,o),
(229,85,c),
(215,84,o),
(201,83,o),
(186,83,cs),
(153,83,o),
(135,58,o),
(135,34,cs),
(135,11,o),
(152,-12,o),
(188,-12,cs),
(218,-12,o),
(247,2,o),
(274,24,c),
(388,47,o),
(467,113,o),
(511,233,cs),
(513,238,o),
(514,243,o),
(514,248,cs),
(514,268,o),
(499,282,o),
(482,282,cs),
(470,282,o),
(457,274,o),
(449,254,cs)
);
}
);
width = 427;
}
);
leftKerningGroup = p;
rightKerningGroup = A;
unicode = 112;
},
{
glyphname = q;
layers = (
{
anchors = (
{
name = t.uni0302_2;
position = "{215, 395}";
},
{
name = b.uni0326_1_2;
position = "{215, 0}";
}
);
hints = (
{
horizontal = 1;
place = (-252,73);
type = Stem;
},
{
horizontal = 1;
place = (11,74);
type = Stem;
},
{
horizontal = 1;
place = (335,74);
type = Stem;
},
{
place = (5,80);
type = Stem;
},
{
place = (224,76);
type = Stem;
},
{
place = (282,76);
type = Stem;
},
{
place = (355,74);
type = Stem;
}
);
layerId = "4835E1DE-F61A-4AD8-AAF5-C8058972FAF5";
shapes = (
{
closed = 1;
nodes = (
(378,-252,o),
(429,-201,o),
(429,-112,cs),
(429,-17,o),
(397,39,o),
(392,64,c),
(450,103,o),
(487,162,o),
(513,233,cs),
(515,238,o),
(516,243,o),
(516,248,cs),
(516,268,o),
(500,282,o),
(484,282,cs),
(471,282,o),
(459,274,o),
(451,254,cs),
(421,176,o),
(381,135,o),
(331,100,c),
(344,182,o),
(358,263,o),
(358,297,cs),
(358,359,o),
(294,409,o),
(209,409,cs),
(101,409,o),
(5,313,o),
(5,167,cs),
(5,73,o),
(67,11,o),
(143,11,cs),
(175,11,o),
(210,23,o),
(244,53,c),
(234,-8,o),
(224,-74,o),
(224,-141,cs),
(224,-215,o),
(261,-252,o),
(324,-252,cs)
);
},
{
closed = 1;
nodes = (
(113,85,o),
(85,113,o),
(85,171,cs),
(85,270,o),
(150,335,o),
(218,335,cs),
(246,335,o),
(270,317,o),
(282,292,c),
(276,195,o),
(244,85,o),
(155,85,cs)
);
},
{
closed = 1;
nodes = (
(310,-179,o),
(300,-169,o),
(300,-144,cs),
(300,-111,o),
(311,-33,o),
(324,50,c),
(335,18,o),
(355,-35,o),
(355,-108,cs),
(355,-162,o),
(338,-179,o),
(323,-179,cs)
);
}
);
width = 429;
}
);
leftKerningGroup = a;
rightKerningGroup = A;
unicode = 113;
},
{
glyphname = r;
layers = (
{
anchors = (
{
name = t.uni0302_2;
position = "{200, 400}";
},
{
name = b.uni0326_1_2;
position = "{259, 0}";
}
);
hints = (
{
horizontal = 1;
place = (-3,73);
type = Stem;
},
{
horizontal = 1;
place = (325,67);
type = Stem;
},
{
horizontal = 1;
place = (400,-20);
target = down;
type = TopGhost;
},
{
place = (129,80);
type = Stem;
}
);
layerId = "4835E1DE-F61A-4AD8-AAF5-C8058972FAF5";
shapes = (
{
closed = 1;
nodes = (
(365,180,o),
(314,70,o),
(256,70,cs),
(230,70,o),
(209,91,o),
(209,129,cs),
(209,189,o),
(253,271,o),
(273,324,cs),
(279,340,o),
(283,354,o),
(283,363,cs),
(283,385,o),
(268,400,o),
(248,400,cs),
(235,400,o),
(224,392,o),
(202,392,cs),
(153,392,o),
(132,417,o),
(119,435,cs),
(111,446,o),
(104,455,o),
(85,455,cs),
(62,455,o),
(48,433,o),
(48,412,cs),
(48,399,o),
(52,386,o),
(63,377,c),
(53,338,o),
(39,297,o),
(22,254,cs),
(20,249,o),
(19,244,o),
(19,239,cs),
(19,220,o),
(35,208,o),
(51,208,cs),
(64,208,o),
(77,215,o),
(84,233,cs),
(100,274,o),
(112,308,o),
(124,343,c),
(143,335,o),
(164,328,o),
(187,325,c),
(159,261,o),
(129,188,o),
(129,125,cs),
(129,50,o),
(182,-3,o),
(247,-3,cs),
(344,-3,o),
(402,96,o),
(456,233,cs),
(458,238,o),
(459,244,o),
(459,249,cs),
(459,268,o),
(444,281,o),
(427,281,cs),
(415,281,o),
(402,273,o),
(394,254,cs)
);
}
);
width = 372;
}
);
leftKerningGroup = r;
rightKerningGroup = A;
unicode = 114;
},
{
glyphname = s;
layers = (
{
anchors = (
{
name = t.uni0302_2;
position = "{138, 411}";
},
{
name = b.uni0326_1_2;
position = "{152, 0}";
}
);
hints = (
{
horizontal = 1;
place = (-6,86);
type = Stem;
},
{
place = (19,411);
type = Stem;
},
{
place = (70,96);
type = Stem;
}
);
layerId = "4835E1DE-F61A-4AD8-AAF5-C8058972FAF5";
shapes = (
{
closed = 1;
nodes = (
(347,208,o),
(320,161,o),
(283,128,c),
(281,244,o),
(166,326,o),
(166,363,cs),
(166,376,o),
(188,392,o),
(188,412,cs),
(188,441,o),
(162,457,o),
(135,457,cs),
(103,457,o),
(70,436,o),
(70,388,c),
(54,335,o),
(38,294,o),
(22,254,cs),
(20,249,o),
(19,244,o),
(19,239,cs),
(19,220,o),
(35,208,o),
(52,208,cs),
(64,208,o),
(78,215,o),
(84,233,cs),
(93,259,o),
(101,280,o),
(109,304,c),
(148,250,o),
(204,193,o),
(204,134,cs),
(204,108,o),
(194,90,o),
(180,81,c),
(173,80,o),
(166,80,o),
(158,80,cs),
(140,80,o),
(122,84,o),
(104,90,cs),
(96,93,o),
(88,94,o),
(82,94,cs),
(57,94,o),
(44,78,o),
(44,59,cs),
(44,45,o),
(51,30,o),
(67,18,cs),
(88,2,o),
(118,-6,o),
(148,-6,cs),
(181,-6,o),
(215,4,o),
(240,26,c),
(333,60,o),
(392,140,o),
(427,233,cs),
(429,238,o),
(430,243,o),
(430,248,cs),
(430,268,o),
(414,282,o),
(398,282,cs),
(385,282,o),
(373,274,o),
(365,254,cs)
);
}
);
width = 343;
}
);
leftKerningGroup = r;
rightKerningGroup = A;
unicode = 115;
},
{
glyphname = t;
layers = (
{
anchors = (
{
name = b.uni0326_1_2;
position = "{155, 0}";
}
);
hints = (
{
horizontal = 1;
place = (-4,73);
type = Stem;
},
{
horizontal = 1;
place = (421,69);
type = Stem;
},
{
place = (18,81);
type = Stem;
},
{
place = (71,81);
type = Stem;
}
);
layerId = "4835E1DE-F61A-4AD8-AAF5-C8058972FAF5";
shapes = (
{
closed = 1;
nodes = (
(266,185,o),
(219,69,o),
(157,69,cs),
(121,69,o),
(99,91,o),
(99,161,cs),
(99,200,o),
(106,268,o),
(118,338,cs),
(121,353,o),
(125,382,o),
(130,416,c),
(179,411,o),
(208,404,o),
(219,404,cs),
(238,404,o),
(250,420,o),
(250,438,cs),
(250,453,o),
(242,467,o),
(223,471,cs),
(194,478,o),
(166,482,o),
(139,485,c),
(146,541,o),
(152,595,o),
(152,614,cs),
(152,641,o),
(132,654,o),
(113,654,cs),
(92,654,o),
(72,641,o),
(71,615,c),
(68,572,o),
(63,530,o),
(58,490,c),
(31,490,ls),
(3,490,o),
(-10,473,o),
(-10,456,cs),
(-10,438,o),
(3,421,o),
(29,421,cs),
(49,421,l),
(45,395,o),
(41,372,o),
(38,350,cs),
(27,280,o),
(18,211,o),
(18,166,cs),
(18,49,o),
(71,-4,o),
(155,-4,cs),
(245,-4,o),
(300,81,o),
(357,233,cs),
(359,238,o),
(360,244,o),
(360,248,cs),
(360,267,o),
(345,279,o),
(328,279,cs),
(315,279,o),
(302,272,o),
(295,254,cs)
);
}
);
width = 273;
}
);
leftKerningGroup = t;
rightKerningGroup = A;
unicode = 116;
},
{
glyphname = u;
layers = (
{
anchors = (
{
name = t.uni0302_2;
position = "{182, 400}";
}
);
hints = (
{
horizontal = 1;
place = (0,73);
type = Stem;
},
{
horizontal = 1;
place = (410,-20);
target = down;
type = TopGhost;
},
{
place = (9,80);
type = Stem;
},
{
place = (32,81);
type = Stem;
}
);
layerId = "4835E1DE-F61A-4AD8-AAF5-C8058972FAF5";
shapes = (
{
closed = 1;
nodes = (
(433,175,o),
(389,73,o),
(365,73,cs),
(350,73,o),
(335,88,o),
(335,181,cs),
(335,248,o),
(347,329,o),
(351,367,cs),
(354,395,o),
(334,410,o),
(314,410,cs),
(295,410,o),
(276,399,o),
(273,375,cs),
(269,342,o),
(264,306,o),
(261,269,c),
(243,117,o),
(177,73,o),
(132,73,cs),
(105,73,o),
(89,89,o),
(89,133,cs),
(89,190,o),
(113,280,o),
(113,349,cs),
(113,392,o),
(79,425,o),
(42,425,cs),
(20,425,o),
(3,408,o),
(3,388,cs),
(3,361,o),
(32,358,o),
(32,329,cs),
(32,293,o),
(9,206,o),
(9,110,cs),
(9,45,o),
(53,0,o),
(121,0,cs),
(179,0,o),
(229,30,o),
(268,93,c),
(285,24,o),
(319,0,o),
(359,0,cs),
(435,0,o),
(481,112,o),
(526,233,cs),
(528,238,o),
(529,243,o),
(529,248,cs),
(529,267,o),
(513,280,o),
(497,280,cs),
(484,280,o),
(471,272,o),
(464,254,cs)
);
}
);
width = 442;
}
);
leftKerningGroup = u;
rightKerningGroup = A;
unicode = 117;
},
{
glyphname = v;
layers = (
{
hints = (
{
horizontal = 1;
place = (-7,73);
type = Stem;
},
{
horizontal = 1;
place = (136,67);
type = Stem;
},
{
horizontal = 1;
place = (405,-20);
target = down;
type = TopGhost;
},
{
horizontal = 1;
place = (407,-20);
target = down;
type = TopGhost;
},
{
place = (13,80);
type = Stem;
},
{
place = (31,80);
type = Stem;
},
{
place = (232,112);
type = Stem;
}
);
layerId = "4835E1DE-F61A-4AD8-AAF5-C8058972FAF5";
shapes = (
{
closed = 1;
nodes = (
(386,223,o),
(371,203,o),
(350,203,cs),
(343,203,o),
(337,205,o),
(331,210,c),
(339,239,o),
(344,271,o),
(344,304,cs),
(344,377,o),
(321,407,o),
(292,407,cs),
(258,407,o),
(232,368,o),
(232,286,cs),
(232,256,o),
(237,230,o),
(246,209,c),
(217,113,o),
(144,66,o),
(120,66,cs),
(103,66,o),
(93,76,o),
(93,128,cs),
(93,209,o),
(111,247,o),
(111,362,cs),
(111,390,o),
(97,405,o),
(72,405,cs),
(46,405,o),
(31,385,o),
(31,360,cs),
(31,253,o),
(13,217,o),
(13,129,cs),
(13,31,o),
(51,-7,o),
(116,-7,cs),
(180,-7,o),
(259,54,o),
(305,145,c),
(319,139,o),
(333,136,o),
(347,136,cs),
(393,136,o),
(436,167,o),
(460,233,cs),
(462,239,o),
(463,244,o),
(463,248,cs),
(463,268,o),
(448,280,o),
(432,280,cs),
(419,280,o),
(405,272,o),
(398,254,cs)
);
}
);
width = 376;
}
);
leftKerningGroup = v;
rightKerningGroup = A;
unicode = 118;
},
{
glyphname = w;
layers = (
{
anchors = (
{
name = t.uni0302_2;
position = "{295, 400}";
}
);
hints = (
{
horizontal = 1;
place = (-9,73);
type = Stem;
},
{
horizontal = 1;
place = (0,73);
type = Stem;
},
{
horizontal = 1;
place = (140,67);
type = Stem;
},
{
place = (9,80);
type = Stem;
},
{
place = (32,80);
type = Stem;
},
{
place = (247,80);
type = Stem;
},
{
place = (443,111);
type = Stem;
}
);
layerId = "4835E1DE-F61A-4AD8-AAF5-C8058972FAF5";
shapes = (
{
closed = 1;
nodes = (
(596,222,o),
(577,207,o),
(559,207,cs),
(553,207,o),
(547,209,o),
(541,213,c),
(549,244,o),
(554,277,o),
(554,311,cs),
(554,381,o),
(526,415,o),
(498,415,cs),
(471,415,o),
(443,382,o),
(443,318,cs),
(443,276,o),
(450,241,o),
(462,214,c),
(437,126,o),
(377,73,o),
(344,73,cs),
(324,73,o),
(309,88,o),
(309,128,cs),
(309,162,o),
(317,191,o),
(323,241,c),
(323,246,o),
(323,250,o),
(324,254,c),
(326,276,o),
(327,301,o),
(327,332,cs),
(327,360,o),
(313,375,o),
(288,375,cs),
(262,375,o),
(247,355,o),
(247,330,cs),
(247,300,o),
(246,275,o),
(244,254,c),
(225,107,o),
(157,64,o),
(128,64,cs),
(106,64,o),
(89,81,o),
(89,136,cs),
(89,198,o),
(112,292,o),
(112,359,cs),
(112,398,o),
(98,412,o),
(74,412,cs),
(48,412,o),
(32,396,o),
(32,359,cs),
(32,288,o),
(9,199,o),
(9,129,cs),
(9,37,o),
(55,-9,o),
(119,-9,cs),
(168,-9,o),
(211,17,o),
(244,56,c),
(262,18,o),
(294,0,o),
(336,0,cs),
(408,0,o),
(478,62,o),
(519,150,c),
(533,143,o),
(547,140,o),
(562,140,cs),
(607,140,o),
(647,172,o),
(670,233,cs),
(672,238,o),
(673,243,o),
(673,247,cs),
(673,266,o),
(657,280,o),
(640,280,cs),
(628,280,o),
(615,273,o),
(608,254,cs)
);
}
);
width = 586;
}
);
leftKerningGroup = v;
rightKerningGroup = A;
unicode = 119;
},
{
glyphname = x;
layers = (
{
hints = (
{
horizontal = 1;
place = (-6,74);
type = Stem;
},
{
horizontal = 1;
place = (-9,21);
target = up;
type = BottomGhost;
},
{
horizontal = 1;
place = (331,74);
type = Stem;
},
{
horizontal = 1;
place = (398,-20);
target = down;
type = TopGhost;
},
{
place = (19,537);
type = Stem;
}
);
layerId = "4835E1DE-F61A-4AD8-AAF5-C8058972FAF5";
shapes = (
{
closed = 1;
nodes = (
(444,135,o),
(412,68,o),
(383,68,cs),
(363,68,o),
(342,99,o),
(310,173,c),
(307,181,l),
(339,227,o),
(366,275,o),
(397,330,cs),
(403,341,o),
(405,352,o),
(405,361,cs),
(405,384,o),
(390,398,o),
(372,398,cs),
(357,398,o),
(340,387,o),
(328,362,cs),
(313,330,o),
(294,297,o),
(273,264,c),
(256,309,ls),
(230,377,o),
(194,405,o),
(149,405,cs),
(103,405,o),
(70,380,o),
(46,315,cs),
(39,296,o),
(30,274,o),
(22,254,cs),
(20,248,o),
(19,243,o),
(19,238,cs),
(19,220,o),
(34,209,o),
(50,209,cs),
(63,209,o),
(77,216,o),
(84,233,cs),
(107,290,ls),
(118,317,o),
(125,331,o),
(141,331,cs),
(164,331,o),
(176,303,o),
(207,220,cs),
(210,211,o),
(213,203,o),
(217,194,c),
(179,145,o),
(140,98,o),
(106,61,cs),
(95,49,o),
(90,36,o),
(90,25,cs),
(90,7,o),
(104,-9,o),
(123,-9,cs),
(136,-9,o),
(152,0,o),
(168,18,cs),
(193,47,o),
(221,80,o),
(249,116,c),
(258,97,ls),
(292,28,o),
(326,-6,o),
(377,-6,cs),
(455,-6,o),
(490,73,o),
(553,233,cs),
(555,238,o),
(556,243,o),
(556,248,cs),
(556,267,o),
(540,280,o),
(524,280,cs),
(511,280,o),
(498,272,o),
(491,254,cs)
);
}
);
width = 469;
}
);
leftKerningGroup = r;
rightKerningGroup = A;
unicode = 120;
},
{
glyphname = y;
layers = (
{
anchors = (
{
name = t.uni0302_2;
position = "{187, 400}";
}
);
hints = (
{
horizontal = 1;
place = (-253,73);
type = Stem;
},
{
horizontal = 1;
place = (0,73);
type = Stem;
},
{
horizontal = 1;
place = (410,-20);
target = down;
type = TopGhost;
},
{
place = (8,80);
type = Stem;
},
{
place = (32,81);
type = Stem;
},
{
place = (76,78);
type = Stem;
},
{
place = (249,82);
type = Stem;
}
);
layerId = "4835E1DE-F61A-4AD8-AAF5-C8058972FAF5";
shapes = (
{
closed = 1;
nodes = (
(424,195,o),
(379,99,o),
(331,51,c),
(332,58,o),
(332,65,o),
(333,73,cs),
(340,160,o),
(348,268,o),
(355,366,cs),
(357,395,o),
(336,410,o),
(315,410,cs),
(296,410,o),
(277,397,o),
(275,373,cs),
(272,341,o),
(270,305,o),
(267,269,c),
(244,113,o),
(176,73,o),
(132,73,cs),
(103,73,o),
(88,88,o),
(88,133,cs),
(88,190,o),
(113,280,o),
(113,349,cs),
(113,392,o),
(79,425,o),
(42,425,cs),
(20,425,o),
(3,408,o),
(3,388,cs),
(3,361,o),
(32,359,o),
(32,330,cs),
(32,289,o),
(8,204,o),
(8,110,cs),
(8,44,o),
(52,0,o),
(112,0,cs),
(166,0,o),
(213,25,o),
(252,74,c),
(246,-4,l),
(142,-59,o),
(76,-105,o),
(76,-168,cs),
(76,-214,o),
(115,-253,o),
(175,-253,cs),
(290,-253,o),
(317,-124,o),
(323,-56,c),
(324,-51,o),
(324,-45,o),
(325,-39,c),
(414,21,o),
(465,119,o),
(508,233,cs),
(510,238,o),
(511,243,o),
(511,247,cs),
(511,267,o),
(495,281,o),
(479,281,cs),
(466,281,o),
(453,273,o),
(446,254,cs)
);
},
{
closed = 1;
nodes = (
(163,-180,o),
(154,-171,o),
(154,-158,cs),
(154,-135,o),
(186,-110,o),
(240,-79,c),
(231,-150,o),
(211,-180,o),
(180,-180,cs)
);
}
);
width = 424;
}
);
leftKerningGroup = u;
rightKerningGroup = A;
unicode = 121;
},
{
glyphname = z;
layers = (
{
anchors = (
{
name = t.uni0302_2;
position = "{225, 400}";
}
);
hints = (
{
horizontal = 1;
place = (-15,73);
type = Stem;
},
{
horizontal = 1;
place = (-1,70);
type = Stem;
},
{
horizontal = 1;
place = (-10,21);
target = up;
type = BottomGhost;
},
{
horizontal = 1;
place = (301,73);
type = Stem;
},
{
place = (19,471);
type = Stem;
}
);
layerId = "4835E1DE-F61A-4AD8-AAF5-C8058972FAF5";
shapes = (
{
closed = 1;
nodes = (
(391,165,o),
(332,58,o),
(291,58,cs),
(262,58,o),
(248,69,o),
(207,69,cs),
(202,69,o),
(197,69,o),
(191,70,c),
(254,136,o),
(318,236,o),
(337,323,cs),
(340,337,o),
(341,341,o),
(341,349,cs),
(341,369,o),
(328,383,o),
(311,383,cs),
(295,383,o),
(278,374,o),
(252,374,cs),
(182,374,o),
(163,408,o),
(146,432,cs),
(136,446,o),
(125,457,o),
(106,457,cs),
(87,457,o),
(65,444,o),
(65,418,cs),
(65,409,o),
(66,397,o),
(67,386,c),
(56,347,o),
(39,297,o),
(22,254,cs),
(20,248,o),
(19,243,o),
(19,238,cs),
(19,219,o),
(33,208,o),
(50,208,cs),
(63,208,o),
(77,216,o),
(84,233,cs),
(98,269,o),
(109,302,o),
(122,342,c),
(158,319,o),
(199,306,o),
(250,301,c),
(203,183,o),
(133,119,o),
(84,73,cs),
(67,57,o),
(64,40,o),
(64,30,cs),
(64,7,o),
(81,-10,o),
(108,-10,cs),
(130,-10,o),
(147,-1,o),
(188,-1,cs),
(231,-1,o),
(259,-15,o),
(305,-15,cs),
(378,-15,o),
(455,148,o),
(487,233,cs),
(489,238,o),
(490,242,o),
(490,247,cs),
(490,266,o),
(473,279,o),
(457,279,cs),
(445,279,o),
(432,272,o),
(425,254,cs)
);
}
);
width = 403;
}
);
leftKerningGroup = r;
rightKerningGroup = A;
unicode = 122;
},
{
glyphname = braceleft;
layers = (
{
hints = (
{
horizontal = 1;
place = (-17,67);
type = Stem;
},
{
horizontal = 1;
place = (609,66);
type = Stem;
},
{
place = (124,77);
type = Stem;
},
{
place = (126,80);
type = Stem;
}
);
layerId = "4835E1DE-F61A-4AD8-AAF5-C8058972FAF5";
shapes = (
{
closed = 1;
nodes = (
(263,-17,o),
(287,-9,o),
(307,7,cs),
(321,19,o),
(327,33,o),
(327,44,cs),
(327,61,o),
(315,74,o),
(299,74,cs),
(292,74,o),
(284,71,o),
(276,65,cs),
(262,55,o),
(250,50,o),
(239,50,cs),
(214,50,o),
(198,73,o),
(198,117,cs),
(198,154,o),
(206,200,o),
(206,251,cs),
(206,305,o),
(177,322,o),
(170,332,c),
(178,341,o),
(201,357,o),
(201,411,cs),
(201,462,o),
(196,510,o),
(196,547,cs),
(196,587,o),
(211,609,o),
(236,609,cs),
(247,609,o),
(260,604,o),
(275,596,cs),
(283,591,o),
(291,589,o),
(298,589,cs),
(317,589,o),
(330,603,o),
(330,620,cs),
(330,631,o),
(324,643,o),
(309,653,cs),
(289,666,o),
(262,675,o),
(238,675,cs),
(161,675,o),
(124,618,o),
(124,541,cs),
(124,506,o),
(132,463,o),
(130,413,cs),
(129,382,o),
(110,373,o),
(100,368,cs),
(78,357,o),
(60,352,o),
(60,332,cs),
(60,312,o),
(78,306,o),
(100,296,cs),
(110,291,o),
(134,280,o),
(135,249,cs),
(137,199,o),
(126,158,o),
(126,123,cs),
(126,56,o),
(144,-17,o),
(239,-17,cs)
);
}
);
width = 370;
}
);
unicode = 123;
},
{
glyphname = bar;
layers = (
{
hints = (
{
horizontal = 1;
place = (-266,21);
target = up;
type = BottomGhost;
},
{
horizontal = 1;
place = (713,-20);
target = down;
type = TopGhost;
},
{
place = (65,80);
type = Stem;
}
);
layerId = "4835E1DE-F61A-4AD8-AAF5-C8058972FAF5";
shapes = (
{
closed = 1;
nodes = (
(113,-266,o),
(132,-252,o),
(133,-224,cs),
(138,-82,o),
(145,101,o),
(145,282,cs),
(145,418,o),
(141,553,o),
(130,670,cs),
(127,700,o),
(109,713,o),
(90,713,cs),
(69,713,o),
(50,697,o),
(50,670,cs),
(50,631,o),
(65,546,o),
(65,294,cs),
(65,112,o),
(53,-206,o),
(53,-220,cs),
(53,-251,o),
(73,-266,o),
(94,-266,cs)
);
}
);
width = 195;
}
);
unicode = 124;
},
{
glyphname = braceright;
layers = (
{
hints = (
{
horizontal = 1;
place = (-17,67);
type = Stem;
},
{
horizontal = 1;
place = (609,66);
type = Stem;
},
{
place = (165,80);
type = Stem;
},
{
place = (170,77);
type = Stem;
}
);
layerId = "4835E1DE-F61A-4AD8-AAF5-C8058972FAF5";
shapes = (
{
closed = 1;
nodes = (
(227,-17,o),
(245,56,o),
(245,123,cs),
(245,158,o),
(234,199,o),
(236,249,cs),
(237,280,o),
(261,291,o),
(271,296,cs),
(293,307,o),
(311,312,o),
(311,332,cs),
(311,352,o),
(293,357,o),
(271,368,cs),
(261,373,o),
(242,382,o),
(241,413,cs),
(239,463,o),
(247,506,o),
(247,541,cs),
(247,618,o),
(210,675,o),
(133,675,cs),
(109,675,o),
(82,666,o),
(62,653,cs),
(47,643,o),
(40,631,o),
(40,620,cs),
(40,603,o),
(54,590,o),
(73,590,cs),
(80,590,o),
(88,592,o),
(96,596,cs),
(111,604,o),
(124,609,o),
(135,609,cs),
(160,609,o),
(175,587,o),
(175,547,cs),
(175,510,o),
(170,462,o),
(170,411,cs),
(170,357,o),
(193,341,o),
(201,332,c),
(194,322,o),
(165,305,o),
(165,251,cs),
(165,200,o),
(173,154,o),
(173,117,cs),
(173,73,o),
(157,50,o),
(132,50,cs),
(121,50,o),
(109,55,o),
(95,65,cs),
(87,71,o),
(79,73,o),
(72,73,cs),
(56,73,o),
(44,60,o),
(44,44,cs),
(44,32,o),
(50,19,o),
(64,7,cs),
(84,-9,o),
(108,-17,o),
(132,-17,cs)
);
}
);
width = 371;
}
);
unicode = 125;
},
{
glyphname = asciitilde;
layers = (
{
hints = (
{
horizontal = 1;
place = (288,70);
type = Stem;
},
{
horizontal = 1;
place = (321,70);
type = Stem;
},
{
place = (30,289);
type = Stem;
}
);
layerId = "4835E1DE-F61A-4AD8-AAF5-C8058972FAF5";
shapes = (
{
closed = 1;
nodes = (
(251,362,o),
(244,358,o),
(234,358,cs),
(195,358,o),
(163,391,o),
(116,391,cs),
(87,391,o),
(58,379,o),
(41,354,cs),
(34,344,o),
(30,334,o),
(30,326,cs),
(30,307,o),
(44,293,o),
(61,293,cs),
(69,293,o),
(78,296,o),
(86,303,cs),
(97,312,o),
(103,321,o),
(117,321,cs),
(148,321,o),
(184,288,o),
(231,288,cs),
(268,288,o),
(298,303,o),
(313,333,cs),
(317,341,o),
(319,349,o),
(319,356,cs),
(319,376,o),
(304,390,o),
(287,390,cs),
(277,390,o),
(266,384,o),
(258,372,cs)
);
}
);
width = 349;
}
);
unicode = 126;
},
{
glyphname = exclamdown;
layers = (
{
hints = (
{
horizontal = 1;
place = (-255,21);
target = up;
type = BottomGhost;
},
{
horizontal = 1;
place = (363,109);
type = Stem;
},
{
place = (35,109);
type = Stem;
},
{
place = (59,80);
type = Stem;
}
);
layerId = "4835E1DE-F61A-4AD8-AAF5-C8058972FAF5";
shapes = (
{
closed = 1;
nodes = (
(59,472,o),
(35,448,o),
(35,417,cs),
(35,387,o),
(59,363,o),
(90,363,cs),
(120,363,o),
(144,387,o),
(144,417,cs),
(144,448,o),
(120,472,o),
(90,472,cs)
);
},
{
closed = 1;
nodes = (
(71,296,o),
(51,280,o),
(51,251,cs),
(51,202,o),
(59,129,o),
(59,-15,cs),
(59,-86,o),
(57,-151,o),
(53,-201,cs),
(50,-237,o),
(70,-255,o),
(91,-255,cs),
(111,-255,o),
(131,-239,o),
(133,-208,cs),
(137,-156,o),
(139,-86,o),
(139,-8,cs),
(139,74,o),
(137,165,o),
(131,253,cs),
(129,282,o),
(110,296,o),
(91,296,cs)
);
}
);
width = 174;
}
);
leftKerningGroup = colon;
unicode = 161;
},
{
glyphname = cent;
layers = (
{
hints = (
{
horizontal = 1;
place = (-2,21);
target = up;
type = BottomGhost;
},
{
horizontal = 1;
place = (1,21);
target = up;
type = BottomGhost;
},
{
place = (28,80);
type = Stem;
},
{
place = (184,77);
type = Stem;
},
{
place = (198,74);
type = Stem;
},
{
place = (324,75);
type = Stem;
}
);
layerId = "4835E1DE-F61A-4AD8-AAF5-C8058972FAF5";
shapes = (
{
closed = 1;
nodes = (
(458,265,o),
(443,256,o),
(432,234,cs),
(388,146,o),
(331,88,o),
(266,74,c),
(270,155,o),
(272,244,o),
(272,328,cs),
(272,364,o),
(271,400,o),
(271,433,c),
(306,427,o),
(324,406,o),
(324,367,cs),
(324,335,o),
(342,320,o),
(360,320,cs),
(380,320,o),
(399,338,o),
(399,374,cs),
(399,450,o),
(348,501,o),
(268,507,c),
(267,526,o),
(265,544,o),
(264,560,cs),
(261,588,o),
(243,602,o),
(225,602,cs),
(207,602,o),
(189,588,o),
(189,561,cs),
(189,554,o),
(191,535,o),
(193,500,c),
(87,467,o),
(28,347,o),
(28,231,cs),
(28,125,o),
(77,24,o),
(186,1,c),
(184,-19,o),
(184,-36,o),
(184,-50,cs),
(184,-80,o),
(202,-97,o),
(221,-97,cs),
(237,-97,o),
(254,-83,o),
(257,-52,cs),
(258,-36,o),
(260,-20,o),
(261,-2,c),
(359,9,o),
(438,84,o),
(487,188,cs),
(501,217,o),
(502,224,o),
(502,231,cs),
(502,251,o),
(488,265,o),
(471,265,cs)
);
},
{
closed = 1;
nodes = (
(108,311,o),
(139,390,o),
(197,421,c),
(197,395,o),
(198,365,o),
(198,332,cs),
(198,219,o),
(194,137,o),
(191,77,c),
(135,98,o),
(108,159,o),
(108,237,cs)
);
}
);
width = 553;
}
);
unicode = 162;
},
{
glyphname = sterling;
layers = (
{
hints = (
{
horizontal = 1;
place = (-13,74);
type = Stem;
},
{
horizontal = 1;
place = (-3,21);
target = up;
type = BottomGhost;
},
{
horizontal = 1;
place = (314,67);
type = Stem;
},
{
horizontal = 1;
place = (623,74);
type = Stem;
},
{
place = (109,78);
type = Stem;
},
{
place = (129,78);
type = Stem;
},
{
place = (377,75);
type = Stem;
}
);
layerId = "4835E1DE-F61A-4AD8-AAF5-C8058972FAF5";
shapes = (
{
closed = 1;
nodes = (
(403,184,o),
(386,173,o),
(382,148,cs),
(374,99,o),
(351,61,o),
(308,61,cs),
(272,61,o),
(228,88,o),
(187,96,c),
(201,125,o),
(207,156,o),
(207,198,cs),
(207,231,o),
(202,272,o),
(197,314,c),
(248,314,ls),
(276,314,o),
(289,331,o),
(289,348,cs),
(289,364,o),
(276,381,o),
(248,381,cs),
(190,381,l),
(188,403,o),
(187,424,o),
(187,444,cs),
(187,578,o),
(246,623,o),
(299,623,cs),
(346,623,o),
(377,592,o),
(377,554,cs),
(377,532,o),
(365,515,o),
(365,500,cs),
(365,478,o),
(382,464,o),
(400,464,cs),
(414,464,o),
(428,472,o),
(437,491,cs),
(447,513,o),
(452,540,o),
(452,562,cs),
(452,639,o),
(394,697,o),
(294,697,cs),
(204,697,o),
(109,626,o),
(109,444,cs),
(109,423,o),
(110,403,o),
(112,382,c),
(100,382,ls),
(74,382,o),
(60,365,o),
(60,349,cs),
(60,332,o),
(74,315,o),
(100,315,cs),
(119,315,l),
(124,272,o),
(129,232,o),
(129,198,cs),
(129,139,o),
(118,118,o),
(53,79,cs),
(38,70,o),
(32,56,o),
(32,43,cs),
(32,20,o),
(49,-3,o),
(74,-3,cs),
(81,-3,o),
(89,-1,o),
(98,4,cs),
(122,17,o),
(134,28,o),
(150,28,cs),
(188,28,o),
(247,-13,o),
(307,-13,cs),
(401,-13,o),
(457,74,o),
(457,145,cs),
(457,169,o),
(439,184,o),
(420,184,cs)
);
}
);
width = 489;
}
);
unicode = 163;
},
{
glyphname = currency;
layers = (
{
hints = (
{
horizontal = 1;
place = (56,74);
type = Stem;
},
{
horizontal = 1;
place = (466,74);
type = Stem;
},
{
place = (36,77);
type = Stem;
},
{
place = (355,77);
type = Stem;
}
);
layerId = "4835E1DE-F61A-4AD8-AAF5-C8058972FAF5";
shapes = (
{
closed = 1;
nodes = (
(379,131,l),
(414,179,o),
(432,243,o),
(432,307,cs),
(432,368,o),
(415,428,o),
(381,472,c),
(410,508,ls),
(419,519,o),
(423,530,o),
(423,540,cs),
(423,560,o),
(407,574,o),
(388,574,cs),
(376,574,o),
(363,569,o),
(352,555,cs),
(323,520,l),
(299,533,o),
(271,540,o),
(238,540,cs),
(204,540,o),
(174,532,o),
(148,518,c),
(116,553,ls),
(105,565,o),
(93,570,o),
(81,570,cs),
(62,570,o),
(46,554,o),
(46,534,cs),
(46,524,o),
(50,512,o),
(60,501,cs),
(91,467,l),
(55,420,o),
(36,356,o),
(36,292,cs),
(36,231,o),
(52,171,o),
(86,127,c),
(46,74,ls),
(38,63,o),
(34,52,o),
(34,43,cs),
(34,23,o),
(50,8,o),
(69,8,cs),
(81,8,o),
(95,14,o),
(106,29,cs),
(143,77,l),
(169,64,o),
(198,56,o),
(233,56,cs),
(267,56,o),
(297,65,o),
(322,79,c),
(361,26,ls),
(372,11,o),
(385,5,o),
(397,5,cs),
(417,5,o),
(434,21,o),
(434,42,cs),
(434,52,o),
(431,62,o),
(423,72,cs)
);
},
{
closed = 1;
nodes = (
(152,130,o),
(113,210,o),
(113,291,cs),
(113,377,o),
(156,466,o),
(238,466,cs),
(317,466,o),
(355,387,o),
(355,305,cs),
(355,219,o),
(312,130,o),
(233,130,cs)
);
}
);
width = 469;
}
);
unicode = 164;
},
{
glyphname = yen;
layers = (
{
hints = (
{
horizontal = 1;
place = (-10,21);
target = up;
type = BottomGhost;
},
{
horizontal = 1;
place = (159,60);
type = Stem;
},
{
horizontal = 1;
place = (263,60);
type = Stem;
},
{
place = (168,78);
type = Stem;
}
);
layerId = "4835E1DE-F61A-4AD8-AAF5-C8058972FAF5";
shapes = (
{
closed = 1;
nodes = (
(428,653,o),
(410,669,o),
(391,669,cs),
(376,669,o),
(361,660,o),
(350,639,cs),
(309,561,o),
(256,458,o),
(211,376,c),
(170,447,o),
(135,548,o),
(111,636,cs),
(104,662,o),
(86,674,o),
(69,674,cs),
(50,674,o),
(30,658,o),
(30,633,cs),
(30,587,o),
(93,428,o),
(150,325,c),
(110,325,ls),
(82,325,o),
(68,311,o),
(68,296,cs),
(68,281,o),
(82,265,o),
(110,265,c),
(168,264,l),
(166,249,o),
(165,234,o),
(163,220,c),
(108,221,l),
(80,221,o),
(66,207,o),
(66,192,cs),
(66,177,o),
(80,161,o),
(108,161,cs),
(156,161,l),
(144,62,o),
(141,37,o),
(141,31,cs),
(141,4,o),
(160,-10,o),
(179,-10,cs),
(198,-10,o),
(217,3,o),
(220,29,cs),
(236,160,l),
(307,159,l),
(334,159,o),
(348,173,o),
(348,188,cs),
(348,203,o),
(334,219,o),
(308,219,c),
(244,220,l),
(249,264,l),
(310,263,l),
(337,263,o),
(350,277,o),
(350,292,cs),
(350,307,o),
(337,323,o),
(311,323,cs),
(268,323,l),
(322,422,o),
(377,521,o),
(420,602,cs),
(425,612,o),
(428,621,o),
(428,630,cs)
);
}
);
width = 465;
}
);
unicode = 165;
},
{
glyphname = brokenbar;
layers = (
{
hints = (
{
horizontal = 1;
place = (-266,21);
target = up;
type = BottomGhost;
},
{
horizontal = 1;
place = (713,-20);
target = down;
type = TopGhost;
},
{
place = (65,80);
type = Stem;
}
);
layerId = "4835E1DE-F61A-4AD8-AAF5-C8058972FAF5";
shapes = (
{
closed = 1;
nodes = (
(125,285,o),
(145,300,o),
(145,331,cs),
(145,450,o),
(141,567,o),
(130,670,cs),
(127,700,o),
(108,713,o),
(89,713,cs),
(70,713,o),
(50,700,o),
(50,671,cs),
(50,633,o),
(65,575,o),
(65,330,cs),
(65,300,o),
(86,285,o),
(106,285,cs)
);
},
{
closed = 1;
nodes = (
(113,-266,o),
(132,-252,o),
(133,-224,cs),
(136,-127,o),
(145,18,o),
(145,109,cs),
(145,140,o),
(126,156,o),
(105,156,cs),
(86,156,o),
(65,141,o),
(65,111,cs),
(65,16,o),
(53,-182,o),
(53,-222,cs),
(53,-250,o),
(73,-266,o),
(94,-266,cs)
);
}
);
width = 195;
}
);
unicode = 166;
},
{
glyphname = section;
layers = (
{
hints = (
{
horizontal = 1;
place = (-21,72);
type = Stem;
},
{
horizontal = 1;
place = (590,72);
type = Stem;
},
{
place = (37,73);
type = Stem;
},
{
place = (56,72);
type = Stem;
},
{
place = (68,73);
type = Stem;
},
{
place = (237,73);
type = Stem;
},
{
place = (246,73);
type = Stem;
}
);
layerId = "4835E1DE-F61A-4AD8-AAF5-C8058972FAF5";
shapes = (
{
closed = 1;
nodes = (
(319,444,o),
(141,481,o),
(141,555,cs),
(141,579,o),
(160,590,o),
(183,590,cs),
(206,590,o),
(232,579,o),
(250,557,cs),
(259,546,o),
(269,542,o),
(278,542,cs),
(296,542,o),
(311,558,o),
(311,577,cs),
(311,586,o),
(308,595,o),
(301,604,cs),
(273,641,o),
(229,662,o),
(182,662,cs),
(116,662,o),
(68,618,o),
(68,558,cs),
(68,519,o),
(83,490,o),
(105,466,c),
(73,440,o),
(56,406,o),
(56,367,cs),
(56,249,o),
(237,204,o),
(237,116,cs),
(237,77,o),
(213,51,o),
(176,51,cs),
(138,51,o),
(110,77,o),
(110,112,cs),
(110,120,o),
(114,145,o),
(114,149,cs),
(114,170,o),
(97,183,o),
(80,183,cs),
(47,183,o),
(37,144,o),
(37,110,cs),
(37,34,o),
(96,-21,o),
(177,-21,cs),
(256,-21,o),
(310,32,o),
(310,108,cs),
(310,147,o),
(297,179,o),
(278,205,c),
(305,238,o),
(319,273,o),
(319,309,cs)
);
},
{
closed = 1;
nodes = (
(128,389,o),
(138,406,o),
(158,420,c),
(202,387,o),
(246,358,o),
(246,308,cs),
(246,286,o),
(242,268,o),
(233,253,c),
(183,295,o),
(128,325,o),
(128,368,cs)
);
}
);
width = 357;
}
);
unicode = 167;
},
{
glyphname = dieresis;
layers = (
{
hints = (
{
horizontal = 1;
place = (770,88);
type = Stem;
},
{
place = (34,88);
type = Stem;
},
{
place = (158,88);
type = Stem;
}
);
layerId = "4835E1DE-F61A-4AD8-AAF5-C8058972FAF5";
shapes = (
{
closed = 1;
nodes = (
(102,770,o),
(122,790,o),
(122,814,cs),
(122,838,o),
(102,858,o),
(78,858,cs),
(54,858,o),
(34,838,o),
(34,814,cs),
(34,790,o),
(54,770,o),
(78,770,cs)
);
},
{
closed = 1;
nodes = (
(226,770,o),
(246,790,o),
(246,814,cs),
(246,838,o),
(226,858,o),
(202,858,cs),
(178,858,o),
(158,838,o),
(158,814,cs),
(158,790,o),
(178,770,o),
(202,770,cs)
);
}
);
width = 280;
}
);
unicode = 168;
},
{
glyphname = copyright;
layers = (
{
hints = (
{
horizontal = 1;
place = (60,69);
type = Stem;
},
{
horizontal = 1;
place = (176,61);
type = Stem;
},
{
horizontal = 1;
place = (415,59);
type = Stem;
},
{
horizontal = 1;
place = (522,67);
type = Stem;
},
{
place = (28,71);
type = Stem;
},
{
place = (167,64);
type = Stem;
},
{
place = (321,58);
type = Stem;
},
{
place = (482,72);
type = Stem;
}
);
layerId = "4835E1DE-F61A-4AD8-AAF5-C8058972FAF5";
shapes = (
{
closed = 1;
nodes = (
(147,589,o),
(28,468,o),
(28,305,cs),
(28,153,o),
(127,60,o),
(290,60,cs),
(443,60,o),
(554,183,o),
(554,352,cs),
(554,491,o),
(452,589,o),
(306,589,cs)
);
},
{
closed = 1;
nodes = (
(411,522,o),
(482,452,o),
(482,352,cs),
(482,217,o),
(403,129,o),
(283,129,cs),
(165,129,o),
(99,193,o),
(99,305,cs),
(99,436,o),
(183,522,o),
(311,522,cs)
);
},
{
closed = 1;
nodes = (
(347,254,o),
(325,237,o),
(294,237,cs),
(250,237,o),
(231,280,o),
(231,323,cs),
(231,369,o),
(253,415,o),
(292,415,cs),
(311,415,o),
(321,405,o),
(321,389,cs),
(321,368,o),
(335,358,o),
(349,358,cs),
(364,358,o),
(379,369,o),
(379,391,cs),
(379,440,o),
(343,474,o),
(292,474,cs),
(212,474,o),
(167,393,o),
(167,316,cs),
(167,244,o),
(205,176,o),
(290,176,cs),
(339,176,o),
(381,197,o),
(412,243,cs),
(418,252,o),
(421,260,o),
(421,268,cs),
(421,284,o),
(408,296,o),
(393,296,cs),
(384,296,o),
(374,291,o),
(366,280,cs)
);
}
);
width = 589;
}
);
unicode = 169;
},
{
glyphname = guillemotleft;
layers = (
{
hints = (
{
horizontal = 1;
place = (156,266);
type = Stem;
},
{
place = (46,320);
type = Stem;
}
);
layerId = "4835E1DE-F61A-4AD8-AAF5-C8058972FAF5";
shapes = (
{
closed = 1;
nodes = (
(202,172,o),
(206,180,o),
(206,190,cs),
(206,200,o),
(201,212,o),
(193,222,cs),
(173,247,o),
(153,272,o),
(144,286,cs),
(140,292,o),
(138,295,o),
(138,298,cs),
(138,301,o),
(140,304,o),
(143,309,cs),
(150,321,o),
(170,338,o),
(189,357,cs),
(200,368,o),
(205,380,o),
(205,391,cs),
(205,399,o),
(202,406,o),
(197,412,cs),
(191,419,o),
(182,422,o),
(173,422,cs),
(163,422,o),
(152,418,o),
(142,409,cs),
(99,372,o),
(46,312,o),
(46,297,cs),
(46,293,o),
(48,288,o),
(52,281,cs),
(67,254,o),
(108,205,o),
(140,173,cs),
(151,162,o),
(163,156,o),
(174,156,cs),
(181,156,o),
(189,159,o),
(195,165,cs)
);
},
{
closed = 1;
nodes = (
(362,172,o),
(366,180,o),
(366,190,cs),
(366,200,o),
(361,212,o),
(353,222,cs),
(333,247,o),
(313,272,o),
(304,286,cs),
(300,292,o),
(298,295,o),
(298,298,cs),
(298,301,o),
(300,304,o),
(303,309,cs),
(310,321,o),
(330,338,o),
(349,357,cs),
(360,368,o),
(365,380,o),
(365,391,cs),
(365,399,o),
(362,406,o),
(357,412,cs),
(351,419,o),
(342,422,o),
(333,422,cs),
(323,422,o),
(312,418,o),
(302,409,cs),
(259,372,o),
(206,312,o),
(206,297,cs),
(206,293,o),
(208,288,o),
(212,281,cs),
(227,254,o),
(268,205,o),
(300,173,cs),
(311,162,o),
(323,156,o),
(334,156,cs),
(341,156,o),
(349,159,o),
(355,165,cs)
);
}
);
width = 401;
}
);
leftKerningGroup = guillemotleft2;
rightKerningGroup = guillemotleft;
unicode = 171;
},
{
glyphname = logicalnot;
layers = (
{
hints = (
{
horizontal = 1;
place = (298,76);
type = Stem;
},
{
place = (278,74);
type = Stem;
}
);
layerId = "4835E1DE-F61A-4AD8-AAF5-C8058972FAF5";
shapes = (
{
closed = 1;
nodes = (
(352,335,ls),
(352,359,o),
(337,374,o),
(313,374,cs),
(76,374,ls),
(47,374,o),
(33,355,o),
(33,336,cs),
(33,317,o),
(47,298,o),
(76,298,cs),
(261,298,ls),
(272,298,o),
(278,292,o),
(278,281,cs),
(278,254,ls),
(278,225,o),
(297,211,o),
(315,211,cs),
(334,211,o),
(352,225,o),
(352,254,cs)
);
}
);
width = 385;
}
);
unicode = 172;
},
{
glyphname = uni00AD;
layers = (
{
hints = (
{
horizontal = 1;
place = (222,72);
type = Stem;
},
{
place = (100,247);
type = Stem;
}
);
layerId = "4835E1DE-F61A-4AD8-AAF5-C8058972FAF5";
shapes = (
{
closed = 1;
nodes = (
(331,222,o),
(347,237,o),
(347,257,cs),
(347,277,o),
(332,292,o),
(311,292,c),
(253,293,o),
(195,293,o),
(137,294,c),
(116,294,o),
(100,279,o),
(100,259,cs),
(100,239,o),
(115,224,o),
(136,224,c),
(194,223,o),
(252,223,o),
(310,222,c)
);
}
);
width = 417;
}
);
leftKerningGroup = endash2;
rightKerningGroup = endash;
unicode = 173;
},
{
glyphname = registered;
layers = (
{
hints = (
{
horizontal = 1;
place = (290,53);
type = Stem;
},
{
horizontal = 1;
place = (459,41);
type = Stem;
},
{
horizontal = 1;
place = (547,40);
type = Stem;
},
{
horizontal = 1;
place = (622,53);
type = Stem;
},
{
place = (34,56);
type = Stem;
},
{
place = (167,40);
type = Stem;
},
{
place = (243,43);
type = Stem;
},
{
place = (362,56);
type = Stem;
}
);
layerId = "4835E1DE-F61A-4AD8-AAF5-C8058972FAF5";
shapes = (
{
closed = 1;
nodes = (
(105,675,o),
(34,572,o),
(34,472,cs),
(34,379,o),
(95,290,o),
(223,290,cs),
(350,290,o),
(418,393,o),
(418,493,cs),
(418,586,o),
(358,675,o),
(236,675,cs)
);
},
{
closed = 1;
nodes = (
(133,343,o),
(90,409,o),
(90,476,cs),
(90,547,o),
(141,622,o),
(236,622,cs),
(323,622,o),
(362,559,o),
(362,494,cs),
(362,421,o),
(314,343,o),
(226,343,cs)
);
},
{
closed = 1;
nodes = (
(275,483,o),
(286,503,o),
(286,524,cs),
(286,561,o),
(260,587,o),
(224,587,cs),
(206,587,o),
(186,580,o),
(170,569,c),
(164,412,ls),
(163,396,o),
(174,387,o),
(185,387,cs),
(195,387,o),
(205,395,o),
(206,411,cs),
(208,461,l),
(213,460,o),
(217,459,o),
(221,459,c),
(226,442,o),
(235,421,o),
(251,402,cs),
(257,395,o),
(264,392,o),
(270,392,cs),
(280,392,o),
(289,401,o),
(289,412,cs),
(289,417,o),
(287,423,o),
(283,429,cs),
(271,446,o),
(264,455,o),
(258,471,c)
);
},
{
closed = 1;
nodes = (
(211,543,l),
(215,545,o),
(221,547,o),
(226,547,cs),
(236,547,o),
(243,538,o),
(243,526,cs),
(243,510,o),
(235,500,o),
(223,500,cs),
(219,500,o),
(214,501,o),
(209,503,c)
);
}
);
width = 449;
}
);
unicode = 174;
},
{
glyphname = macron;
layers = (
{
hints = (
{
horizontal = 1;
place = (780,71);
type = Stem;
},
{
place = (29,228);
type = Stem;
}
);
layerId = "4835E1DE-F61A-4AD8-AAF5-C8058972FAF5";
shapes = (
{
closed = 1;
nodes = (
(214,780,l),
(243,780,o),
(257,797,o),
(257,815,cs),
(257,833,o),
(243,851,o),
(214,851,c),
(73,853,ls),
(44,854,o),
(29,836,o),
(29,818,cs),
(29,800,o),
(44,782,o),
(73,782,c)
);
}
);
width = 290;
}
);
unicode = 175;
},
{
glyphname = degree;
layers = (
{
hints = (
{
horizontal = 1;
place = (470,67);
type = Stem;
},
{
horizontal = 1;
place = (610,67);
type = Stem;
},
{
place = (34,70);
type = Stem;
},
{
place = (178,68);
type = Stem;
}
);
layerId = "4835E1DE-F61A-4AD8-AAF5-C8058972FAF5";
shapes = (
{
closed = 1;
nodes = (
(195,470,o),
(246,521,o),
(246,585,cs),
(246,639,o),
(207,677,o),
(152,677,cs),
(86,677,o),
(34,627,o),
(34,563,cs),
(34,508,o),
(73,470,o),
(131,470,cs)
);
},
{
closed = 1;
nodes = (
(114,537,o),
(104,552,o),
(104,568,cs),
(104,588,o),
(119,610,o),
(146,610,cs),
(167,610,o),
(178,596,o),
(178,579,cs),
(178,559,o),
(163,537,o),
(137,537,cs)
);
}
);
width = 281;
}
);
unicode = 176;
},
{
glyphname = plusminus;
layers = (
{
hints = (
{
horizontal = 1;
place = (154,70);
type = Stem;
},
{
horizontal = 1;
place = (335,70);
type = Stem;
},
{
horizontal = 1;
place = (336,70);
type = Stem;
},
{
place = (224,72);
type = Stem;
}
);
layerId = "4835E1DE-F61A-4AD8-AAF5-C8058972FAF5";
shapes = (
{
closed = 1;
nodes = (
(222,336,l),
(222,292,ls),
(222,265,o),
(240,252,o),
(259,252,cs),
(277,252,o),
(295,265,o),
(295,292,cs),
(295,335,l),
(361,335,ls),
(388,335,o),
(402,353,o),
(402,370,cs),
(402,388,o),
(388,405,o),
(361,405,cs),
(296,405,l),
(296,467,ls),
(296,492,o),
(279,505,o),
(261,505,cs),
(243,505,o),
(224,492,o),
(224,467,c),
(223,406,l),
(155,406,ls),
(130,406,o),
(118,389,o),
(118,371,cs),
(118,354,o),
(130,336,o),
(155,336,cs)
);
},
{
closed = 1;
nodes = (
(155,225,l),
(130,225,o),
(118,208,o),
(118,190,cs),
(118,173,o),
(130,155,o),
(155,155,c),
(361,154,l),
(388,154,o),
(402,172,o),
(402,189,cs),
(402,207,o),
(388,224,o),
(361,224,c)
);
}
);
width = 436;
}
);
unicode = 177;
},
{
glyphname = uni00B2;
layers = (
{
hints = (
{
horizontal = 1;
place = (366,59);
type = Stem;
},
{
horizontal = 1;
place = (645,62);
type = Stem;
},
{
place = (51,58);
type = Stem;
},
{
place = (159,63);
type = Stem;
}
);
layerId = "4835E1DE-F61A-4AD8-AAF5-C8058972FAF5";
shapes = (
{
closed = 1;
nodes = (
(239,366,o),
(279,411,o),
(279,452,cs),
(279,470,o),
(266,480,o),
(252,480,cs),
(242,480,o),
(232,474,o),
(226,461,cs),
(214,435,o),
(200,425,o),
(188,425,cs),
(181,425,o),
(159,431,o),
(148,431,c),
(189,484,o),
(222,555,o),
(222,609,cs),
(222,675,o),
(178,707,o),
(135,707,cs),
(93,707,o),
(51,676,o),
(51,615,cs),
(51,593,o),
(66,581,o),
(81,581,cs),
(95,581,o),
(109,592,o),
(109,614,cs),
(109,634,o),
(122,645,o),
(134,645,cs),
(147,645,o),
(159,633,o),
(159,609,cs),
(159,552,o),
(128,487,o),
(87,446,cs),
(81,440,o),
(73,435,o),
(61,431,cs),
(43,425,o),
(36,412,o),
(36,399,cs),
(36,383,o),
(48,367,o),
(66,367,cs),
(77,367,o),
(93,376,o),
(108,376,cs),
(131,376,o),
(164,366,o),
(194,366,cs)
);
}
);
width = 310;
}
);
unicode = 178;
},
{
glyphname = uni00B3;
layers = (
{
hints = (
{
horizontal = 1;
place = (364,60);
type = Stem;
},
{
horizontal = 1;
place = (646,61);
type = Stem;
},
{
place = (36,57);
type = Stem;
},
{
place = (158,61);
type = Stem;
},
{
place = (174,63);
type = Stem;
}
);
layerId = "4835E1DE-F61A-4AD8-AAF5-C8058972FAF5";
shapes = (
{
closed = 1;
nodes = (
(205,569,o),
(219,594,o),
(219,622,cs),
(219,678,o),
(176,707,o),
(131,707,cs),
(84,707,o),
(36,675,o),
(36,610,cs),
(36,587,o),
(50,576,o),
(65,576,cs),
(79,576,o),
(93,587,o),
(93,610,cs),
(93,634,o),
(111,646,o),
(128,646,cs),
(143,646,o),
(158,637,o),
(158,618,cs),
(158,596,o),
(144,576,o),
(124,569,cs),
(110,564,o),
(104,553,o),
(104,542,cs),
(104,529,o),
(113,516,o),
(129,516,cs),
(158,516,o),
(174,495,o),
(174,472,cs),
(174,441,o),
(155,424,o),
(133,424,cs),
(119,424,o),
(103,431,o),
(90,447,cs),
(81,458,o),
(71,463,o),
(61,463,cs),
(46,463,o),
(33,451,o),
(33,435,cs),
(33,401,o),
(83,364,o),
(130,364,cs),
(201,364,o),
(237,413,o),
(237,463,cs),
(237,498,o),
(219,533,o),
(182,551,c)
);
}
);
width = 272;
}
);
leftKerningGroup = uni00B9;
unicode = 179;
},
{
glyphname = acute;
layers = (
{
hints = (
{
horizontal = 1;
place = (761,147);
type = Stem;
},
{
place = (34,143);
type = Stem;
}
);
layerId = "4835E1DE-F61A-4AD8-AAF5-C8058972FAF5";
shapes = (
{
closed = 1;
nodes = (
(49,827,ls),
(38,816,o),
(34,804,o),
(34,794,cs),
(34,775,o),
(48,761,o),
(66,761,cs),
(76,761,o),
(88,766,o),
(99,777,cs),
(161,842,ls),
(172,853,o),
(177,865,o),
(177,875,cs),
(177,894,o),
(162,908,o),
(144,908,cs),
(134,908,o),
(121,903,o),
(110,891,cs)
);
}
);
width = 213;
}
);
unicode = 180;
},
{
glyphname = paragraph;
layers = (
{
hints = (
{
horizontal = 1;
place = (-22,74);
type = Stem;
},
{
horizontal = 1;
place = (565,76);
type = Stem;
},
{
horizontal = 1;
place = (595,82);
type = Stem;
},
{
place = (30,205);
type = Stem;
},
{
place = (289,79);
type = Stem;
}
);
layerId = "4835E1DE-F61A-4AD8-AAF5-C8058972FAF5";
shapes = (
{
closed = 1;
nodes = (
(438,641,o),
(419,638,o),
(412,638,cs),
(351,638,o),
(267,677,o),
(191,677,cs),
(90,677,o),
(30,601,o),
(30,478,cs),
(30,305,o),
(56,241,o),
(134,241,cs),
(216,241,o),
(235,308,o),
(235,568,cs),
(235,585,o),
(243,595,o),
(258,595,cs),
(265,595,o),
(275,592,o),
(289,589,c),
(288,535,o),
(284,399,o),
(280,264,cs),
(276,129,o),
(240,52,o),
(193,52,cs),
(161,52,o),
(139,75,o),
(125,122,cs),
(118,144,o),
(102,154,o),
(87,154,cs),
(68,154,o),
(50,140,o),
(50,116,cs),
(50,62,o),
(102,-22,o),
(186,-22,cs),
(292,-22,o),
(351,81,o),
(360,262,cs),
(363,333,o),
(366,470,o),
(368,570,c),
(386,567,o),
(405,565,o),
(424,565,cs),
(450,565,o),
(481,575,o),
(481,606,cs),
(481,624,o),
(468,641,o),
(446,641,cs)
);
}
);
width = 431;
}
);
unicode = 182;
},
{
glyphname = periodcentered;
layers = (
{
hints = (
{
horizontal = 1;
place = (254,109);
type = Stem;
},
{
place = (30,109);
type = Stem;
}
);
layerId = "4835E1DE-F61A-4AD8-AAF5-C8058972FAF5";
shapes = (
{
closed = 1;
nodes = (
(115,254,o),
(139,278,o),
(139,309,cs),
(139,339,o),
(115,363,o),
(85,363,cs),
(54,363,o),
(30,339,o),
(30,309,cs),
(30,278,o),
(54,254,o),
(85,254,cs)
);
}
);
width = 169;
}
);
unicode = 183;
},
{
glyphname = cedilla;
layers = (
{
hints = (
{
horizontal = 1;
place = (-199,64);
type = Stem;
},
{
place = (125,70);
type = Stem;
}
);
layerId = "4835E1DE-F61A-4AD8-AAF5-C8058972FAF5";
shapes = (
{
closed = 1;
nodes = (
(70,-194,o),
(89,-199,o),
(108,-199,cs),
(162,-199,o),
(195,-157,o),
(195,-118,cs),
(195,-98,o),
(186,-79,o),
(168,-66,cs),
(151,-54,o),
(144,-49,o),
(144,-43,cs),
(144,-39,o),
(148,-30,o),
(156,-8,cs),
(158,-3,o),
(159,1,o),
(159,5,cs),
(159,19,o),
(146,28,o),
(132,28,cs),
(120,28,o),
(107,21,o),
(100,6,cs),
(85,-29,o),
(81,-47,o),
(81,-61,cs),
(81,-76,o),
(95,-87,o),
(109,-95,cs),
(120,-102,o),
(125,-111,o),
(125,-119,cs),
(125,-128,o),
(118,-135,o),
(106,-135,cs),
(99,-135,o),
(88,-131,o),
(77,-126,cs),
(71,-123,o),
(65,-122,o),
(60,-122,cs),
(43,-122,o),
(31,-136,o),
(31,-151,cs),
(31,-163,o),
(38,-175,o),
(53,-184,cs)
);
}
);
width = 229;
}
);
unicode = 184;
},
{
glyphname = uni00B9;
layers = (
{
hints = (
{
horizontal = 1;
place = (705,-20);
target = down;
type = TopGhost;
},
{
place = (104,62);
type = Stem;
}
);
layerId = "4835E1DE-F61A-4AD8-AAF5-C8058972FAF5";
shapes = (
{
closed = 1;
nodes = (
(135,373,o),
(148,384,o),
(152,408,cs),
(162,468,o),
(166,543,o),
(166,611,cs),
(166,631,o),
(166,653,o),
(165,671,cs),
(164,693,o),
(151,705,o),
(135,705,cs),
(122,705,o),
(108,697,o),
(98,677,cs),
(86,653,o),
(65,631,o),
(42,614,cs),
(31,606,o),
(26,596,o),
(26,587,cs),
(26,573,o),
(38,561,o),
(53,561,cs),
(69,561,o),
(90,579,o),
(104,593,c),
(104,509,o),
(90,428,o),
(90,407,cs),
(90,386,o),
(103,373,o),
(120,373,cs)
);
}
);
width = 198;
}
);
leftKerningGroup = uni00B9;
unicode = 185;
},
{
glyphname = guillemotright;
layers = (
{
hints = (
{
horizontal = 1;
place = (156,266);
type = Stem;
},
{
place = (125,320);
type = Stem;
}
);
layerId = "4835E1DE-F61A-4AD8-AAF5-C8058972FAF5";
shapes = (
{
closed = 1;
nodes = (
(142,159,o),
(150,156,o),
(157,156,cs),
(168,156,o),
(180,162,o),
(191,173,cs),
(223,205,o),
(264,254,o),
(279,281,cs),
(283,288,o),
(285,293,o),
(285,297,cs),
(285,302,o),
(283,307,o),
(278,314,cs),
(261,338,o),
(222,380,o),
(189,409,cs),
(179,418,o),
(168,422,o),
(158,422,cs),
(149,422,o),
(140,419,o),
(134,412,cs),
(129,406,o),
(126,399,o),
(126,391,cs),
(126,380,o),
(131,368,o),
(142,357,cs),
(161,338,o),
(181,321,o),
(188,309,cs),
(191,304,o),
(193,301,o),
(193,298,cs),
(193,295,o),
(191,292,o),
(187,286,cs),
(178,272,o),
(158,247,o),
(138,222,cs),
(130,212,o),
(125,200,o),
(125,190,cs),
(125,180,o),
(129,172,o),
(136,165,cs)
);
},
{
closed = 1;
nodes = (
(302,159,o),
(310,156,o),
(317,156,cs),
(328,156,o),
(340,162,o),
(351,173,cs),
(383,205,o),
(424,254,o),
(439,281,cs),
(443,288,o),
(445,293,o),
(445,297,cs),
(445,302,o),
(443,307,o),
(438,314,cs),
(421,338,o),
(382,380,o),
(349,409,cs),
(339,418,o),
(328,422,o),
(318,422,cs),
(309,422,o),
(300,419,o),
(294,412,cs),
(289,406,o),
(286,399,o),
(286,391,cs),
(286,380,o),
(291,368,o),
(302,357,cs),
(321,338,o),
(339,320,o),
(348,309,cs),
(352,304,o),
(354,302,o),
(354,299,cs),
(354,296,o),
(351,292,o),
(347,286,cs),
(338,272,o),
(318,247,o),
(298,222,cs),
(290,212,o),
(285,200,o),
(285,190,cs),
(285,180,o),
(289,172,o),
(296,165,cs)
);
}
);
width = 481;
}
);
leftKerningGroup = guillemotright;
unicode = 187;
},
{
glyphname = onequarter;
layers = (
{
hints = (
{
horizontal = 1;
place = (-6,21);
target = up;
type = BottomGhost;
},
{
horizontal = 1;
place = (-4,21);
target = up;
type = BottomGhost;
},
{
horizontal = 1;
place = (130,65);
type = Stem;
},
{
place = (113,62);
type = Stem;
},
{
place = (338,68);
type = Stem;
},
{
place = (435,61);
type = Stem;
}
);
layerId = "4835E1DE-F61A-4AD8-AAF5-C8058972FAF5";
shapes = (
{
closed = 1;
nodes = (
(113,475,o),
(99,394,o),
(99,373,cs),
(99,352,o),
(112,339,o),
(129,339,cs),
(144,339,o),
(157,350,o),
(161,374,cs),
(171,434,o),
(175,509,o),
(175,577,cs),
(175,597,o),
(175,619,o),
(174,637,cs),
(173,659,o),
(160,671,o),
(144,671,cs),
(131,671,o),
(117,663,o),
(107,643,cs),
(95,619,o),
(74,597,o),
(51,580,cs),
(40,572,o),
(35,562,o),
(35,553,cs),
(35,539,o),
(47,527,o),
(62,527,cs),
(78,527,o),
(99,545,o),
(113,559,c)
);
},
{
closed = 1;
nodes = (
(458,657,o),
(446,670,o),
(429,670,cs),
(418,670,o),
(406,665,o),
(394,652,cs),
(291,541,o),
(146,171,o),
(56,61,cs),
(47,50,o),
(43,38,o),
(43,29,cs),
(43,10,o),
(57,-4,o),
(74,-4,cs),
(85,-4,o),
(98,2,o),
(109,17,cs),
(203,145,o),
(340,481,o),
(444,606,cs),
(454,618,o),
(458,629,o),
(458,639,cs)
);
},
{
closed = 1;
nodes = (
(524,176,o),
(514,180,o),
(505,183,c),
(510,230,o),
(517,257,o),
(517,269,cs),
(517,289,o),
(501,300,o),
(485,300,cs),
(472,300,o),
(458,291,o),
(454,273,cs),
(449,249,o),
(445,222,o),
(441,195,c),
(430,195,ls),
(418,195,o),
(406,193,o),
(394,190,c),
(401,214,o),
(406,242,o),
(406,274,cs),
(406,316,o),
(404,353,o),
(370,353,cs),
(354,353,o),
(338,342,o),
(338,320,cs),
(338,305,o),
(342,270,o),
(342,258,cs),
(342,225,o),
(336,200,o),
(323,181,cs),
(314,169,o),
(310,157,o),
(310,147,cs),
(310,129,o),
(324,117,o),
(346,117,cs),
(363,117,o),
(384,130,o),
(429,130,cs),
(435,130,l),
(433,95,o),
(432,61,o),
(433,31,cs),
(434,7,o),
(450,-6,o),
(465,-6,cs),
(481,-6,o),
(496,7,o),
(496,31,cs),
(496,64,o),
(497,92,o),
(499,118,c),
(512,113,o),
(523,109,o),
(531,109,cs),
(549,109,o),
(561,123,o),
(561,138,cs),
(561,150,o),
(553,164,o),
(534,172,cs)
);
}
);
width = 598;
}
);
leftKerningGroup = onehalf;
unicode = 188;
},
{
glyphname = onehalf;
layers = (
{
hints = (
{
horizontal = 1;
place = (-4,59);
type = Stem;
},
{
horizontal = 1;
place = (275,62);
type = Stem;
},
{
place = (112,62);
type = Stem;
},
{
place = (321,58);
type = Stem;
},
{
place = (429,63);
type = Stem;
}
);
layerId = "4835E1DE-F61A-4AD8-AAF5-C8058972FAF5";
shapes = (
{
closed = 1;
nodes = (
(143,339,o),
(156,350,o),
(160,374,cs),
(170,434,o),
(174,509,o),
(174,577,cs),
(174,597,o),
(174,619,o),
(173,637,cs),
(172,659,o),
(159,671,o),
(143,671,cs),
(130,671,o),
(116,663,o),
(106,643,cs),
(94,619,o),
(73,597,o),
(50,580,cs),
(39,572,o),
(34,562,o),
(34,553,cs),
(34,539,o),
(46,527,o),
(61,527,cs),
(77,527,o),
(98,545,o),
(112,559,c),
(112,475,o),
(98,394,o),
(98,373,cs),
(98,352,o),
(111,339,o),
(128,339,cs)
);
},
{
closed = 1;
nodes = (
(203,145,o),
(340,481,o),
(444,606,cs),
(454,618,o),
(458,629,o),
(458,639,cs),
(458,657,o),
(446,670,o),
(429,670,cs),
(418,670,o),
(406,665,o),
(394,652,cs),
(291,541,o),
(146,171,o),
(56,61,cs),
(47,50,o),
(43,38,o),
(43,29,cs),
(43,10,o),
(57,-4,o),
(74,-4,cs),
(85,-4,o),
(98,2,o),
(109,17,cs)
);
},
{
closed = 1;
nodes = (
(509,-4,o),
(549,41,o),
(549,82,cs),
(549,100,o),
(536,110,o),
(522,110,cs),
(512,110,o),
(502,104,o),
(496,91,cs),
(484,65,o),
(470,55,o),
(458,55,cs),
(451,55,o),
(429,61,o),
(418,61,c),
(459,114,o),
(492,185,o),
(492,239,cs),
(492,305,o),
(448,337,o),
(405,337,cs),
(363,337,o),
(321,306,o),
(321,245,cs),
(321,223,o),
(336,211,o),
(351,211,cs),
(365,211,o),
(379,222,o),
(379,244,cs),
(379,264,o),
(392,275,o),
(404,275,cs),
(417,275,o),
(429,263,o),
(429,239,cs),
(429,182,o),
(398,117,o),
(357,76,cs),
(351,70,o),
(343,65,o),
(331,61,cs),
(313,55,o),
(306,42,o),
(306,29,cs),
(306,13,o),
(318,-3,o),
(336,-3,cs),
(347,-3,o),
(363,6,o),
(378,6,cs),
(401,6,o),
(434,-4,o),
(464,-4,cs)
);
}
);
width = 577;
}
);
leftKerningGroup = onehalf;
unicode = 189;
},
{
glyphname = threequarters;
layers = (
{
hints = (
{
horizontal = 1;
place = (-6,21);
target = up;
type = BottomGhost;
},
{
horizontal = 1;
place = (-4,21);
target = up;
type = BottomGhost;
},
{
horizontal = 1;
place = (130,65);
type = Stem;
},
{
horizontal = 1;
place = (324,60);
type = Stem;
},
{
horizontal = 1;
place = (606,61);
type = Stem;
},
{
place = (36,57);
type = Stem;
},
{
place = (158,61);
type = Stem;
},
{
place = (174,63);
type = Stem;
},
{
place = (389,68);
type = Stem;
},
{
place = (483,64);
type = Stem;
}
);
layerId = "4835E1DE-F61A-4AD8-AAF5-C8058972FAF5";
shapes = (
{
closed = 1;
nodes = (
(507,657,o),
(495,670,o),
(478,670,cs),
(467,670,o),
(455,665,o),
(443,652,cs),
(340,541,o),
(195,171,o),
(105,61,cs),
(96,50,o),
(92,38,o),
(92,29,cs),
(92,10,o),
(106,-4,o),
(123,-4,cs),
(134,-4,o),
(147,2,o),
(158,17,cs),
(252,145,o),
(389,481,o),
(493,606,cs),
(503,618,o),
(507,629,o),
(507,639,cs)
);
},
{
closed = 1;
nodes = (
(237,458,o),
(219,493,o),
(182,511,c),
(205,529,o),
(219,554,o),
(219,582,cs),
(219,638,o),
(176,667,o),
(131,667,cs),
(84,667,o),
(36,635,o),
(36,570,cs),
(36,547,o),
(50,536,o),
(65,536,cs),
(79,536,o),
(93,547,o),
(93,570,cs),
(93,594,o),
(111,606,o),
(128,606,cs),
(143,606,o),
(158,597,o),
(158,578,cs),
(158,556,o),
(144,536,o),
(124,529,cs),
(110,524,o),
(104,513,o),
(104,502,cs),
(104,489,o),
(113,476,o),
(129,476,cs),
(158,476,o),
(174,455,o),
(174,432,cs),
(174,401,o),
(155,384,o),
(133,384,cs),
(119,384,o),
(103,391,o),
(90,407,cs),
(81,418,o),
(71,423,o),
(61,423,cs),
(46,423,o),
(33,411,o),
(33,395,cs),
(33,361,o),
(83,324,o),
(130,324,cs),
(201,324,o),
(237,373,o),
(237,423,cs)
);
},
{
closed = 1;
nodes = (
(575,176,o),
(565,180,o),
(556,183,c),
(561,230,o),
(568,257,o),
(568,269,cs),
(568,289,o),
(552,300,o),
(536,300,cs),
(523,300,o),
(509,291,o),
(505,273,cs),
(500,249,o),
(495,222,o),
(492,195,c),
(481,195,ls),
(469,195,o),
(457,193,o),
(445,190,c),
(452,214,o),
(457,242,o),
(457,274,cs),
(457,316,o),
(455,353,o),
(421,353,cs),
(405,353,o),
(389,342,o),
(389,320,cs),
(389,305,o),
(393,270,o),
(393,258,cs),
(393,225,o),
(387,200,o),
(374,181,cs),
(366,169,o),
(361,157,o),
(361,147,cs),
(361,129,o),
(375,117,o),
(397,117,cs),
(414,117,o),
(435,130,o),
(480,130,cs),
(486,130,l),
(484,108,o),
(483,86,o),
(483,65,cs),
(483,53,o),
(484,42,o),
(484,31,c),
(485,7,o),
(501,-6,o),
(516,-6,cs),
(532,-6,o),
(547,7,o),
(547,31,cs),
(547,64,o),
(548,92,o),
(550,118,c),
(563,113,o),
(574,109,o),
(582,109,cs),
(600,109,o),
(612,123,o),
(612,138,cs),
(612,150,o),
(604,164,o),
(585,172,cs)
);
}
);
width = 648;
}
);
leftKerningGroup = onehalf;
unicode = 190;
},
{
glyphname = questiondown;
layers = (
{
hints = (
{
horizontal = 1;
place = (-254,75);
type = Stem;
},
{
horizontal = 1;
place = (357,109);
type = Stem;
},
{
place = (34,81);
type = Stem;
},
{
place = (177,109);
type = Stem;
},
{
place = (192,78);
type = Stem;
},
{
place = (288,80);
type = Stem;
}
);
layerId = "4835E1DE-F61A-4AD8-AAF5-C8058972FAF5";
shapes = (
{
closed = 1;
nodes = (
(201,466,o),
(177,442,o),
(177,411,cs),
(177,381,o),
(201,357,o),
(231,357,cs),
(262,357,o),
(286,381,o),
(286,411,cs),
(286,442,o),
(262,466,o),
(231,466,cs)
);
},
{
closed = 1;
nodes = (
(211,280,o),
(192,265,o),
(192,234,cs),
(192,150,o),
(157,120,o),
(122,83,cs),
(72,31,o),
(34,-11,o),
(34,-97,cs),
(34,-200,o),
(119,-254,o),
(203,-254,cs),
(286,-254,o),
(368,-204,o),
(368,-99,cs),
(368,-61,o),
(357,-24,o),
(321,-24,cs),
(302,-24,o),
(284,-37,o),
(284,-62,cs),
(284,-66,o),
(288,-88,o),
(288,-99,cs),
(288,-152,o),
(246,-179,o),
(203,-179,cs),
(159,-179,o),
(115,-150,o),
(115,-91,cs),
(115,-43,o),
(140,-4,o),
(177,31,cs),
(214,67,o),
(270,113,o),
(270,234,cs),
(270,265,o),
(250,280,o),
(231,280,cs)
);
}
);
width = 400;
}
);
unicode = 191;
},
{
glyphname = Agrave;
layers = (
{
anchors = (
{
name = t.uni0302_2;
position = "{639, 700}";
}
);
hints = (
{
horizontal = 1;
place = (-8,77);
type = Stem;
},
{
horizontal = 1;
place = (-7,75);
type = Stem;
},
{
horizontal = 1;
place = (252,76);
type = Stem;
},
{
horizontal = 1;
place = (256,77);
type = Stem;
},
{
horizontal = 1;
place = (596,114);
type = Stem;
},
{
horizontal = 1;
place = (710,-20);
target = down;
type = TopGhost;
},
{
place = (561,84);
type = Stem;
}
);
layerId = "4835E1DE-F61A-4AD8-AAF5-C8058972FAF5";
shapes = (
{
closed = 1;
nodes = (
(625,777,ls),
(636,766,o),
(647,761,o),
(658,761,cs),
(676,761,o),
(690,776,o),
(690,794,cs),
(690,804,o),
(686,816,o),
(675,827,cs),
(614,891,ls),
(603,903,o),
(590,908,o),
(580,908,cs),
(561,908,o),
(547,894,o),
(547,876,cs),
(547,865,o),
(552,853,o),
(563,842,cs)
);
},
{
closed = 1;
nodes = (
(794,188,o),
(732,68,o),
(690,68,cs),
(666,68,o),
(645,89,o),
(645,193,cs),
(645,401,o),
(692,597,o),
(692,656,cs),
(692,691,o),
(673,710,o),
(643,710,cs),
(559,710,o),
(511,603,o),
(405,366,cs),
(399,353,o),
(394,341,o),
(388,329,c),
(354,328,o),
(320,328,o),
(286,328,cs),
(255,328,o),
(239,309,o),
(239,291,cs),
(239,271,o),
(256,252,o),
(289,252,cs),
(306,252,o),
(327,252,o),
(349,253,c),
(281,128,o),
(221,69,o),
(174,69,cs),
(134,69,o),
(116,111,o),
(85,111,cs),
(67,111,o),
(51,95,o),
(51,74,cs),
(51,35,o),
(100,-8,o),
(174,-8,cs),
(289,-8,o),
(379,127,o),
(443,256,c),
(484,259,o),
(525,262,o),
(563,267,c),
(562,239,o),
(561,210,o),
(561,179,cs),
(561,55,o),
(613,-7,o),
(682,-7,cs),
(761,-7,o),
(824,74,o),
(882,233,cs),
(884,239,o),
(885,245,o),
(885,250,cs),
(885,269,o),
(871,280,o),
(855,280,cs),
(842,280,o),
(827,272,o),
(820,254,cs)
);
},
{
closed = 1;
nodes = (
(484,343,o),
(489,354,o),
(493,364,cs),
(567,534,o),
(594,596,o),
(604,596,cs),
(615,596,o),
(583,507,o),
(568,342,c),
(539,338,o),
(510,335,o),
(479,333,c)
);
}
);
width = 798;
}
);
leftKerningGroup = A2;
rightKerningGroup = A;
unicode = 192;
},
{
glyphname = Aacute;
layers = (
{
anchors = (
{
name = t.uni0302_2;
position = "{639, 700}";
}
);
hints = (
{
horizontal = 1;
place = (-8,77);
type = Stem;
},
{
horizontal = 1;
place = (-7,75);
type = Stem;
},
{
horizontal = 1;
place = (252,76);
type = Stem;
},
{
horizontal = 1;
place = (256,77);
type = Stem;
},
{
horizontal = 1;
place = (596,114);
type = Stem;
},
{
horizontal = 1;
place = (710,-20);
target = down;
type = TopGhost;
},
{
place = (561,84);
type = Stem;
}
);
layerId = "4835E1DE-F61A-4AD8-AAF5-C8058972FAF5";
shapes = (
{
closed = 1;
nodes = (
(736,842,ls),
(747,853,o),
(752,865,o),
(752,875,cs),
(752,894,o),
(737,908,o),
(719,908,cs),
(709,908,o),
(696,903,o),
(685,891,cs),
(624,827,ls),
(613,816,o),
(609,804,o),
(609,794,cs),
(609,775,o),
(623,761,o),
(641,761,cs),
(651,761,o),
(663,766,o),
(674,777,cs)
);
},
{
closed = 1;
nodes = (
(794,188,o),
(732,68,o),
(690,68,cs),
(666,68,o),
(645,89,o),
(645,193,cs),
(645,401,o),
(692,597,o),
(692,656,cs),
(692,691,o),
(673,710,o),
(643,710,cs),
(559,710,o),
(511,603,o),
(405,366,cs),
(399,353,o),
(394,341,o),
(388,329,c),
(354,328,o),
(320,328,o),
(286,328,cs),
(255,328,o),
(239,309,o),
(239,291,cs),
(239,271,o),
(256,252,o),
(289,252,cs),
(306,252,o),
(327,252,o),
(349,253,c),
(281,128,o),
(221,69,o),
(174,69,cs),
(134,69,o),
(116,111,o),
(85,111,cs),
(67,111,o),
(51,95,o),
(51,74,cs),
(51,35,o),
(100,-8,o),
(174,-8,cs),
(289,-8,o),
(379,127,o),
(443,256,c),
(484,259,o),
(525,262,o),
(563,267,c),
(562,239,o),
(561,210,o),
(561,179,cs),
(561,55,o),
(613,-7,o),
(682,-7,cs),
(761,-7,o),
(824,74,o),
(882,233,cs),
(884,239,o),
(885,245,o),
(885,250,cs),
(885,269,o),
(871,280,o),
(855,280,cs),
(842,280,o),
(827,272,o),
(820,254,cs)
);
},
{
closed = 1;
nodes = (
(484,343,o),
(489,354,o),
(493,364,cs),
(567,534,o),
(594,596,o),
(604,596,cs),
(615,596,o),
(583,507,o),
(568,342,c),
(539,338,o),
(510,335,o),
(479,333,c)
);
}
);
width = 798;
}
);
leftKerningGroup = A2;
rightKerningGroup = A;
unicode = 193;
},
{
glyphname = Acircumflex;
layers = (
{
anchors = (
{
name = t.uni0302_2;
position = "{639, 700}";
}
);
hints = (
{
horizontal = 1;
place = (-8,77);
type = Stem;
},
{
horizontal = 1;
place = (-7,75);
type = Stem;
},
{
horizontal = 1;
place = (252,76);
type = Stem;
},
{
horizontal = 1;
place = (256,77);
type = Stem;
},
{
horizontal = 1;
place = (596,114);
type = Stem;
},
{
horizontal = 1;
place = (710,-20);
target = down;
type = TopGhost;
},
{
place = (561,84);
type = Stem;
}
);
layerId = "4835E1DE-F61A-4AD8-AAF5-C8058972FAF5";
shapes = (
{
closed = 1;
nodes = (
(648,809,ls),
(653,812,o),
(657,814,o),
(661,814,cs),
(666,814,o),
(670,812,o),
(674,808,cs),
(700,779,ls),
(710,768,o),
(720,764,o),
(730,764,cs),
(747,764,o),
(761,778,o),
(761,795,cs),
(761,804,o),
(758,813,o),
(750,822,cs),
(693,887,ls),
(686,895,o),
(679,899,o),
(672,899,cs),
(666,899,o),
(659,897,o),
(652,892,cs),
(564,832,l),
(548,822,o),
(542,809,o),
(542,798,cs),
(542,781,o),
(556,767,o),
(574,767,cs),
(582,767,o),
(590,769,o),
(598,775,cs)
);
},
{
closed = 1;
nodes = (
(794,188,o),
(732,68,o),
(690,68,cs),
(666,68,o),
(645,89,o),
(645,193,cs),
(645,401,o),
(692,597,o),
(692,656,cs),
(692,691,o),
(673,710,o),
(643,710,cs),
(559,710,o),
(511,603,o),
(405,366,cs),
(399,353,o),
(394,341,o),
(388,329,c),
(354,328,o),
(320,328,o),
(286,328,cs),
(255,328,o),
(239,309,o),
(239,291,cs),
(239,271,o),
(256,252,o),
(289,252,cs),
(306,252,o),
(327,252,o),
(349,253,c),
(281,128,o),
(221,69,o),
(174,69,cs),
(134,69,o),
(116,111,o),
(85,111,cs),
(67,111,o),
(51,95,o),
(51,74,cs),
(51,35,o),
(100,-8,o),
(174,-8,cs),
(289,-8,o),
(379,127,o),
(443,256,c),
(484,259,o),
(525,262,o),
(563,267,c),
(562,239,o),
(561,210,o),
(561,179,cs),
(561,55,o),
(613,-7,o),
(682,-7,cs),
(761,-7,o),
(824,74,o),
(882,233,cs),
(884,239,o),
(885,245,o),
(885,250,cs),
(885,269,o),
(871,280,o),
(855,280,cs),
(842,280,o),
(827,272,o),
(820,254,cs)
);
},
{
closed = 1;
nodes = (
(484,343,o),
(489,354,o),
(493,364,cs),
(567,534,o),
(594,596,o),
(604,596,cs),
(615,596,o),
(583,507,o),
(568,342,c),
(539,338,o),
(510,335,o),
(479,333,c)
);
}
);
width = 798;
}
);
leftKerningGroup = A2;
rightKerningGroup = A;
unicode = 194;
},
{
glyphname = Atilde;
layers = (
{
anchors = (
{
name = t.uni0302_2;
position = "{639, 700}";
}
);
hints = (
{
horizontal = 1;
place = (-8,77);
type = Stem;
},
{
horizontal = 1;
place = (-7,75);
type = Stem;
},
{
horizontal = 1;
place = (252,76);
type = Stem;
},
{
horizontal = 1;
place = (256,77);
type = Stem;
},
{
horizontal = 1;
place = (596,114);
type = Stem;
},
{
horizontal = 1;
place = (710,-20);
target = down;
type = TopGhost;
},
{
horizontal = 1;
place = (772,69);
type = Stem;
},
{
horizontal = 1;
place = (804,70);
type = Stem;
},
{
place = (561,84);
type = Stem;
}
);
layerId = "4835E1DE-F61A-4AD8-AAF5-C8058972FAF5";
shapes = (
{
closed = 1;
nodes = (
(593,798,o),
(600,804,o),
(606,804,cs),
(620,804,o),
(665,772,o),
(696,772,cs),
(720,772,o),
(739,783,o),
(757,803,cs),
(766,814,o),
(769,824,o),
(769,834,cs),
(769,854,o),
(753,870,o),
(735,870,cs),
(725,870,o),
(715,865,o),
(706,853,cs),
(700,845,o),
(695,841,o),
(690,841,cs),
(676,841,o),
(632,874,o),
(599,874,cs),
(577,874,o),
(551,863,o),
(536,842,cs),
(529,832,o),
(525,821,o),
(525,812,cs),
(525,793,o),
(539,778,o),
(557,778,cs),
(567,778,o),
(577,782,o),
(587,792,cs)
);
},
{
closed = 1;
nodes = (
(794,188,o),
(732,68,o),
(690,68,cs),
(666,68,o),
(645,89,o),
(645,193,cs),
(645,401,o),
(692,597,o),
(692,656,cs),
(692,691,o),
(673,710,o),
(643,710,cs),
(559,710,o),
(511,603,o),
(405,366,cs),
(399,353,o),
(394,341,o),
(388,329,c),
(354,328,o),
(320,328,o),
(286,328,cs),
(255,328,o),
(239,309,o),
(239,291,cs),
(239,271,o),
(256,252,o),
(289,252,cs),
(306,252,o),
(327,252,o),
(349,253,c),
(281,128,o),
(221,69,o),
(174,69,cs),
(134,69,o),
(116,111,o),
(85,111,cs),
(67,111,o),
(51,95,o),
(51,74,cs),
(51,35,o),
(100,-8,o),
(174,-8,cs),
(289,-8,o),
(379,127,o),
(443,256,c),
(484,259,o),
(525,262,o),
(563,267,c),
(562,239,o),
(561,210,o),
(561,179,cs),
(561,55,o),
(613,-7,o),
(682,-7,cs),
(761,-7,o),
(824,74,o),
(882,233,cs),
(884,239,o),
(885,245,o),
(885,250,cs),
(885,269,o),
(871,280,o),
(855,280,cs),
(842,280,o),
(827,272,o),
(820,254,cs)
);
},
{
closed = 1;
nodes = (
(484,343,o),
(489,354,o),
(493,364,cs),
(567,534,o),
(594,596,o),
(604,596,cs),
(615,596,o),
(583,507,o),
(568,342,c),
(539,338,o),
(510,335,o),
(479,333,c)
);
}
);
width = 798;
}
);
leftKerningGroup = A2;
rightKerningGroup = A;
unicode = 195;
},
{
glyphname = Adieresis;
layers = (
{
anchors = (
{
name = t.uni0302_2;
position = "{639, 700}";
}
);
hints = (
{
horizontal = 1;
place = (-8,77);
type = Stem;
},
{
horizontal = 1;
place = (-7,75);
type = Stem;
},
{
horizontal = 1;
place = (252,76);
type = Stem;
},
{
horizontal = 1;
place = (256,77);
type = Stem;
},
{
horizontal = 1;
place = (596,114);
type = Stem;
},
{
horizontal = 1;
place = (710,-20);
target = down;
type = TopGhost;
},
{
horizontal = 1;
place = (770,88);
type = Stem;
},
{
place = (548,88);
type = Stem;
},
{
place = (561,84);
type = Stem;
},
{
place = (672,88);
type = Stem;
}
);
layerId = "4835E1DE-F61A-4AD8-AAF5-C8058972FAF5";
shapes = (
{
closed = 1;
nodes = (
(616,770,o),
(636,790,o),
(636,814,cs),
(636,838,o),
(616,858,o),
(592,858,cs),
(568,858,o),
(548,838,o),
(548,814,cs),
(548,790,o),
(568,770,o),
(592,770,cs)
);
},
{
closed = 1;
nodes = (
(740,770,o),
(760,790,o),
(760,814,cs),
(760,838,o),
(740,858,o),
(716,858,cs),
(692,858,o),
(672,838,o),
(672,814,cs),
(672,790,o),
(692,770,o),
(716,770,cs)
);
},
{
closed = 1;
nodes = (
(794,188,o),
(732,68,o),
(690,68,cs),
(666,68,o),
(645,89,o),
(645,193,cs),
(645,401,o),
(692,597,o),
(692,656,cs),
(692,691,o),
(673,710,o),
(643,710,cs),
(559,710,o),
(511,603,o),
(405,366,cs),
(399,353,o),
(394,341,o),
(388,329,c),
(354,328,o),
(320,328,o),
(286,328,cs),
(255,328,o),
(239,309,o),
(239,291,cs),
(239,271,o),
(256,252,o),
(289,252,cs),
(306,252,o),
(327,252,o),
(349,253,c),
(281,128,o),
(221,69,o),
(174,69,cs),
(134,69,o),
(116,111,o),
(85,111,cs),
(67,111,o),
(51,95,o),
(51,74,cs),
(51,35,o),
(100,-8,o),
(174,-8,cs),
(289,-8,o),
(379,127,o),
(443,256,c),
(484,259,o),
(525,262,o),
(563,267,c),
(562,239,o),
(561,210,o),
(561,179,cs),
(561,55,o),
(613,-7,o),
(682,-7,cs),
(761,-7,o),
(824,74,o),
(882,233,cs),
(884,239,o),
(885,245,o),
(885,250,cs),
(885,269,o),
(871,280,o),
(855,280,cs),
(842,280,o),
(827,272,o),
(820,254,cs)
);
},
{
closed = 1;
nodes = (
(484,343,o),
(489,354,o),
(493,364,cs),
(567,534,o),
(594,596,o),
(604,596,cs),
(615,596,o),
(583,507,o),
(568,342,c),
(539,338,o),
(510,335,o),
(479,333,c)
);
}
);
width = 798;
}
);
leftKerningGroup = A2;
rightKerningGroup = A;
unicode = 196;
},
{
glyphname = Aring;
layers = (
{
anchors = (
{
name = t.uni0302_2;
position = "{639, 700}";
}
);
hints = (
{
horizontal = 1;
place = (-8,77);
type = Stem;
},
{
horizontal = 1;
place = (-7,75);
type = Stem;
},
{
horizontal = 1;
place = (252,76);
type = Stem;
},
{
horizontal = 1;
place = (256,77);
type = Stem;
},
{
horizontal = 1;
place = (596,114);
type = Stem;
},
{
horizontal = 1;
place = (710,-20);
target = down;
type = TopGhost;
},
{
horizontal = 1;
place = (748,57);
type = Stem;
},
{
horizontal = 1;
place = (853,58);
type = Stem;
},
{
place = (561,84);
type = Stem;
},
{
place = (562,59);
type = Stem;
},
{
place = (670,59);
type = Stem;
}
);
layerId = "4835E1DE-F61A-4AD8-AAF5-C8058972FAF5";
shapes = (
{
closed = 1;
nodes = (
(692,748,o),
(729,785,o),
(729,833,cs),
(729,878,o),
(699,911,o),
(653,911,cs),
(601,911,o),
(562,872,o),
(562,822,cs),
(562,778,o),
(595,748,o),
(642,748,cs)
);
},
{
closed = 1;
nodes = (
(660,853,o),
(670,847,o),
(670,833,cs),
(670,814,o),
(656,805,o),
(643,805,cs),
(632,805,o),
(621,812,o),
(621,826,cs),
(621,844,o),
(635,853,o),
(649,853,cs)
);
},
{
closed = 1;
nodes = (
(794,188,o),
(732,68,o),
(690,68,cs),
(666,68,o),
(645,89,o),
(645,193,cs),
(645,401,o),
(692,597,o),
(692,656,cs),
(692,691,o),
(673,710,o),
(643,710,cs),
(559,710,o),
(511,603,o),
(405,366,cs),
(399,353,o),
(394,341,o),
(388,329,c),
(354,328,o),
(320,328,o),
(286,328,cs),
(255,328,o),
(239,309,o),
(239,291,cs),
(239,271,o),
(256,252,o),
(289,252,cs),
(306,252,o),
(327,252,o),
(349,253,c),
(281,128,o),
(221,69,o),
(174,69,cs),
(134,69,o),
(116,111,o),
(85,111,cs),
(67,111,o),
(51,95,o),
(51,74,cs),
(51,35,o),
(100,-8,o),
(174,-8,cs),
(289,-8,o),
(379,127,o),
(443,256,c),
(484,259,o),
(525,262,o),
(563,267,c),
(562,239,o),
(561,210,o),
(561,179,cs),
(561,55,o),
(613,-7,o),
(682,-7,cs),
(761,-7,o),
(824,74,o),
(882,233,cs),
(884,239,o),
(885,245,o),
(885,250,cs),
(885,269,o),
(871,280,o),
(855,280,cs),
(842,280,o),
(827,272,o),
(820,254,cs)
);
},
{
closed = 1;
nodes = (
(484,343,o),
(489,354,o),
(493,364,cs),
(567,534,o),
(594,596,o),
(604,596,cs),
(615,596,o),
(583,507,o),
(568,342,c),
(539,338,o),
(510,335,o),
(479,333,c)
);
}
);
width = 798;
}
);
leftKerningGroup = A2;
rightKerningGroup = A;
unicode = 197;
},
{
glyphname = AE;
layers = (
{
anchors = (
{
name = t.uni0302_2;
position = "{713, 700}";
}
);
hints = (
{
horizontal = 1;
place = (-12,74);
type = Stem;
},
{
horizontal = 1;
place = (-8,77);
type = Stem;
},
{
horizontal = 1;
place = (227,76);
type = Stem;
},
{
horizontal = 1;
place = (231,76);
type = Stem;
},
{
horizontal = 1;
place = (634,77);
type = Stem;
},
{
place = (580,82);
type = Stem;
},
{
place = (601,91);
type = Stem;
},
{
place = (711,80);
type = Stem;
},
{
place = (971,75);
type = Stem;
}
);
layerId = "4835E1DE-F61A-4AD8-AAF5-C8058972FAF5";
shapes = (
{
closed = 1;
nodes = (
(1010,155,o),
(943,62,o),
(828,62,cs),
(726,62,o),
(662,118,o),
(662,197,cs),
(662,286,o),
(733,359,o),
(872,359,cs),
(898,359,o),
(913,376,o),
(913,393,cs),
(913,408,o),
(903,423,o),
(881,430,cs),
(842,442,o),
(791,467,o),
(791,538,cs),
(791,595,o),
(829,634,o),
(886,634,cs),
(931,634,o),
(971,604,o),
(971,558,cs),
(971,554,o),
(971,551,o),
(970,545,cs),
(966,519,o),
(986,502,o),
(1006,502,cs),
(1023,502,o),
(1040,515,o),
(1044,545,cs),
(1045,553,o),
(1046,560,o),
(1046,567,cs),
(1046,655,o),
(972,711,o),
(887,711,cs),
(787,711,o),
(711,641,o),
(711,546,cs),
(711,480,o),
(740,445,o),
(780,415,c),
(737,406,o),
(688,382,o),
(659,351,c),
(672,483,o),
(692,623,o),
(692,668,cs),
(692,695,o),
(675,710,o),
(645,710,cs),
(559,710,o),
(511,603,o),
(405,366,c),
(376,304,l),
(346,303,o),
(316,303,o),
(286,303,cs),
(255,303,o),
(239,284,o),
(239,266,cs),
(239,246,o),
(256,227,o),
(289,227,cs),
(335,227,l),
(273,120,o),
(218,69,o),
(174,69,cs),
(134,69,o),
(116,111,o),
(85,111,cs),
(67,111,o),
(51,95,o),
(51,74,cs),
(51,35,o),
(100,-8,o),
(174,-8,cs),
(283,-8,o),
(369,102,o),
(435,231,c),
(485,234,o),
(536,238,o),
(580,244,c),
(580,207,ls),
(580,75,o),
(666,-12,o),
(823,-12,cs),
(952,-12,o),
(1051,70,o),
(1110,233,cs),
(1112,238,o),
(1113,243,o),
(1113,248,cs),
(1113,267,o),
(1097,281,o),
(1081,281,cs),
(1068,281,o),
(1055,273,o),
(1048,254,cs)
);
},
{
closed = 1;
nodes = (
(486,339,o),
(500,371,o),
(512,402,cs),
(565,534,o),
(587,577,o),
(597,577,cs),
(600,577,o),
(601,572,o),
(601,563,cs),
(601,531,o),
(588,446,o),
(582,319,c),
(547,313,o),
(510,309,o),
(472,307,c)
);
}
);
width = 1026;
}
);
leftKerningGroup = A2;
rightKerningGroup = A;
unicode = 198;
},
{
glyphname = Ccedilla;
layers = (
{
anchors = (
{
name = t.uni0302_2;
position = "{432, 700}";
},
{
name = b.uni0326_1_2;
position = "{356, 0}";
}
);
hints = (
{
horizontal = 1;
place = (-198,64);
type = Stem;
},
{
horizontal = 1;
place = (-10,75);
type = Stem;
},
{
horizontal = 1;
place = (632,75);
type = Stem;
},
{
place = (93,84);
type = Stem;
},
{
place = (362,70);
type = Stem;
},
{
place = (472,84);
type = Stem;
}
);
layerId = "4835E1DE-F61A-4AD8-AAF5-C8058972FAF5";
shapes = (
{
closed = 1;
nodes = (
(523,121,o),
(442,65,o),
(359,65,cs),
(255,65,o),
(177,147,o),
(177,269,cs),
(177,488,o),
(318,632,o),
(420,632,cs),
(454,632,o),
(472,614,o),
(472,581,cs),
(472,528,o),
(452,511,o),
(452,484,cs),
(452,464,o),
(469,448,o),
(489,448,cs),
(504,448,o),
(522,458,o),
(533,480,cs),
(548,511,o),
(556,548,o),
(556,581,cs),
(556,655,o),
(500,707,o),
(420,707,cs),
(270,707,o),
(93,534,o),
(93,269,cs),
(93,107,o),
(198,-1,o),
(330,-10,c),
(321,-34,o),
(318,-49,o),
(318,-60,cs),
(318,-75,o),
(332,-86,o),
(346,-94,cs),
(357,-101,o),
(362,-110,o),
(362,-118,cs),
(362,-127,o),
(355,-134,o),
(343,-134,cs),
(336,-134,o),
(325,-130,o),
(314,-125,cs),
(308,-122,o),
(302,-121,o),
(297,-121,cs),
(280,-121,o),
(268,-135,o),
(268,-150,cs),
(268,-162,o),
(275,-174,o),
(290,-183,cs),
(307,-193,o),
(326,-198,o),
(345,-198,cs),
(399,-198,o),
(432,-156,o),
(432,-117,cs),
(432,-97,o),
(423,-78,o),
(405,-65,cs),
(388,-53,o),
(381,-48,o),
(381,-42,cs),
(381,-38,o),
(385,-29,o),
(393,-8,c),
(493,8,o),
(580,78,o),
(637,233,cs),
(639,238,o),
(640,243,o),
(640,248,cs),
(640,268,o),
(624,282,o),
(608,282,cs),
(595,282,o),
(583,274,o),
(575,254,cs)
);
}
);
width = 553;
}
);
leftKerningGroup = C;
rightKerningGroup = A;
unicode = 199;
},
{
glyphname = Egrave;
layers = (
{
anchors = (
{
name = t.uni0302_2;
position = "{353, 700}";
}
);
hints = (
{
horizontal = 1;
place = (-11,76);
type = Stem;
},
{
horizontal = 1;
place = (347,78);
type = Stem;
},
{
horizontal = 1;
place = (637,75);
type = Stem;
},
{
place = (121,84);
type = Stem;
},
{
place = (173,84);
type = Stem;
},
{
place = (433,79);
type = Stem;
}
);
layerId = "4835E1DE-F61A-4AD8-AAF5-C8058972FAF5";
shapes = (
{
closed = 1;
nodes = (
(339,777,ls),
(350,766,o),
(361,761,o),
(372,761,cs),
(390,761,o),
(404,776,o),
(404,794,cs),
(404,804,o),
(400,816,o),
(389,827,cs),
(328,891,ls),
(317,903,o),
(304,908,o),
(294,908,cs),
(275,908,o),
(261,894,o),
(261,876,cs),
(261,865,o),
(266,853,o),
(277,842,cs)
);
},
{
closed = 1;
nodes = (
(510,155,o),
(456,65,o),
(345,65,cs),
(263,65,o),
(205,114,o),
(205,196,cs),
(205,287,o),
(274,347,o),
(378,347,cs),
(406,347,o),
(425,363,o),
(425,385,cs),
(425,408,o),
(406,425,o),
(378,425,cs),
(300,425,o),
(257,466,o),
(257,541,cs),
(257,600,o),
(294,637,o),
(350,637,cs),
(397,637,o),
(433,606,o),
(433,561,cs),
(433,552,o),
(431,541,o),
(431,526,cs),
(431,508,o),
(448,494,o),
(466,494,cs),
(488,494,o),
(512,514,o),
(512,570,cs),
(512,655,o),
(437,712,o),
(351,712,cs),
(248,712,o),
(173,638,o),
(173,543,cs),
(173,469,o),
(212,423,o),
(251,393,c),
(169,356,o),
(121,283,o),
(121,194,cs),
(121,75,o),
(211,-11,o),
(340,-11,cs),
(466,-11,o),
(546,64,o),
(611,233,cs),
(613,238,o),
(614,244,o),
(614,249,cs),
(614,268,o),
(599,281,o),
(583,281,cs),
(570,281,o),
(557,273,o),
(549,254,cs)
);
}
);
width = 527;
}
);
leftKerningGroup = E;
rightKerningGroup = A;
unicode = 200;
},
{
glyphname = Eacute;
layers = (
{
anchors = (
{
name = t.uni0302_2;
position = "{353, 700}";
}
);
hints = (
{
horizontal = 1;
place = (-11,76);
type = Stem;
},
{
horizontal = 1;
place = (347,78);
type = Stem;
},
{
horizontal = 1;
place = (637,75);
type = Stem;
},
{
place = (121,84);
type = Stem;
},
{
place = (173,84);
type = Stem;
},
{
place = (433,79);
type = Stem;
}
);
layerId = "4835E1DE-F61A-4AD8-AAF5-C8058972FAF5";
shapes = (
{
closed = 1;
nodes = (
(450,842,ls),
(461,853,o),
(466,865,o),
(466,875,cs),
(466,894,o),
(451,908,o),
(433,908,cs),
(423,908,o),
(410,903,o),
(399,891,cs),
(338,827,ls),
(327,816,o),
(323,804,o),
(323,794,cs),
(323,775,o),
(337,761,o),
(355,761,cs),
(365,761,o),
(377,766,o),
(388,777,cs)
);
},
{
closed = 1;
nodes = (
(510,155,o),
(456,65,o),
(345,65,cs),
(263,65,o),
(205,114,o),
(205,196,cs),
(205,287,o),
(274,347,o),
(378,347,cs),
(406,347,o),
(425,363,o),
(425,385,cs),
(425,408,o),
(406,425,o),
(378,425,cs),
(300,425,o),
(257,466,o),
(257,541,cs),
(257,600,o),
(294,637,o),
(350,637,cs),
(397,637,o),
(433,606,o),
(433,561,cs),
(433,552,o),
(431,541,o),
(431,526,cs),
(431,508,o),
(448,494,o),
(466,494,cs),
(488,494,o),
(512,514,o),
(512,570,cs),
(512,655,o),
(437,712,o),
(351,712,cs),
(248,712,o),
(173,638,o),
(173,543,cs),
(173,469,o),
(212,423,o),
(251,393,c),
(169,356,o),
(121,283,o),
(121,194,cs),
(121,75,o),
(211,-11,o),
(340,-11,cs),
(466,-11,o),
(546,64,o),
(611,233,cs),
(613,238,o),
(614,244,o),
(614,249,cs),
(614,268,o),
(599,281,o),
(583,281,cs),
(570,281,o),
(557,273,o),
(549,254,cs)
);
}
);
width = 527;
}
);
leftKerningGroup = E;
rightKerningGroup = A;
unicode = 201;
},
{
glyphname = Ecircumflex;
layers = (
{
anchors = (
{
name = t.uni0302_2;
position = "{353, 700}";
}
);
hints = (
{
horizontal = 1;
place = (-11,76);
type = Stem;
},
{
horizontal = 1;
place = (347,78);
type = Stem;
},
{
horizontal = 1;
place = (637,75);
type = Stem;
},
{
place = (121,84);
type = Stem;
},
{
place = (173,84);
type = Stem;
},
{
place = (433,79);
type = Stem;
}
);
layerId = "4835E1DE-F61A-4AD8-AAF5-C8058972FAF5";
shapes = (
{
closed = 1;
nodes = (
(362,809,ls),
(367,812,o),
(371,814,o),
(375,814,cs),
(380,814,o),
(384,812,o),
(388,808,cs),
(414,779,ls),
(424,768,o),
(434,764,o),
(444,764,cs),
(461,764,o),
(475,778,o),
(475,795,cs),
(475,804,o),
(472,813,o),
(464,822,cs),
(407,887,ls),
(400,895,o),
(393,899,o),
(386,899,cs),
(380,899,o),
(373,897,o),
(366,892,cs),
(278,832,l),
(262,822,o),
(256,809,o),
(256,798,cs),
(256,781,o),
(270,767,o),
(288,767,cs),
(296,767,o),
(304,769,o),
(312,775,cs)
);
},
{
closed = 1;
nodes = (
(510,155,o),
(456,65,o),
(345,65,cs),
(263,65,o),
(205,114,o),
(205,196,cs),
(205,287,o),
(274,347,o),
(378,347,cs),
(406,347,o),
(425,363,o),
(425,385,cs),
(425,408,o),
(406,425,o),
(378,425,cs),
(300,425,o),
(257,466,o),
(257,541,cs),
(257,600,o),
(294,637,o),
(350,637,cs),
(397,637,o),
(433,606,o),
(433,561,cs),
(433,552,o),
(431,541,o),
(431,526,cs),
(431,508,o),
(448,494,o),
(466,494,cs),
(488,494,o),
(512,514,o),
(512,570,cs),
(512,655,o),
(437,712,o),
(351,712,cs),
(248,712,o),
(173,638,o),
(173,543,cs),
(173,469,o),
(212,423,o),
(251,393,c),
(169,356,o),
(121,283,o),
(121,194,cs),
(121,75,o),
(211,-11,o),
(340,-11,cs),
(466,-11,o),
(546,64,o),
(611,233,cs),
(613,238,o),
(614,244,o),
(614,249,cs),
(614,268,o),
(599,281,o),
(583,281,cs),
(570,281,o),
(557,273,o),
(549,254,cs)
);
}
);
width = 527;
}
);
leftKerningGroup = E;
rightKerningGroup = A;
unicode = 202;
},
{
glyphname = Edieresis;
layers = (
{
anchors = (
{
name = t.uni0302_2;
position = "{353, 700}";
}
);
hints = (
{
horizontal = 1;
place = (-11,76);
type = Stem;
},
{
horizontal = 1;
place = (347,78);
type = Stem;
},
{
horizontal = 1;
place = (637,75);
type = Stem;
},
{
horizontal = 1;
place = (770,88);
type = Stem;
},
{
place = (121,84);
type = Stem;
},
{
place = (173,84);
type = Stem;
},
{
place = (262,88);
type = Stem;
},
{
place = (386,88);
type = Stem;
},
{
place = (433,79);
type = Stem;
}
);
layerId = "4835E1DE-F61A-4AD8-AAF5-C8058972FAF5";
shapes = (
{
closed = 1;
nodes = (
(330,770,o),
(350,790,o),
(350,814,cs),
(350,838,o),
(330,858,o),
(306,858,cs),
(282,858,o),
(262,838,o),
(262,814,cs),
(262,790,o),
(282,770,o),
(306,770,cs)
);
},
{
closed = 1;
nodes = (
(454,770,o),
(474,790,o),
(474,814,cs),
(474,838,o),
(454,858,o),
(430,858,cs),
(406,858,o),
(386,838,o),
(386,814,cs),
(386,790,o),
(406,770,o),
(430,770,cs)
);
},
{
closed = 1;
nodes = (
(510,155,o),
(456,65,o),
(345,65,cs),
(263,65,o),
(205,114,o),
(205,196,cs),
(205,287,o),
(274,347,o),
(378,347,cs),
(406,347,o),
(425,363,o),
(425,385,cs),
(425,408,o),
(406,425,o),
(378,425,cs),
(300,425,o),
(257,466,o),
(257,541,cs),
(257,600,o),
(294,637,o),
(350,637,cs),
(397,637,o),
(433,606,o),
(433,561,cs),
(433,552,o),
(431,541,o),
(431,526,cs),
(431,508,o),
(448,494,o),
(466,494,cs),
(488,494,o),
(512,514,o),
(512,570,cs),
(512,655,o),
(437,712,o),
(351,712,cs),
(248,712,o),
(173,638,o),
(173,543,cs),
(173,469,o),
(212,423,o),
(251,393,c),
(169,356,o),
(121,283,o),
(121,194,cs),
(121,75,o),
(211,-11,o),
(340,-11,cs),
(466,-11,o),
(546,64,o),
(611,233,cs),
(613,238,o),
(614,244,o),
(614,249,cs),
(614,268,o),
(599,281,o),
(583,281,cs),
(570,281,o),
(557,273,o),
(549,254,cs)
);
}
);
width = 527;
}
);
leftKerningGroup = E;
rightKerningGroup = A;
unicode = 203;
},
{
glyphname = Igrave;
layers = (
{
anchors = (
{
name = t.uni0302_2;
position = "{306, 700}";
},
{
name = b.uni0326_1_2;
position = "{230, 0}";
}
);
hints = (
{
horizontal = 1;
place = (0,75);
type = Stem;
},
{
horizontal = 1;
place = (636,75);
type = Stem;
},
{
place = (105,84);
type = Stem;
},
{
place = (360,84);
type = Stem;
}
);
layerId = "4835E1DE-F61A-4AD8-AAF5-C8058972FAF5";
shapes = (
{
closed = 1;
nodes = (
(281,891,ls),
(270,903,o),
(257,908,o),
(247,908,cs),
(228,908,o),
(214,894,o),
(214,876,cs),
(214,865,o),
(219,853,o),
(230,842,cs),
(292,777,ls),
(303,766,o),
(314,761,o),
(325,761,cs),
(343,761,o),
(357,776,o),
(357,794,cs),
(357,804,o),
(353,816,o),
(342,827,cs)
);
},
{
closed = 1;
nodes = (
(359,609,o),
(360,586,o),
(360,564,cs),
(360,226,o),
(316,75,o),
(246,75,cs),
(210,75,o),
(197,105,o),
(170,105,cs),
(153,105,o),
(138,90,o),
(138,68,cs),
(138,31,o),
(194,0,o),
(244,0,cs),
(382,0,o),
(444,155,o),
(444,558,cs),
(444,593,o),
(444,628,o),
(442,668,cs),
(441,690,o),
(428,700,o),
(407,703,cs),
(372,708,o),
(330,711,o),
(286,711,cs),
(176,711,o),
(105,651,o),
(105,568,cs),
(105,501,o),
(162,427,o),
(221,427,cs),
(244,427,o),
(260,443,o),
(260,466,cs),
(260,479,o),
(250,490,o),
(234,502,cs),
(207,521,o),
(189,544,o),
(189,569,cs),
(189,612,o),
(225,636,o),
(288,636,cs),
(310,636,o),
(335,635,o),
(359,632,c)
);
}
);
width = 459;
}
);
leftKerningGroup = I2;
rightKerningGroup = I;
unicode = 204;
},
{
glyphname = Iacute;
layers = (
{
anchors = (
{
name = t.uni0302_2;
position = "{306, 700}";
},
{
name = b.uni0326_1_2;
position = "{230, 0}";
}
);
hints = (
{
horizontal = 1;
place = (0,75);
type = Stem;
},
{
horizontal = 1;
place = (636,75);
type = Stem;
},
{
place = (105,84);
type = Stem;
},
{
place = (360,84);
type = Stem;
}
);
layerId = "4835E1DE-F61A-4AD8-AAF5-C8058972FAF5";
shapes = (
{
closed = 1;
nodes = (
(291,827,ls),
(280,816,o),
(276,804,o),
(276,794,cs),
(276,775,o),
(290,761,o),
(308,761,cs),
(318,761,o),
(330,766,o),
(341,777,cs),
(403,842,ls),
(414,853,o),
(419,865,o),
(419,875,cs),
(419,894,o),
(404,908,o),
(386,908,cs),
(376,908,o),
(363,903,o),
(352,891,cs)
);
},
{
closed = 1;
nodes = (
(359,609,o),
(360,586,o),
(360,564,cs),
(360,226,o),
(316,75,o),
(246,75,cs),
(210,75,o),
(197,105,o),
(170,105,cs),
(153,105,o),
(138,90,o),
(138,68,cs),
(138,31,o),
(194,0,o),
(244,0,cs),
(382,0,o),
(444,155,o),
(444,558,cs),
(444,593,o),
(444,628,o),
(442,668,cs),
(441,690,o),
(428,700,o),
(407,703,cs),
(372,708,o),
(330,711,o),
(286,711,cs),
(176,711,o),
(105,651,o),
(105,568,cs),
(105,501,o),
(162,427,o),
(221,427,cs),
(244,427,o),
(260,443,o),
(260,466,cs),
(260,479,o),
(250,490,o),
(234,502,cs),
(207,521,o),
(189,544,o),
(189,569,cs),
(189,612,o),
(225,636,o),
(288,636,cs),
(310,636,o),
(335,635,o),
(359,632,c)
);
}
);
width = 459;
}
);
leftKerningGroup = I2;
rightKerningGroup = I;
unicode = 205;
},
{
glyphname = Icircumflex;
layers = (
{
anchors = (
{
name = t.uni0302_2;
position = "{306, 700}";
},
{
name = b.uni0326_1_2;
position = "{230, 0}";
}
);
hints = (
{
horizontal = 1;
place = (0,75);
type = Stem;
},
{
horizontal = 1;
place = (636,75);
type = Stem;
},
{
place = (105,84);
type = Stem;
},
{
place = (360,84);
type = Stem;
}
);
layerId = "4835E1DE-F61A-4AD8-AAF5-C8058972FAF5";
shapes = (
{
closed = 1;
nodes = (
(315,809,ls),
(320,812,o),
(324,814,o),
(328,814,cs),
(333,814,o),
(337,812,o),
(341,808,cs),
(367,779,ls),
(377,768,o),
(387,764,o),
(397,764,cs),
(414,764,o),
(428,778,o),
(428,795,cs),
(428,804,o),
(425,813,o),
(417,822,cs),
(360,887,ls),
(353,895,o),
(346,899,o),
(339,899,cs),
(333,899,o),
(326,897,o),
(319,892,cs),
(231,832,l),
(215,822,o),
(209,809,o),
(209,798,cs),
(209,781,o),
(223,767,o),
(241,767,cs),
(249,767,o),
(257,769,o),
(265,775,cs)
);
},
{
closed = 1;
nodes = (
(359,609,o),
(360,586,o),
(360,564,cs),
(360,226,o),
(316,75,o),
(246,75,cs),
(210,75,o),
(197,105,o),
(170,105,cs),
(153,105,o),
(138,90,o),
(138,68,cs),
(138,31,o),
(194,0,o),
(244,0,cs),
(382,0,o),
(444,155,o),
(444,558,cs),
(444,593,o),
(444,628,o),
(442,668,cs),
(441,690,o),
(428,700,o),
(407,703,cs),
(372,708,o),
(330,711,o),
(286,711,cs),
(176,711,o),
(105,651,o),
(105,568,cs),
(105,501,o),
(162,427,o),
(221,427,cs),
(244,427,o),
(260,443,o),
(260,466,cs),
(260,479,o),
(250,490,o),
(234,502,cs),
(207,521,o),
(189,544,o),
(189,569,cs),
(189,612,o),
(225,636,o),
(288,636,cs),
(310,636,o),
(335,635,o),
(359,632,c)
);
}
);
width = 459;
}
);
leftKerningGroup = I2;
rightKerningGroup = I;
unicode = 206;
},
{
glyphname = Idieresis;
layers = (
{
anchors = (
{
name = t.uni0302_2;
position = "{306, 700}";
},
{
name = b.uni0326_1_2;
position = "{230, 0}";
}
);
hints = (
{
horizontal = 1;
place = (0,75);
type = Stem;
},
{
horizontal = 1;
place = (636,75);
type = Stem;
},
{
horizontal = 1;
place = (770,88);
type = Stem;
},
{
place = (105,84);
type = Stem;
},
{
place = (215,88);
type = Stem;
},
{
place = (339,88);
type = Stem;
},
{
place = (360,84);
type = Stem;
}
);
layerId = "4835E1DE-F61A-4AD8-AAF5-C8058972FAF5";
shapes = (
{
closed = 1;
nodes = (
(283,770,o),
(303,790,o),
(303,814,cs),
(303,838,o),
(283,858,o),
(259,858,cs),
(235,858,o),
(215,838,o),
(215,814,cs),
(215,790,o),
(235,770,o),
(259,770,cs)
);
},
{
closed = 1;
nodes = (
(407,770,o),
(427,790,o),
(427,814,cs),
(427,838,o),
(407,858,o),
(383,858,cs),
(359,858,o),
(339,838,o),
(339,814,cs),
(339,790,o),
(359,770,o),
(383,770,cs)
);
},
{
closed = 1;
nodes = (
(359,609,o),
(360,586,o),
(360,564,cs),
(360,226,o),
(316,75,o),
(246,75,cs),
(210,75,o),
(197,105,o),
(170,105,cs),
(153,105,o),
(138,90,o),
(138,68,cs),
(138,31,o),
(194,0,o),
(244,0,cs),
(382,0,o),
(444,155,o),
(444,558,cs),
(444,593,o),
(444,628,o),
(442,668,cs),
(441,690,o),
(428,700,o),
(407,703,cs),
(372,708,o),
(330,711,o),
(286,711,cs),
(176,711,o),
(105,651,o),
(105,568,cs),
(105,501,o),
(162,427,o),
(221,427,cs),
(244,427,o),
(260,443,o),
(260,466,cs),
(260,479,o),
(250,490,o),
(234,502,cs),
(207,521,o),
(189,544,o),
(189,569,cs),
(189,612,o),
(225,636,o),
(288,636,cs),
(310,636,o),
(335,635,o),
(359,632,c)
);
}
);
width = 459;
}
);
leftKerningGroup = I2;
rightKerningGroup = I;
unicode = 207;
},
{
glyphname = Eth;
layers = (
{
anchors = (
{
name = t.uni0302_2;
position = "{443, 700}";
}
);
hints = (
{
horizontal = 1;
place = (-5,72);
type = Stem;
},
{
horizontal = 1;
place = (-5,75);
type = Stem;
},
{
horizontal = 1;
place = (114,69);
type = Stem;
},
{
horizontal = 1;
place = (240,69);
type = Stem;
},
{
horizontal = 1;
place = (375,75);
type = Stem;
},
{
horizontal = 1;
place = (636,75);
type = Stem;
},
{
place = (82,78);
type = Stem;
},
{
place = (145,84);
type = Stem;
},
{
place = (331,84);
type = Stem;
},
{
place = (694,84);
type = Stem;
}
);
layerId = "4835E1DE-F61A-4AD8-AAF5-C8058972FAF5";
shapes = (
{
closed = 1;
nodes = (
(262,711,o),
(145,630,o),
(145,516,cs),
(145,430,o),
(209,375,o),
(310,375,cs),
(317,375,o),
(325,375,o),
(332,376,c),
(332,354,o),
(330,331,o),
(328,307,c),
(301,306,o),
(274,308,o),
(247,311,cs),
(215,315,o),
(198,296,o),
(198,277,cs),
(198,261,o),
(209,245,o),
(234,240,cs),
(262,234,o),
(290,232,o),
(317,233,c),
(311,205,o),
(303,177,o),
(293,154,c),
(260,170,o),
(226,183,o),
(190,183,cs),
(119,183,o),
(82,135,o),
(82,87,cs),
(82,41,o),
(117,-5,o),
(191,-5,cs),
(247,-5,o),
(290,18,o),
(323,55,c),
(376,25,o),
(437,-5,o),
(500,-5,cs),
(649,-5,o),
(778,124,o),
(778,362,cs),
(778,579,o),
(648,711,o),
(431,711,cs)
);
},
{
closed = 1;
nodes = (
(449,70,o),
(406,91,o),
(363,115,c),
(381,153,o),
(394,198,o),
(402,244,c),
(438,253,o),
(473,266,o),
(508,282,cs),
(523,289,o),
(529,302,o),
(529,314,cs),
(529,331,o),
(515,348,o),
(494,348,cs),
(487,348,o),
(479,346,o),
(471,342,cs),
(453,333,o),
(433,325,o),
(413,320,c),
(415,344,o),
(416,367,o),
(417,391,c),
(437,397,o),
(457,404,o),
(475,414,cs),
(494,424,o),
(502,439,o),
(502,453,cs),
(502,472,o),
(487,487,o),
(465,487,cs),
(453,487,o),
(437,480,o),
(416,473,c),
(415,491,o),
(414,508,o),
(412,522,cs),
(409,545,o),
(391,561,o),
(369,561,cs),
(346,561,o),
(331,542,o),
(331,515,cs),
(331,496,o),
(333,473,o),
(333,451,c),
(325,450,o),
(318,450,o),
(310,450,cs),
(259,450,o),
(229,473,o),
(229,517,cs),
(229,592,o),
(306,636,o),
(431,636,cs),
(603,636,o),
(694,541,o),
(694,362,cs),
(694,168,o),
(601,70,o),
(495,70,cs)
);
},
{
closed = 1;
nodes = (
(170,67,o),
(160,79,o),
(160,91,cs),
(160,102,o),
(170,114,o),
(190,114,cs),
(208,114,o),
(230,106,o),
(254,94,c),
(237,77,o),
(216,67,o),
(190,67,cs)
);
}
);
width = 776;
}
);
leftKerningGroup = D2;
rightKerningGroup = D;
unicode = 208;
},
{
glyphname = Ntilde;
layers = (
{
anchors = (
{
name = t.uni0302_2;
position = "{548, 700}";
},
{
name = b.uni0326_1_2;
position = "{491, 0}";
}
);
hints = (
{
horizontal = 1;
place = (-1,75);
type = Stem;
},
{
horizontal = 1;
place = (-8,21);
target = up;
type = BottomGhost;
},
{
horizontal = 1;
place = (634,75);
type = Stem;
},
{
horizontal = 1;
place = (646,75);
type = Stem;
},
{
horizontal = 1;
place = (772,69);
type = Stem;
},
{
horizontal = 1;
place = (804,70);
type = Stem;
},
{
place = (248,78);
type = Stem;
},
{
place = (619,84);
type = Stem;
},
{
place = (635,84);
type = Stem;
}
);
layerId = "4835E1DE-F61A-4AD8-AAF5-C8058972FAF5";
shapes = (
{
closed = 1;
nodes = (
(502,798,o),
(509,804,o),
(515,804,cs),
(529,804,o),
(574,772,o),
(605,772,cs),
(629,772,o),
(648,783,o),
(666,803,cs),
(675,814,o),
(678,824,o),
(678,834,cs),
(678,854,o),
(662,870,o),
(644,870,cs),
(634,870,o),
(624,865,o),
(615,853,cs),
(609,845,o),
(604,841,o),
(599,841,cs),
(585,841,o),
(541,874,o),
(508,874,cs),
(486,874,o),
(460,863,o),
(445,842,cs),
(438,832,o),
(434,821,o),
(434,812,cs),
(434,793,o),
(448,778,o),
(466,778,cs),
(476,778,o),
(486,782,o),
(496,792,cs)
);
},
{
closed = 1;
nodes = (
(818,188,o),
(766,74,o),
(732,74,cs),
(713,74,o),
(703,94,o),
(703,145,cs),
(703,193,o),
(719,409,o),
(719,471,cs),
(719,637,o),
(668,709,o),
(557,709,cs),
(456,709,o),
(379,619,o),
(326,470,c),
(311,639,o),
(260,721,o),
(159,721,cs),
(109,721,o),
(66,696,o),
(34,650,cs),
(25,637,o),
(21,625,o),
(21,614,cs),
(21,594,o),
(34,580,o),
(50,580,cs),
(67,580,o),
(78,588,o),
(91,606,cs),
(112,635,o),
(129,646,o),
(151,646,cs),
(201,646,o),
(248,597,o),
(248,314,cs),
(248,229,o),
(233,97,o),
(224,46,cs),
(223,42,o),
(223,38,o),
(223,35,cs),
(223,8,o),
(243,-8,o),
(263,-8,cs),
(284,-8,o),
(305,6,o),
(309,39,cs),
(314,77,o),
(320,132,o),
(326,193,cs),
(351,451,o),
(465,634,o),
(556,634,cs),
(608,634,o),
(635,605,o),
(635,460,cs),
(635,398,o),
(619,205,o),
(619,150,cs),
(619,45,o),
(664,-1,o),
(727,-1,cs),
(798,-1,o),
(848,83,o),
(906,233,cs),
(908,238,o),
(909,243,o),
(909,247,cs),
(909,267,o),
(893,281,o),
(876,281,cs),
(864,281,o),
(851,273,o),
(844,254,cs)
);
}
);
width = 822;
}
);
leftKerningGroup = M;
rightKerningGroup = A;
unicode = 209;
},
{
glyphname = Ograve;
layers = (
{
anchors = (
{
name = t.uni0302_2;
position = "{463, 700}";
}
);
hints = (
{
horizontal = 1;
place = (-10,75);
type = Stem;
},
{
horizontal = 1;
place = (75,70);
type = Stem;
},
{
horizontal = 1;
place = (635,75);
type = Stem;
},
{
place = (108,84);
type = Stem;
},
{
place = (263,77);
type = Stem;
},
{
place = (585,84);
type = Stem;
}
);
layerId = "4835E1DE-F61A-4AD8-AAF5-C8058972FAF5";
shapes = (
{
closed = 1;
nodes = (
(449,777,ls),
(460,766,o),
(471,761,o),
(482,761,cs),
(500,761,o),
(514,776,o),
(514,794,cs),
(514,804,o),
(510,816,o),
(499,827,cs),
(438,891,ls),
(427,903,o),
(414,908,o),
(404,908,cs),
(385,908,o),
(371,894,o),
(371,876,cs),
(371,865,o),
(376,853,o),
(387,842,cs)
);
},
{
closed = 1;
nodes = (
(717,184,o),
(665,150,o),
(607,145,c),
(645,214,o),
(669,306,o),
(669,420,cs),
(669,615,o),
(574,710,o),
(460,710,cs),
(426,710,o),
(390,697,o),
(360,673,c),
(354,682,o),
(343,688,o),
(327,688,cs),
(317,688,o),
(306,686,o),
(293,681,cs),
(191,642,o),
(108,478,o),
(108,312,cs),
(108,104,o),
(225,-10,o),
(376,-10,cs),
(441,-10,o),
(506,19,o),
(559,77,c),
(569,76,o),
(578,75,o),
(588,75,cs),
(682,75,o),
(765,120,o),
(807,233,cs),
(809,239,o),
(810,245,o),
(810,250,cs),
(810,269,o),
(796,281,o),
(780,281,cs),
(767,281,o),
(753,273,o),
(745,254,cs)
);
},
{
closed = 1;
nodes = (
(523,635,o),
(585,574,o),
(585,423,cs),
(585,303,o),
(559,215,o),
(521,156,c),
(426,189,o),
(340,289,o),
(340,429,cs),
(340,571,o),
(404,635,o),
(464,635,cs)
);
},
{
closed = 1;
nodes = (
(273,65,o),
(192,146,o),
(192,310,cs),
(192,420,o),
(233,526,o),
(292,581,c),
(274,539,o),
(263,487,o),
(263,426,cs),
(263,264,o),
(358,148,o),
(471,100,c),
(441,76,o),
(408,65,o),
(377,65,cs)
);
}
);
width = 723;
}
);
leftKerningGroup = O;
rightKerningGroup = A;
unicode = 210;
},
{
glyphname = Oacute;
layers = (
{
anchors = (
{
name = t.uni0302_2;
position = "{463, 700}";
}
);
hints = (
{
horizontal = 1;
place = (-10,75);
type = Stem;
},
{
horizontal = 1;
place = (75,70);
type = Stem;
},
{
horizontal = 1;
place = (635,75);
type = Stem;
},
{
place = (108,84);
type = Stem;
},
{
place = (263,77);
type = Stem;
},
{
place = (585,84);
type = Stem;
}
);
layerId = "4835E1DE-F61A-4AD8-AAF5-C8058972FAF5";
shapes = (
{
closed = 1;
nodes = (
(560,842,ls),
(571,853,o),
(576,865,o),
(576,875,cs),
(576,894,o),
(561,908,o),
(543,908,cs),
(533,908,o),
(520,903,o),
(509,891,cs),
(448,827,ls),
(437,816,o),
(433,804,o),
(433,794,cs),
(433,775,o),
(447,761,o),
(465,761,cs),
(475,761,o),
(487,766,o),
(498,777,cs)
);
},
{
closed = 1;
nodes = (
(717,184,o),
(665,150,o),
(607,145,c),
(645,214,o),
(669,306,o),
(669,420,cs),
(669,615,o),
(574,710,o),
(460,710,cs),
(426,710,o),
(390,697,o),
(360,673,c),
(354,682,o),
(343,688,o),
(327,688,cs),
(317,688,o),
(306,686,o),
(293,681,cs),
(191,642,o),
(108,478,o),
(108,312,cs),
(108,104,o),
(225,-10,o),
(376,-10,cs),
(441,-10,o),
(506,19,o),
(559,77,c),
(569,76,o),
(578,75,o),
(588,75,cs),
(682,75,o),
(765,120,o),
(807,233,cs),
(809,239,o),
(810,245,o),
(810,250,cs),
(810,269,o),
(796,281,o),
(780,281,cs),
(767,281,o),
(753,273,o),
(745,254,cs)
);
},
{
closed = 1;
nodes = (
(523,635,o),
(585,574,o),
(585,423,cs),
(585,303,o),
(559,215,o),
(521,156,c),
(426,189,o),
(340,289,o),
(340,429,cs),
(340,571,o),
(404,635,o),
(464,635,cs)
);
},
{
closed = 1;
nodes = (
(273,65,o),
(192,146,o),
(192,310,cs),
(192,420,o),
(233,526,o),
(292,581,c),
(274,539,o),
(263,487,o),
(263,426,cs),
(263,264,o),
(358,148,o),
(471,100,c),
(441,76,o),
(408,65,o),
(377,65,cs)
);
}
);
width = 723;
}
);
leftKerningGroup = O;
rightKerningGroup = A;
unicode = 211;
},
{
glyphname = Ocircumflex;
layers = (
{
anchors = (
{
name = t.uni0302_2;
position = "{463, 700}";
}
);
hints = (
{
horizontal = 1;
place = (-10,75);
type = Stem;
},
{
horizontal = 1;
place = (75,70);
type = Stem;
},
{
horizontal = 1;
place = (635,75);
type = Stem;
},
{
place = (108,84);
type = Stem;
},
{
place = (263,77);
type = Stem;
},
{
place = (585,84);
type = Stem;
}
);
layerId = "4835E1DE-F61A-4AD8-AAF5-C8058972FAF5";
shapes = (
{
closed = 1;
nodes = (
(472,809,ls),
(477,812,o),
(481,814,o),
(485,814,cs),
(490,814,o),
(494,812,o),
(498,808,cs),
(524,779,ls),
(534,768,o),
(544,764,o),
(554,764,cs),
(571,764,o),
(585,778,o),
(585,795,cs),
(585,804,o),
(582,813,o),
(574,822,cs),
(517,887,ls),
(510,895,o),
(503,899,o),
(496,899,cs),
(490,899,o),
(483,897,o),
(476,892,cs),
(388,832,l),
(372,822,o),
(366,809,o),
(366,798,cs),
(366,781,o),
(380,767,o),
(398,767,cs),
(406,767,o),
(414,769,o),
(422,775,cs)
);
},
{
closed = 1;
nodes = (
(717,184,o),
(665,150,o),
(607,145,c),
(645,214,o),
(669,306,o),
(669,420,cs),
(669,615,o),
(574,710,o),
(460,710,cs),
(426,710,o),
(390,697,o),
(360,673,c),
(354,682,o),
(343,688,o),
(327,688,cs),
(317,688,o),
(306,686,o),
(293,681,cs),
(191,642,o),
(108,478,o),
(108,312,cs),
(108,104,o),
(225,-10,o),
(376,-10,cs),
(441,-10,o),
(506,19,o),
(559,77,c),
(569,76,o),
(578,75,o),
(588,75,cs),
(682,75,o),
(765,120,o),
(807,233,cs),
(809,239,o),
(810,245,o),
(810,250,cs),
(810,269,o),
(796,281,o),
(780,281,cs),
(767,281,o),
(753,273,o),
(745,254,cs)
);
},
{
closed = 1;
nodes = (
(523,635,o),
(585,574,o),
(585,423,cs),
(585,303,o),
(559,215,o),
(521,156,c),
(426,189,o),
(340,289,o),
(340,429,cs),
(340,571,o),
(404,635,o),
(464,635,cs)
);
},
{
closed = 1;
nodes = (
(273,65,o),
(192,146,o),
(192,310,cs),
(192,420,o),
(233,526,o),
(292,581,c),
(274,539,o),
(263,487,o),
(263,426,cs),
(263,264,o),
(358,148,o),
(471,100,c),
(441,76,o),
(408,65,o),
(377,65,cs)
);
}
);
width = 723;
}
);
leftKerningGroup = O;
rightKerningGroup = A;
unicode = 212;
},
{
glyphname = Otilde;
layers = (
{
anchors = (
{
name = t.uni0302_2;
position = "{463, 700}";
}
);
hints = (
{
horizontal = 1;
place = (-10,75);
type = Stem;
},
{
horizontal = 1;
place = (75,70);
type = Stem;
},
{
horizontal = 1;
place = (635,75);
type = Stem;
},
{
horizontal = 1;
place = (772,69);
type = Stem;
},
{
horizontal = 1;
place = (804,70);
type = Stem;
},
{
place = (108,84);
type = Stem;
},
{
place = (263,77);
type = Stem;
},
{
place = (585,84);
type = Stem;
}
);
layerId = "4835E1DE-F61A-4AD8-AAF5-C8058972FAF5";
shapes = (
{
closed = 1;
nodes = (
(417,798,o),
(424,804,o),
(430,804,cs),
(444,804,o),
(489,772,o),
(520,772,cs),
(544,772,o),
(563,783,o),
(581,803,cs),
(590,814,o),
(593,824,o),
(593,834,cs),
(593,854,o),
(577,870,o),
(559,870,cs),
(549,870,o),
(539,865,o),
(530,853,cs),
(524,845,o),
(519,841,o),
(514,841,cs),
(500,841,o),
(456,874,o),
(423,874,cs),
(401,874,o),
(375,863,o),
(360,842,cs),
(353,832,o),
(349,821,o),
(349,812,cs),
(349,793,o),
(363,778,o),
(381,778,cs),
(391,778,o),
(401,782,o),
(411,792,cs)
);
},
{
closed = 1;
nodes = (
(717,184,o),
(665,150,o),
(607,145,c),
(645,214,o),
(669,306,o),
(669,420,cs),
(669,615,o),
(574,710,o),
(460,710,cs),
(426,710,o),
(390,697,o),
(360,673,c),
(354,682,o),
(343,688,o),
(327,688,cs),
(317,688,o),
(306,686,o),
(293,681,cs),
(191,642,o),
(108,478,o),
(108,312,cs),
(108,104,o),
(225,-10,o),
(376,-10,cs),
(441,-10,o),
(506,19,o),
(559,77,c),
(569,76,o),
(578,75,o),
(588,75,cs),
(682,75,o),
(765,120,o),
(807,233,cs),
(809,239,o),
(810,245,o),
(810,250,cs),
(810,269,o),
(796,281,o),
(780,281,cs),
(767,281,o),
(753,273,o),
(745,254,cs)
);
},
{
closed = 1;
nodes = (
(523,635,o),
(585,574,o),
(585,423,cs),
(585,303,o),
(559,215,o),
(521,156,c),
(426,189,o),
(340,289,o),
(340,429,cs),
(340,571,o),
(404,635,o),
(464,635,cs)
);
},
{
closed = 1;
nodes = (
(273,65,o),
(192,146,o),
(192,310,cs),
(192,420,o),
(233,526,o),
(292,581,c),
(274,539,o),
(263,487,o),
(263,426,cs),
(263,264,o),
(358,148,o),
(471,100,c),
(441,76,o),
(408,65,o),
(377,65,cs)
);
}
);
width = 723;
}
);
leftKerningGroup = O;
rightKerningGroup = A;
unicode = 213;
},
{
glyphname = Odieresis;
layers = (
{
anchors = (
{
name = t.uni0302_2;
position = "{463, 700}";
}
);
hints = (
{
horizontal = 1;
place = (-10,75);
type = Stem;
},
{
horizontal = 1;
place = (75,70);
type = Stem;
},
{
horizontal = 1;
place = (635,75);
type = Stem;
},
{
horizontal = 1;
place = (770,88);
type = Stem;
},
{
place = (108,84);
type = Stem;
},
{
place = (263,77);
type = Stem;
},
{
place = (372,88);
type = Stem;
},
{
place = (496,88);
type = Stem;
},
{
place = (585,84);
type = Stem;
}
);
layerId = "4835E1DE-F61A-4AD8-AAF5-C8058972FAF5";
shapes = (
{
closed = 1;
nodes = (
(440,770,o),
(460,790,o),
(460,814,cs),
(460,838,o),
(440,858,o),
(416,858,cs),
(392,858,o),
(372,838,o),
(372,814,cs),
(372,790,o),
(392,770,o),
(416,770,cs)
);
},
{
closed = 1;
nodes = (
(564,770,o),
(584,790,o),
(584,814,cs),
(584,838,o),
(564,858,o),
(540,858,cs),
(516,858,o),
(496,838,o),
(496,814,cs),
(496,790,o),
(516,770,o),
(540,770,cs)
);
},
{
closed = 1;
nodes = (
(717,184,o),
(665,150,o),
(607,145,c),
(645,214,o),
(669,306,o),
(669,420,cs),
(669,615,o),
(574,710,o),
(460,710,cs),
(426,710,o),
(390,697,o),
(360,673,c),
(354,682,o),
(343,688,o),
(327,688,cs),
(317,688,o),
(306,686,o),
(293,681,cs),
(191,642,o),
(108,478,o),
(108,312,cs),
(108,104,o),
(225,-10,o),
(376,-10,cs),
(441,-10,o),
(506,19,o),
(559,77,c),
(569,76,o),
(578,75,o),
(588,75,cs),
(682,75,o),
(765,120,o),
(807,233,cs),
(809,239,o),
(810,245,o),
(810,250,cs),
(810,269,o),
(796,281,o),
(780,281,cs),
(767,281,o),
(753,273,o),
(745,254,cs)
);
},
{
closed = 1;
nodes = (
(523,635,o),
(585,574,o),
(585,423,cs),
(585,303,o),
(559,215,o),
(521,156,c),
(426,189,o),
(340,289,o),
(340,429,cs),
(340,571,o),
(404,635,o),
(464,635,cs)
);
},
{
closed = 1;
nodes = (
(273,65,o),
(192,146,o),
(192,310,cs),
(192,420,o),
(233,526,o),
(292,581,c),
(274,539,o),
(263,487,o),
(263,426,cs),
(263,264,o),
(358,148,o),
(471,100,c),
(441,76,o),
(408,65,o),
(377,65,cs)
);
}
);
width = 723;
}
);
leftKerningGroup = O;
rightKerningGroup = A;
unicode = 214;
},
{
glyphname = multiply;
layers = (
{
hints = (
{
horizontal = 1;
place = (216,245);
type = Stem;
},
{
place = (98,251);
type = Stem;
}
);
layerId = "4835E1DE-F61A-4AD8-AAF5-C8058972FAF5";
shapes = (
{
closed = 1;
nodes = (
(275,341,l),
(332,397,ls),
(341,406,o),
(345,416,o),
(345,425,cs),
(345,444,o),
(328,461,o),
(309,461,cs),
(299,461,o),
(290,457,o),
(281,449,c),
(224,392,l),
(169,446,ls),
(160,454,o),
(151,458,o),
(142,458,cs),
(122,458,o),
(106,441,o),
(106,421,cs),
(106,412,o),
(109,403,o),
(118,394,cs),
(172,341,l),
(111,280,ls),
(102,271,o),
(98,261,o),
(98,252,cs),
(98,233,o),
(115,216,o),
(134,216,cs),
(144,216,o),
(153,220,o),
(162,228,cs),
(224,289,l),
(285,229,ls),
(294,221,o),
(303,217,o),
(312,217,cs),
(332,217,o),
(349,234,o),
(349,253,cs),
(349,262,o),
(345,272,o),
(336,281,cs)
);
}
);
width = 390;
}
);
unicode = 215;
},
